<?xml version="1.0" encoding="UTF-8" standalone="no"?>
<!-- Generator: Adobe Illustrator 18.0.0, SVG Export Plug-In . SVG Version: 6.00 Build 0)  -->

<svg
   xmlns:dc="http://purl.org/dc/elements/1.1/"
   xmlns:cc="http://creativecommons.org/ns#"
   xmlns:rdf="http://www.w3.org/1999/02/22-rdf-syntax-ns#"
   xmlns:svg="http://www.w3.org/2000/svg"
   xmlns="http://www.w3.org/2000/svg"
   xmlns:sodipodi="http://sodipodi.sourceforge.net/DTD/sodipodi-0.dtd"
   xmlns:inkscape="http://www.inkscape.org/namespaces/inkscape"
   version="1.1"
   id="Capa_1"
   x="0px"
   y="0px"
   viewBox="0 0 158.87344 217.56934"
   xml:space="preserve"
   sodipodi:docname="educaciointegral.svg"
   width="158.87344"
   height="217.56935"
   inkscape:version="0.92.2 5c3e80d, 2017-08-06"><metadata
     id="metadata51"><rdf:RDF><cc:Work
         rdf:about=""><dc:format>image/svg+xml</dc:format><dc:type
           rdf:resource="http://purl.org/dc/dcmitype/StillImage" /></cc:Work></rdf:RDF></metadata><defs
     id="defs49" /><sodipodi:namedview
     pagecolor="#ffffff"
     bordercolor="#666666"
     borderopacity="1"
     objecttolerance="10"
     gridtolerance="10"
     guidetolerance="10"
     inkscape:pageopacity="0"
     inkscape:pageshadow="2"
     inkscape:window-width="640"
     inkscape:window-height="480"
     id="namedview47"
     showgrid="false"
     inkscape:zoom="1.0847083"
     inkscape:cx="79.436324"
     inkscape:cy="108.78499"
     inkscape:window-x="0"
     inkscape:window-y="0"
     inkscape:window-maximized="0"
     inkscape:current-layer="Capa_1" /><g
     id="g14"
     transform="translate(-29.348679,-6.4089257e-4)"><path
       d="m 152.372,145.784 c -4.782,-2.026 -10.026,-3.905 -15.455,-5.778 8.807,-20.117 5.481,-43.415 -11.355,-58.642 C 116.197,72.894 97.938,66.556 80.851,59.079 88.58,41.966 94.001,21.21 89.074,2.628 89.086,2.497 89.017,2.372 88.971,2.236 88.855,1.811 88.763,1.382 88.636,0.96 88.33,-0.055 87.183,-0.092 86.579,0.445 84.662,-0.251 82.385,-0.12 80.606,0.772 79.075,1.54 78.018,2.805 77.337,4.272 76.615,4.019 75.585,4.6 75.745,5.622 c 0.049,0.315 0.074,0.624 0.121,0.938 -11.406,4.896 -22.775,9.98 -33.932,15.419 0.004,-3.266 0.631,-6.77 2.012,-10.558 0.377,-0.177 0.646,-0.537 0.489,-1.025 -0.017,-0.052 -0.051,-0.093 -0.07,-0.144 0.081,-0.203 0.129,-0.393 0.214,-0.598 C 44.913,8.853 43.863,8.328 43.241,8.716 41.819,7.52 39.566,7.012 37.906,7.044 35.891,7.083 34.045,7.841 32.693,9.203 32.437,9.131 32.163,9.176 32.029,9.489 c -0.166,0.388 -0.276,0.78 -0.427,1.169 -0.036,0.063 -0.091,0.106 -0.126,0.17 -0.051,0.094 -0.041,0.185 -0.037,0.275 -6.816,18.398 3.919,37.781 19.438,48.521 4.164,2.882 8.623,5 13.224,6.762 -10.441,23.619 -6.288,48.135 14.612,64.766 11.826,9.41 27.655,13.584 43.036,17.917 -7.705,12.687 -9.971,27.74 -6.7,41.617 -0.023,0.127 -0.011,0.258 0.074,0.356 2.086,8.587 6.293,16.712 12.686,23.525 0.246,0.262 0.554,0.29 0.857,0.235 3.6,5.402 12.858,2.362 12.091,-4.503 -0.083,-0.743 -0.617,-1.115 -1.168,-1.174 -3.073,-4.347 -5.318,-8.695 -6.897,-13.078 3.107,0.643 6.725,-1.778 9.595,-2.991 9.461,-3.999 18.865,-8.121 28.26,-12.271 1.59,3.822 2.79,8.093 3.411,13.035 0.062,0.49 0.346,0.817 0.697,1.017 1.851,3.132 5.599,4.755 9.206,3.949 1.518,-0.339 2.944,-1.13 3.682,-2.525 0.39,-0.209 0.686,-0.584 0.679,-1.168 -0.287,-24.197 -14.141,-40.111 -35.85,-49.309 z M 79.546,18.905 C 79.39,14.88 78.972,10.946 78.338,7.274 78.7,5.515 79.663,3.997 81.3,3.125 c 1.871,-0.997 3.609,-0.521 5.385,0.207 4.652,18.323 -0.977,37.74 -7.62,54.961 -2.783,-1.239 -5.529,-2.508 -8.186,-3.828 6.679,-9.115 8.926,-21.839 8.688,-33.91 l 0.001,-0.001 c 0.699,-0.459 0.493,-1.285 -0.022,-1.649 z m -4.993,20.41 c -1.374,4.959 -3.098,9.774 -4.298,14.842 -4.503,-2.263 -8.724,-4.679 -12.478,-7.305 5.479,-1.911 12.093,-4.003 16.776,-7.537 z m -17.925,6.621 c -0.026,0.01 -0.029,0.037 -0.052,0.049 -3.585,-2.629 -6.702,-5.466 -9.11,-8.593 0.061,0 0.117,0.022 0.183,-0.006 10.068,-4.304 20.008,-9.361 29.304,-15.215 -0.045,3.233 -0.242,6.478 -0.743,9.782 -0.27,1.785 -0.655,3.519 -1.083,5.236 -0.006,0.002 -0.012,-0.003 -0.018,-10e-4 -2.856,0.943 -5.391,2.74 -8.065,4.109 -3.392,1.736 -6.865,3.262 -10.416,4.639 z M 42.37,23.219 c 11.364,-4.613 22.607,-9.61 33.74,-14.758 0.505,3.793 0.813,7.535 0.875,11.286 -9.889,5.714 -19.718,11.457 -29.769,16.901 -0.097,0.052 -0.133,0.128 -0.166,0.202 -2.974,-4.037 -4.808,-8.539 -5.055,-13.651 0.114,0.042 0.235,0.077 0.375,0.02 z m 7.783,30.883 c 1.048,0.331 2.094,0.511 3.257,0.304 0.584,-0.104 0.421,-0.989 -0.136,-1.004 -1.341,-0.036 -2.564,-0.193 -3.812,-0.697 -0.301,-0.122 -0.556,0.082 -0.661,0.344 -1.508,-1.226 -2.967,-2.492 -4.315,-3.84 2.26,0.045 4.435,0.075 6.679,0.548 0.774,0.163 1.077,-0.931 0.326,-1.183 -2.418,-0.812 -5.119,-1.11 -7.592,-0.347 -0.096,0.029 -0.149,0.096 -0.205,0.158 -2.01,-2.103 -3.881,-4.303 -5.426,-6.71 1.02,0.241 2.532,-0.5 3.297,0.048 0.638,0.456 1.313,-0.518 0.811,-1.051 -0.888,-0.944 -2.51,-0.79 -3.692,-0.583 0.577,-0.101 0.445,-1.054 -0.138,-1.023 -0.626,0.034 -1.12,0.483 -1.225,1.07 -1.017,-1.753 -1.923,-3.573 -2.659,-5.487 1.768,0.047 3.494,0.276 5.264,0.555 0.603,0.095 0.826,-0.692 0.252,-0.914 -1.895,-0.734 -3.906,-0.862 -5.915,-0.756 -0.6,-1.723 -1.125,-3.488 -1.476,-5.343 1.748,0.262 3.511,0.461 5.269,0.561 0.637,0.036 0.597,-0.888 0,-0.967 -1.799,-0.239 -3.623,-0.38 -5.443,-0.445 -0.283,-1.708 -0.49,-3.454 -0.545,-5.275 1.552,0.242 3.1,0.497 4.664,0.655 0.486,0.049 0.602,-0.775 0.116,-0.858 -1.599,-0.274 -3.209,-0.447 -4.82,-0.633 -0.016,-1.616 0.049,-3.271 0.224,-4.977 1.242,0.49 2.56,0.663 3.959,0.436 0.556,-0.09 0.394,-0.931 -0.129,-0.949 -1.304,-0.046 -2.479,-0.297 -3.646,-0.683 0.176,-1.386 0.343,-2.768 0.65,-4.214 1.384,-1.039 3.057,-1.581 4.816,-1.563 1.829,0.019 2.858,0.843 4.156,1.624 -8.681,19.541 7.435,36.223 24.671,44.389 14.871,7.046 31.101,11.104 45.255,19.71 23.088,14.039 33.588,39.029 22.259,64.083 -2.464,-0.842 -4.957,-1.688 -7.457,-2.549 1.692,-3.87 2.724,-7.82 3.212,-11.77 -0.027,0.489 0.371,1.051 0.912,0.83 1.799,-0.735 3.63,-1.414 5.351,-2.322 0.71,-0.374 0.223,-1.566 -0.552,-1.308 -1.846,0.613 -3.605,1.465 -5.38,2.254 -0.175,0.078 -0.263,0.217 -0.314,0.368 0.676,-5.677 0.2,-11.351 -1.338,-16.779 1.444,-0.195 2.856,-0.568 4.157,-1.268 0.467,-0.252 0.149,-1.037 -0.365,-0.867 -1.381,0.457 -2.73,0.795 -4.108,1.033 -0.931,-2.994 -2.157,-5.913 -3.696,-8.702 1.166,-0.079 2.363,-0.244 3.455,-0.589 0.592,-0.187 0.51,-1.131 -0.151,-1.114 -1.307,0.035 -2.663,0.302 -3.92,0.675 -0.823,-1.408 -1.68,-2.801 -2.65,-4.136 1.134,-0.247 2.272,-0.477 3.394,-0.785 0.567,-0.156 0.328,-1.007 -0.242,-0.879 -1.235,0.277 -2.445,0.636 -3.66,0.979 -1.701,-2.258 -3.585,-4.413 -5.688,-6.407 1.44,-0.295 2.877,-0.604 4.293,-1.006 0.577,-0.164 0.324,-0.968 -0.242,-0.879 -1.673,0.263 -3.321,0.647 -4.966,1.038 -0.312,-0.282 -0.605,-0.58 -0.925,-0.856 -2.012,-1.734 -4.116,-3.239 -6.287,-4.583 2.346,-0.114 4.692,-0.227 7.022,-0.521 0.598,-0.076 0.638,-0.993 0,-0.967 -2.747,0.116 -5.478,0.478 -8.208,0.8 -1.9,-1.112 -3.839,-2.131 -5.827,-3.041 0.335,-0.095 0.668,-0.186 1.009,-0.33 0.463,-0.196 0.132,-0.981 -0.344,-0.816 -0.753,0.262 -1.488,0.405 -2.225,0.457 -6.321,-2.726 -13,-4.687 -19.746,-6.792 -1.019,-0.318 -2.015,-0.703 -3.023,-1.055 1.374,-0.292 2.744,-0.598 4.096,-0.987 0.646,-0.186 0.365,-1.09 -0.272,-0.986 -1.972,0.32 -3.912,0.8 -5.855,1.264 -2.434,-0.905 -4.843,-1.867 -7.202,-2.922 1.441,-0.177 2.819,-0.594 4.179,-1.344 0.49,-0.27 0.06,-0.963 -0.432,-0.739 -1.852,0.843 -3.804,1.207 -5.821,1.177 -5.126,-2.43 -9.976,-5.257 -14.274,-8.559 z m 58.678,74.366 c -0.5,0.194 -0.615,0.7 -0.483,1.097 -6.292,-2.706 -12.22,-5.736 -17.32,-9.346 4.106,-0.766 9.014,-3.869 11.877,-5.427 6.865,-3.736 13.338,-8.085 20.485,-11.279 2.012,4.764 3.145,9.939 3.292,15.457 -5.932,3.308 -11.37,6.985 -17.851,9.498 z m 17.828,-6.953 c -0.128,4.51 -0.877,9.226 -2.391,14.146 -5.053,-1.765 -10.081,-3.627 -14.915,-5.667 5.787,-2.086 12.208,-4.685 17.306,-8.479 z M 94.046,76.342 c 5.459,2.318 10.351,5.202 14.631,8.537 -11.697,4.736 -22.199,11.562 -31.376,20.184 -2.118,-4.218 -3.429,-8.947 -3.595,-14.379 7.033,-4.226 14.176,-8.901 20.34,-14.342 z M 73.712,89.27 c 0.021,-5.496 1.105,-11.642 3.533,-18.591 4.481,1.326 8.977,2.64 13.372,4.261 0.503,0.186 0.974,0.406 1.469,0.6 -6.282,4.296 -12.33,9.104 -18.374,13.73 z m 36.242,-2.751 c 0.183,-0.076 0.313,-0.194 0.419,-0.325 5.249,4.424 9.404,9.622 12.214,15.474 -11.432,4.899 -21.804,12.18 -33.006,17.473 -4.817,-3.632 -8.838,-7.814 -11.615,-12.789 9.583,-8.38 20.21,-14.944 31.988,-19.833 z m 28.229,123.984 c -0.48,4.555 -5.399,6.238 -8.663,3.161 -0.024,-0.121 0.011,-0.239 -0.077,-0.359 -0.732,-1.001 -1.412,-2.011 -2.084,-3.021 1.53,0.055 3.07,0.12 4.583,-0.006 0.442,-0.037 0.443,-0.651 0,-0.688 -1.669,-0.14 -3.372,-0.047 -5.056,0.009 -1.18,-1.817 -2.232,-3.654 -3.215,-5.5 2.095,-0.041 4.162,0.084 6.265,0.366 0.405,0.054 0.491,-0.624 0.096,-0.712 -2.225,-0.498 -4.492,-0.536 -6.756,-0.391 -0.939,-1.816 -1.734,-3.653 -2.48,-5.495 1.507,-0.006 3.012,0.022 4.533,-0.011 0.491,-0.011 0.647,-0.811 0.121,-0.895 -1.665,-0.266 -3.37,-0.184 -5.055,0.018 -0.727,-1.875 -1.35,-3.763 -1.875,-5.662 1.454,0.071 2.915,0.094 4.273,-0.168 0.382,-0.074 0.382,-0.697 0,-0.771 -1.435,-0.276 -2.985,-0.236 -4.52,-0.155 -0.35,-1.37 -0.616,-2.749 -0.861,-4.131 1.849,0.095 3.725,0.012 5.475,-0.487 0.561,-0.16 0.481,-1.126 -0.143,-1.059 -1.888,0.202 -3.689,0.432 -5.531,0.478 -0.298,-1.896 -0.458,-3.807 -0.556,-5.723 2.228,0.101 4.479,0.248 6.691,0.104 0.693,-0.045 0.694,-1.033 0,-1.079 -2.222,-0.145 -4.484,0.005 -6.722,0.105 -0.051,-1.451 -0.024,-2.909 0.04,-4.37 2.76,0.021 5.581,-0.278 8.156,-1.261 0.669,-0.255 0.42,-1.277 -0.302,-1.094 -2.609,0.665 -5.134,1.2 -7.792,1.337 0.153,-2.464 0.53,-4.947 1.014,-7.437 1.436,0.059 2.884,0.116 4.284,-0.057 0.727,-0.09 0.729,-1.044 0,-1.134 -1.31,-0.163 -2.663,-0.121 -4.01,-0.067 0.214,-0.987 0.47,-1.977 0.732,-2.968 0.027,-0.002 0.044,0.017 0.073,0.01 2.227,-0.591 4.265,-0.388 6.505,-0.496 0.565,-0.027 0.708,-0.844 0.136,-1.004 -2.062,-0.58 -4.442,-0.091 -6.471,0.558 1.021,-3.636 2.382,-7.294 4.177,-10.975 2.973,0.842 5.923,1.698 8.821,2.604 -7.407,18.728 -8.975,43.11 6.194,58.426 z m -4.754,-57.961 c 6.991,2.245 13.611,4.854 19.434,8.345 -3.889,2.084 -7.762,4.193 -11.618,6.339 -1.841,1.024 -3.673,2.065 -5.508,3.101 -0.475,0.268 -5.269,2.676 -5.272,2.708 0.037,-0.361 -0.317,-0.527 -0.619,-0.469 0.49,-6.455 1.799,-13.094 3.583,-20.024 z m 21.03,32.819 c -4.638,1.998 -16.833,9.403 -22.393,8.707 -2.027,-6.455 -2.693,-12.994 -2.344,-19.734 1.694,1.283 4.663,-1.266 6.113,-2.051 6.087,-3.301 12.147,-6.646 18.158,-10.084 0.195,-0.111 0.272,-0.273 0.33,-0.435 6.502,4.173 11.865,9.614 15.429,17.122 -5.103,2.146 -10.209,4.285 -15.293,6.475 z m 26.317,11.271 c -1.636,-0.278 -3.126,-1.078 -4.268,-2.255 0.056,-0.159 0.078,-0.342 0.051,-0.557 -2.771,-21.937 -16.205,-36.211 -37.151,-42.547 -18.517,-5.601 -37.735,-7.553 -54.301,-18.619 -24.427,-16.317 -27.51,-39.51 -19.552,-65.712 3.204,1.169 6.471,2.184 9.756,3.165 -10.166,21.516 -1.827,44.218 18.036,56.859 11.415,7.264 25.766,11.373 39.718,15.782 0.343,0.813 1.43,1.263 2.128,0.68 25.766,8.245 49.58,18.129 50.201,51.666 0.003,0.176 0.052,0.321 0.103,0.464 -0.929,1 -3.914,1.212 -4.721,1.074 z"
       id="path2"
       inkscape:connector-curvature="0" /><path
       d="m 61.868,56.713 c -1.98,-0.098 -3.967,-0.034 -5.95,-0.019 -0.682,0.005 -0.683,1.055 0,1.06 1.982,0.015 3.969,0.079 5.95,-0.019 0.658,-0.031 0.659,-0.989 0,-1.022 z"
       id="path4"
       inkscape:connector-curvature="0" /><path
       d="m 86.338,67.263 c -1.318,0.026 -2.641,0.128 -3.949,0.298 -0.803,0.105 -0.865,1.303 0,1.301 1.317,-0.002 2.64,-0.076 3.949,-0.224 0.857,-0.096 0.907,-1.393 0,-1.375 z"
       id="path6"
       inkscape:connector-curvature="0" /><path
       d="m 94.088,67.838 c -2.269,0.44 -4.453,1.131 -6.654,1.828 -0.785,0.249 -0.464,1.439 0.341,1.237 2.242,-0.562 4.461,-1.119 6.625,-1.936 0.703,-0.265 0.436,-1.274 -0.312,-1.129 z"
       id="path8"
       inkscape:connector-curvature="0" /><path
       d="m 135.579,112.223 c -1.612,0.944 -3.025,1.449 -4.916,0.978 -0.617,-0.154 -0.866,0.76 -0.262,0.95 2.019,0.637 4.242,0.406 5.82,-1.096 0.438,-0.416 -0.124,-1.135 -0.642,-0.832 z"
       id="path10"
       inkscape:connector-curvature="0" /><path
       d="m 135.177,129.594 c -2.05,0.838 -4.069,1.731 -6.09,2.638 -0.447,0.201 -0.127,0.974 0.337,0.798 2.027,-0.768 4.045,-1.543 6.045,-2.378 0.639,-0.267 0.364,-1.326 -0.292,-1.058 z"
       id="path12"
       inkscape:connector-curvature="0" /></g><g
     id="g16"
     transform="translate(-29.348679,-6.4089257e-4)" /><g
     id="g18"
     transform="translate(-29.348679,-6.4089257e-4)" /><g
     id="g20"
     transform="translate(-29.348679,-6.4089257e-4)" /><g
     id="g22"
     transform="translate(-29.348679,-6.4089257e-4)" /><g
     id="g24"
     transform="translate(-29.348679,-6.4089257e-4)" /><g
     id="g26"
     transform="translate(-29.348679,-6.4089257e-4)" /><g
     id="g28"
     transform="translate(-29.348679,-6.4089257e-4)" /><g
     id="g30"
     transform="translate(-29.348679,-6.4089257e-4)" /><g
     id="g32"
     transform="translate(-29.348679,-6.4089257e-4)" /><g
     id="g34"
     transform="translate(-29.348679,-6.4089257e-4)" /><g
     id="g36"
     transform="translate(-29.348679,-6.4089257e-4)" /><g
     id="g38"
     transform="translate(-29.348679,-6.4089257e-4)" /><g
     id="g40"
     transform="translate(-29.348679,-6.4089257e-4)" /><g
     id="g42"
     transform="translate(-29.348679,-6.4089257e-4)" /><g
     id="g44"
     transform="translate(-29.348679,-6.4089257e-4)" /></svg>