<?xml version="1.0" encoding="UTF-8" standalone="no"?>
<svg
   xmlns:dc="http://purl.org/dc/elements/1.1/"
   xmlns:cc="http://creativecommons.org/ns#"
   xmlns:rdf="http://www.w3.org/1999/02/22-rdf-syntax-ns#"
   xmlns:svg="http://www.w3.org/2000/svg"
   xmlns="http://www.w3.org/2000/svg"
   xmlns:sodipodi="http://sodipodi.sourceforge.net/DTD/sodipodi-0.dtd"
   xmlns:inkscape="http://www.inkscape.org/namespaces/inkscape"
   version="1.1"
   x="0px"
   y="0px"
   viewBox="0 0 95.548225 88.399002"
   enable-background="new 0 0 100 100"
   xml:space="preserve"
   id="svg26"
   sodipodi:docname="solidaritat.svg"
   width="95.548225"
   height="88.399002"
   inkscape:version="0.92.2 5c3e80d, 2017-08-06"><metadata
     id="metadata32"><rdf:RDF><cc:Work
         rdf:about=""><dc:format>image/svg+xml</dc:format><dc:type
           rdf:resource="http://purl.org/dc/dcmitype/StillImage" /></cc:Work></rdf:RDF></metadata><defs
     id="defs30" /><sodipodi:namedview
     pagecolor="#ffffff"
     bordercolor="#666666"
     borderopacity="1"
     objecttolerance="10"
     gridtolerance="10"
     guidetolerance="10"
     inkscape:pageopacity="0"
     inkscape:pageshadow="2"
     inkscape:window-width="1193"
     inkscape:window-height="835"
     id="namedview28"
     showgrid="false"
     inkscape:zoom="1.888"
     inkscape:cx="47.770142"
     inkscape:cy="31.698"
     inkscape:window-x="0"
     inkscape:window-y="0"
     inkscape:window-maximized="0"
     inkscape:current-layer="svg26" /><g
     id="g20"
     transform="translate(-2.2298575,-5.799)"><path
       d="m 38.296,58.987 c 0.123,-0.592 0.245,-1.174 0.348,-1.735 0.62,-0.088 1.212,-0.304 1.771,-0.646 0.777,0.863 1.601,1.622 2.453,2.261 1.067,0.8 2.251,1.479 3.521,2.021 -0.004,0.915 0.414,1.757 1.157,2.303 0.562,0.42 1.26,0.651 1.967,0.651 v 0 c 0.934,0 1.753,-0.395 2.311,-1.117 0.164,-0.217 0.299,-0.469 0.398,-0.742 0.558,-1.468 -0.224,-2.707 -1.06,-3.321 -1.192,-0.888 -2.91,-0.915 -3.879,0.006 -1.072,-0.463 -2.073,-1.038 -2.977,-1.714 -0.751,-0.562 -1.474,-1.232 -2.153,-1.994 1.269,-1.939 0.803,-4.108 -0.262,-5.522 0.782,-0.705 1.611,-1.375 2.461,-2.049 1.289,0.66 3.037,0.188 3.917,-0.989 0.634,-0.814 0.875,-2.166 -0.011,-3.344 -0.177,-0.244 -0.386,-0.458 -0.629,-0.643 -1.315,-0.954 -3.347,-0.579 -4.378,0.789 -0.508,0.677 -0.656,1.528 -0.42,2.34 -0.939,0.743 -1.915,1.533 -2.83,2.383 -1.109,-0.482 -2.398,-0.474 -3.562,0.023 -0.624,-1.322 -1.133,-2.807 -1.589,-4.252 0.292,-0.208 0.55,-0.454 0.772,-0.741 0.063,-0.086 0.122,-0.179 0.197,-0.298 1.052,-1.721 0.452,-3.27 -0.543,-3.976 -0.585,-0.434 -1.339,-0.672 -2.122,-0.672 -1.182,0 -2.268,0.534 -2.978,1.466 l -0.077,0.101 -0.001,0.01 c -0.071,0.101 -0.138,0.207 -0.2,0.319 l -0.021,-0.008 -0.145,0.34 c -0.017,0.037 -0.033,0.074 -0.048,0.112 l -0.192,0.461 0.027,0.011 c -0.329,1.182 0.008,2.309 0.916,2.959 0.581,0.419 1.317,0.633 2.141,0.639 0.469,1.482 1.046,3.295 1.878,4.951 -0.116,0.121 -0.233,0.254 -0.345,0.403 -0.432,0.577 -0.711,1.225 -0.832,1.929 -0.798,0.257 -1.583,0.531 -2.377,0.81 -0.631,0.222 -1.268,0.444 -1.921,0.662 -0.246,-0.424 -0.557,-0.776 -0.904,-1.032 L 27.931,52.03 c -0.133,-0.093 -0.273,-0.177 -0.418,-0.252 l 0.008,-0.021 -0.3,-0.116 C 27.168,51.619 27.114,51.597 27.06,51.577 l -0.463,-0.173 -0.01,0.025 c -1.182,-0.286 -2.326,0.11 -2.932,1.012 -1.069,1.585 -0.612,3.99 0.995,5.158 0.104,0.069 0.206,0.136 0.304,0.188 1.489,0.849 3.165,0.524 3.954,-0.671 0.317,-0.46 0.514,-1.004 0.579,-1.59 0.793,-0.26 1.551,-0.525 2.291,-0.784 0.591,-0.207 1.17,-0.41 1.747,-0.603 0.336,0.872 0.914,1.643 1.659,2.203 0.323,0.248 0.688,0.453 1.088,0.613 -0.099,0.556 -0.222,1.159 -0.363,1.774 -0.09,0.427 -0.184,0.848 -0.275,1.256 -0.205,0.919 -0.4,1.792 -0.51,2.535 -0.569,0.3 -1.08,0.727 -1.469,1.236 -0.581,0.776 -0.746,1.623 -0.477,2.348 l -0.054,0.039 0.283,0.407 c 0.015,0.021 0.031,0.043 0.046,0.064 l 0.233,0.346 0.041,-0.028 c 0.104,0.104 0.218,0.203 0.342,0.296 0.57,0.412 1.261,0.631 1.997,0.631 1.1,0 2.176,-0.505 2.807,-1.318 0.63,-0.812 0.702,-1.941 0.189,-2.941 -0.214,-0.431 -0.493,-0.774 -0.839,-1.029 -0.194,-0.136 -0.4,-0.24 -0.623,-0.317 0.159,-0.843 0.4,-1.921 0.646,-3.021 z m -0.504,-2.675 -0.067,0.395 c -0.113,0.664 -0.259,1.364 -0.408,2.076 l -0.064,0.304 c -0.279,1.251 -0.568,2.544 -0.722,3.456 l -0.084,0.502 0.503,0.075 c 0.269,0.041 0.498,0.129 0.689,0.263 0.207,0.152 0.384,0.375 0.53,0.668 0.341,0.665 0.309,1.367 -0.087,1.877 -0.739,0.951 -2.433,1.211 -3.422,0.495 -0.176,-0.132 -0.317,-0.275 -0.432,-0.44 l 0.002,-0.001 c -0.425,-0.629 0.015,-1.346 0.231,-1.636 0.329,-0.43 0.811,-0.807 1.324,-1.035 l 0.258,-0.115 0.035,-0.28 c 0.094,-0.751 0.306,-1.703 0.531,-2.712 0.092,-0.412 0.187,-0.836 0.276,-1.259 0.179,-0.782 0.333,-1.558 0.443,-2.24 l 0.07,-0.431 -0.417,-0.128 c -0.452,-0.138 -0.852,-0.339 -1.192,-0.6 -0.711,-0.535 -1.23,-1.306 -1.462,-2.169 l -0.136,-0.508 -0.5,0.162 c -0.742,0.24 -1.483,0.5 -2.243,0.766 -0.832,0.292 -1.687,0.592 -2.59,0.881 l -0.341,0.109 -0.006,0.358 c -0.009,0.52 -0.16,1.018 -0.431,1.41 -0.513,0.775 -1.583,0.958 -2.645,0.354 -0.081,-0.042 -0.154,-0.091 -0.212,-0.13 -1.262,-0.918 -1.431,-2.753 -0.737,-3.781 0.427,-0.636 1.307,-0.839 2.216,-0.486 l 0.036,-0.093 0.008,0.003 -0.034,0.092 c 0.212,0.079 0.413,0.181 0.598,0.302 l 0.062,0.044 c 0.394,0.28 0.696,0.658 0.9,1.124 l 0.181,0.415 0.431,-0.14 c 0.805,-0.261 1.582,-0.533 2.349,-0.802 0.885,-0.311 1.757,-0.616 2.649,-0.896 l 0.315,-0.1 0.033,-0.328 c 0.066,-0.659 0.289,-1.235 0.7,-1.787 0.137,-0.183 0.309,-0.35 0.484,-0.518 l 0.274,-0.262 -0.178,-0.334 c -0.89,-1.676 -1.5,-3.604 -1.991,-5.154 l -0.229,-0.723 -0.407,0.044 c -0.689,0.076 -1.378,-0.083 -1.862,-0.433 -0.634,-0.454 -0.797,-1.329 -0.414,-2.228 L 30.519,40.7 30.522,40.693 30.61,40.73 c 0.102,-0.245 0.222,-0.459 0.358,-0.638 l 0.043,-0.061 c 0.52,-0.653 1.299,-1.026 2.146,-1.026 0.57,0 1.112,0.169 1.535,0.482 0.657,0.466 0.998,1.465 0.268,2.658 -0.047,0.074 -0.093,0.148 -0.133,0.204 -0.215,0.277 -0.488,0.509 -0.811,0.69 l -0.354,0.198 0.121,0.387 c 0.55,1.762 1.17,3.612 1.983,5.213 l 0.234,0.461 0.453,-0.25 c 1.118,-0.615 2.384,-0.642 3.405,-0.09 l 0.32,0.173 0.264,-0.251 c 1.046,-0.998 2.202,-1.922 3.296,-2.784 L 44.044,45.855 43.885,45.5 c -0.26,-0.58 -0.196,-1.217 0.189,-1.734 0.678,-0.895 2.092,-1.186 2.962,-0.556 0.157,0.12 0.297,0.264 0.422,0.435 0.613,0.814 0.397,1.659 0.02,2.143 -0.661,0.885 -1.983,1.193 -2.879,0.578 l -0.304,-0.208 -0.289,0.228 c -1.046,0.827 -2.151,1.711 -3.141,2.635 l -0.365,0.341 0.34,0.365 c 1.062,1.143 1.62,3.159 0.297,4.932 l -0.275,0.324 0.275,0.323 c 0.802,0.941 1.667,1.763 2.574,2.443 1.063,0.794 2.248,1.458 3.521,1.974 l 0.349,0.141 0.232,-0.296 c 0.396,-0.507 0.923,-0.612 1.295,-0.612 0.499,0 1.031,0.184 1.463,0.506 0.556,0.407 1.078,1.219 0.717,2.168 -0.068,0.187 -0.155,0.351 -0.256,0.484 -0.36,0.467 -0.899,0.724 -1.516,0.724 v 0 c -0.485,0 -0.983,-0.165 -1.372,-0.455 -0.553,-0.405 -0.827,-1.062 -0.734,-1.758 l 0.051,-0.386 -0.36,-0.145 C 45.784,59.564 44.562,58.88 43.47,58.062 42.568,57.386 41.697,56.564 40.882,55.617 l -0.302,-0.351 -0.374,0.273 c -0.624,0.459 -1.301,0.71 -2.013,0.748 z"
       id="path2"
       inkscape:connector-curvature="0" /><path
       d="m 66.966,37.286 c 0.098,0.071 0.2,0.138 0.302,0.196 1.464,0.883 3.146,0.604 3.973,-0.568 1.018,-1.396 0.928,-3.776 -0.775,-5.048 L 70.386,31.8 C 70.26,31.709 70.124,31.624 69.982,31.545 l 0.009,-0.022 -0.344,-0.144 c -0.036,-0.016 -0.071,-0.031 -0.108,-0.046 l -0.465,-0.193 -0.013,0.03 c -1.168,-0.317 -2.327,0.055 -2.951,0.938 -0.417,0.584 -0.636,1.348 -0.624,2.143 -1.477,0.479 -3.29,1.068 -4.94,1.91 -0.126,-0.119 -0.258,-0.233 -0.405,-0.341 -0.58,-0.429 -1.229,-0.705 -1.935,-0.821 -0.261,-0.793 -0.539,-1.573 -0.821,-2.363 -0.226,-0.633 -0.454,-1.272 -0.677,-1.929 0.44,-0.261 0.814,-0.605 1.13,-1.049 v 0 c 0.093,-0.13 0.178,-0.272 0.256,-0.425 l 0.024,0.009 0.175,-0.462 c 0.018,-0.044 0.033,-0.089 0.049,-0.134 l 0.126,-0.337 -0.026,-0.01 c 0.281,-1.193 -0.099,-2.304 -1.031,-2.918 -0.557,-0.371 -1.238,-0.567 -1.972,-0.567 -1.276,0 -2.46,0.591 -3.167,1.579 -0.075,0.105 -0.148,0.224 -0.193,0.319 -0.987,1.755 -0.33,3.281 0.69,3.952 0.454,0.309 1.01,0.504 1.594,0.566 0.267,0.799 0.539,1.562 0.806,2.306 0.209,0.583 0.413,1.154 0.607,1.724 -0.87,0.342 -1.637,0.924 -2.19,1.67 -0.247,0.324 -0.451,0.69 -0.609,1.092 C 52.423,37.927 51.818,37.807 51.199,37.67 50.753,37.579 50.314,37.484 49.888,37.393 48.99,37.199 48.136,37.015 47.405,36.911 47.104,36.347 46.676,35.84 46.18,35.463 l -0.089,-0.061 c -0.735,-0.52 -1.589,-0.676 -2.282,-0.417 l -0.042,-0.06 -0.409,0.296 c -0.008,0.006 -0.016,0.011 -0.023,0.017 l -0.385,0.262 0.029,0.042 c -0.107,0.107 -0.207,0.222 -0.298,0.345 -1.042,1.466 -0.705,3.71 0.723,4.803 0.807,0.614 1.949,0.682 2.939,0.169 0.434,-0.217 0.778,-0.5 1.028,-0.85 0.134,-0.193 0.238,-0.399 0.312,-0.622 0.808,0.148 1.829,0.368 2.821,0.583 l 0.524,0.109 c 0.565,0.114 1.123,0.226 1.661,0.321 0.092,0.62 0.312,1.212 0.657,1.768 -0.856,0.779 -1.611,1.607 -2.247,2.467 -0.795,1.078 -1.466,2.264 -1.996,3.532 -0.001,0 -0.002,0 -0.004,0 -0.916,0 -1.752,0.426 -2.295,1.168 -0.887,1.202 -0.952,3.177 0.493,4.273 0.222,0.166 0.474,0.301 0.744,0.397 0.315,0.117 0.638,0.176 0.961,0.176 0.903,0 1.784,-0.472 2.354,-1.258 0.818,-1.11 1.041,-2.781 -0.029,-3.878 0.456,-1.08 1.026,-2.084 1.699,-2.989 0.555,-0.751 1.219,-1.478 1.976,-2.163 1.685,1.08 3.932,0.926 5.523,-0.298 0.7,0.769 1.378,1.597 2.062,2.449 -0.723,1.43 -0.081,3.103 1.014,3.913 0.95,0.73 2.344,0.729 3.347,-0.035 0.246,-0.183 0.459,-0.394 0.636,-0.633 1.083,-1.512 0.437,-3.435 -0.815,-4.371 -0.66,-0.49 -1.551,-0.644 -2.346,-0.406 -0.777,-0.969 -1.554,-1.914 -2.397,-2.813 0.483,-1.123 0.465,-2.383 -0.049,-3.562 1.319,-0.633 2.801,-1.151 4.242,-1.617 0.211,0.289 0.459,0.545 0.747,0.766 z m -6.094,0.868 c 0.628,1.121 0.67,2.361 0.114,3.403 l -0.171,0.32 0.252,0.262 c 0.99,1.029 1.891,2.138 2.802,3.278 l 0.243,0.305 0.354,-0.162 c 0.574,-0.261 1.233,-0.192 1.703,0.156 l 0.077,0.056 c 0.815,0.646 1.244,1.931 0.531,2.927 -0.114,0.154 -0.257,0.295 -0.429,0.422 -0.663,0.505 -1.527,0.51 -2.144,0.036 -0.815,-0.604 -1.275,-1.876 -0.597,-2.879 l 0.207,-0.305 -0.23,-0.288 C 62.708,44.591 61.846,43.529 60.93,42.559 l -0.343,-0.363 -0.363,0.342 c -1.33,1.251 -3.354,1.507 -4.939,0.324 l -0.325,-0.261 -0.315,0.272 c -0.937,0.81 -1.752,1.68 -2.421,2.586 -0.79,1.063 -1.449,2.253 -1.957,3.538 l -0.139,0.35 0.298,0.23 c 0.892,0.688 0.73,1.932 0.125,2.754 -0.521,0.718 -1.36,1.032 -2.167,0.733 -0.181,-0.065 -0.345,-0.152 -0.485,-0.257 -0.957,-0.726 -0.895,-2.061 -0.289,-2.882 0.354,-0.483 0.896,-0.76 1.489,-0.76 0.087,0 0.175,0.006 0.266,0.018 l 0.388,0.051 0.144,-0.364 c 0.518,-1.314 1.193,-2.54 2.008,-3.643 0.673,-0.91 1.491,-1.785 2.431,-2.602 l 0.351,-0.305 -0.278,-0.372 c -0.463,-0.62 -0.719,-1.295 -0.761,-2.009 l -0.023,-0.4 -0.396,-0.064 c -0.641,-0.104 -1.315,-0.24 -2.001,-0.378 l -0.512,-0.106 c -1.203,-0.26 -2.448,-0.528 -3.33,-0.672 l -0.504,-0.082 -0.071,0.506 c -0.038,0.268 -0.124,0.496 -0.257,0.689 -0.15,0.209 -0.372,0.388 -0.665,0.535 -0.661,0.343 -1.378,0.308 -1.879,-0.073 -1.018,-0.78 -1.259,-2.382 -0.521,-3.419 0.122,-0.163 0.27,-0.31 0.442,-0.436 v 10e-4 c 0.45,-0.306 1.044,-0.219 1.649,0.229 l 0.021,0.014 c 0.421,0.328 0.789,0.797 1.014,1.294 l 0.116,0.258 0.281,0.033 c 0.74,0.087 1.673,0.289 2.661,0.502 0.429,0.092 0.872,0.188 1.313,0.278 0.788,0.175 1.564,0.323 2.244,0.43 l 0.432,0.067 0.125,-0.418 c 0.135,-0.453 0.333,-0.854 0.594,-1.196 0.521,-0.702 1.309,-1.24 2.158,-1.474 l 0.507,-0.14 -0.165,-0.499 c -0.242,-0.735 -0.505,-1.468 -0.774,-2.22 -0.299,-0.835 -0.606,-1.694 -0.903,-2.603 l -0.112,-0.341 -0.358,-0.003 c -0.52,-0.005 -1.019,-0.152 -1.411,-0.419 -0.674,-0.442 -1.051,-1.427 -0.361,-2.656 0.035,-0.071 0.077,-0.14 0.122,-0.201 0.52,-0.728 1.399,-1.162 2.354,-1.162 0.527,0 1.031,0.142 1.42,0.401 0.661,0.436 0.854,1.283 0.501,2.21 l 0.091,0.035 -0.002,0.004 -0.093,-0.035 c -0.093,0.25 -0.205,0.47 -0.334,0.652 l -0.083,0.118 C 56.669,29.543 56.319,29.812 55.895,30 l -0.415,0.184 0.143,0.431 c 0.268,0.808 0.545,1.586 0.82,2.355 0.313,0.879 0.624,1.747 0.908,2.634 l 0.102,0.314 0.329,0.031 c 0.649,0.06 1.242,0.286 1.763,0.671 l 0.033,0.019 c 0.18,0.137 0.348,0.307 0.517,0.48 l 0.263,0.271 0.333,-0.179 c 1.661,-0.894 3.577,-1.516 5.117,-2.016 l 0.747,-0.243 -0.047,-0.407 c -0.082,-0.695 0.07,-1.374 0.418,-1.861 0.442,-0.625 1.331,-0.808 2.226,-0.43 l 0.039,-0.092 0.003,10e-4 -0.037,0.091 c 0.212,0.088 0.399,0.188 0.57,0.303 l 0.087,0.061 c 1.284,0.964 1.357,2.695 0.616,3.712 -0.539,0.762 -1.621,0.91 -2.652,0.289 -0.078,-0.045 -0.151,-0.093 -0.211,-0.136 -0.28,-0.215 -0.514,-0.487 -0.696,-0.807 l -0.2,-0.353 -0.387,0.123 c -1.757,0.561 -3.604,1.193 -5.202,2.017 l -0.46,0.237 z"
       id="path4"
       inkscape:connector-curvature="0" /><path
       d="m 79.353,61.212 c -1.351,-1.017 -3.082,-0.903 -4.007,0.167 -0.367,0.408 -0.637,0.933 -0.775,1.503 -0.832,0.159 -1.627,0.33 -2.403,0.496 -0.602,0.13 -1.191,0.256 -1.778,0.373 -0.225,-0.91 -0.701,-1.748 -1.368,-2.396 -0.291,-0.287 -0.626,-0.537 -1.003,-0.746 0.169,-0.541 0.368,-1.124 0.585,-1.714 0.14,-0.401 0.281,-0.796 0.419,-1.179 0.322,-0.896 0.628,-1.747 0.833,-2.48 0.596,-0.223 1.168,-0.589 1.613,-1.043 0.678,-0.698 0.949,-1.517 0.773,-2.27 l 0.06,-0.031 -0.233,-0.441 C 72.062,51.439 72.056,51.428 72.05,51.417 l -0.208,-0.408 -0.044,0.023 c -0.092,-0.118 -0.192,-0.229 -0.303,-0.336 -0.625,-0.584 -1.467,-0.907 -2.37,-0.907 -0.953,0 -1.856,0.358 -2.477,0.982 -0.74,0.737 -0.949,1.822 -0.562,2.895 0.155,0.452 0.388,0.829 0.702,1.132 0.174,0.158 0.364,0.288 0.577,0.392 -0.277,0.856 -0.669,1.937 -1.022,2.914 l -0.145,0.424 c -0.173,0.507 -0.343,1.006 -0.497,1.49 -0.626,0.009 -1.243,0.149 -1.84,0.418 -0.661,-0.954 -1.382,-1.811 -2.146,-2.551 -0.957,-0.928 -2.046,-1.75 -3.24,-2.446 0.121,-0.91 -0.186,-1.797 -0.854,-2.43 -1.167,-1.127 -3.183,-1.21 -4.304,-0.075 -0.193,0.198 -0.36,0.431 -0.491,0.685 -0.737,1.39 -0.115,2.717 0.637,3.428 1.076,1.039 2.771,1.277 3.847,0.483 1.011,0.597 1.932,1.293 2.739,2.073 0.676,0.652 1.309,1.407 1.885,2.248 -1.505,1.766 -1.315,3.977 -0.435,5.514 -0.861,0.599 -1.768,1.159 -2.697,1.722 -1.181,-0.81 -2.991,-0.562 -4.014,0.488 -0.731,0.728 -1.141,2.039 -0.407,3.325 0.156,0.276 0.338,0.514 0.542,0.709 1.186,1.116 3.245,1 4.442,-0.229 0.59,-0.607 0.843,-1.435 0.71,-2.27 0.963,-0.583 2.045,-1.262 3.094,-2.019 1.036,0.623 2.315,0.781 3.551,0.434 0.455,1.4 0.771,2.935 1.039,4.42 -0.313,0.169 -0.596,0.378 -0.845,0.625 -0.089,0.089 -0.174,0.187 -0.248,0.283 -1.259,1.571 -0.858,3.184 0.038,4.009 0.64,0.614 1.552,0.967 2.501,0.967 1.009,0 1.953,-0.395 2.624,-1.081 l 0.119,-0.1 0.011,-0.033 c 0.083,-0.091 0.162,-0.188 0.237,-0.288 l 0.025,0.015 0.247,-0.429 c 0.041,-0.071 0.079,-0.142 0.115,-0.213 l 0.125,-0.225 -0.019,-0.011 c 0.471,-1.135 0.276,-2.295 -0.54,-3.052 -0.525,-0.491 -1.254,-0.81 -2.043,-0.902 -0.28,-1.525 -0.625,-3.4 -1.24,-5.147 0.127,-0.102 0.252,-0.211 0.368,-0.329 l 0.075,-0.08 c 0.475,-0.508 0.815,-1.097 1.016,-1.757 0.826,-0.154 1.643,-0.329 2.469,-0.506 0.651,-0.14 1.309,-0.281 1.981,-0.414 0.191,0.452 0.462,0.849 0.803,1.179 l 0.092,0.09 c 0.122,0.109 0.253,0.212 0.39,0.306 l -0.009,0.019 0.315,0.172 c 0.032,0.018 0.064,0.035 0.097,0.052 l 0.017,0.009 c 0.052,0.028 0.103,0.055 0.154,0.079 l 0.294,0.152 0.011,-0.02 c 0.369,0.141 0.742,0.212 1.112,0.212 0.757,0 1.437,-0.302 1.912,-0.849 1.265,-1.442 1.113,-3.887 -0.323,-5.229 -0.092,-0.089 -0.193,-0.172 -0.287,-0.237 z m -0.142,4.808 c -0.284,0.326 -0.695,0.506 -1.159,0.506 -0.355,0 -0.724,-0.102 -1.095,-0.303 l -0.047,0.086 -0.011,-0.005 0.046,-0.088 c -0.196,-0.102 -0.377,-0.221 -0.539,-0.357 l -0.071,-0.065 c -0.357,-0.329 -0.61,-0.742 -0.751,-1.229 l -0.127,-0.437 -0.446,0.085 c -0.83,0.157 -1.632,0.329 -2.426,0.5 -0.919,0.196 -1.825,0.392 -2.748,0.557 l -0.326,0.059 -0.073,0.322 c -0.146,0.636 -0.447,1.195 -0.86,1.627 l -0.118,0.103 -0.009,0.023 c -0.143,0.134 -0.307,0.258 -0.474,0.381 l -0.308,0.225 0.135,0.355 c 0.665,1.761 1.028,3.739 1.32,5.329 l 0.145,0.782 0.409,0.007 c 0.7,0.011 1.353,0.252 1.791,0.662 0.58,0.537 0.632,1.406 0.135,2.268 l 0.08,0.047 -0.003,0.007 -0.086,-0.048 c -0.122,0.218 -0.268,0.415 -0.434,0.585 l -0.039,0.04 c -1.002,0.991 -2.785,0.999 -3.732,0.09 -0.593,-0.546 -0.806,-1.578 0.062,-2.662 0.054,-0.068 0.109,-0.135 0.168,-0.193 0.248,-0.246 0.547,-0.442 0.888,-0.582 l 0.373,-0.153 -0.07,-0.396 c -0.319,-1.809 -0.699,-3.717 -1.308,-5.423 l -0.174,-0.487 -0.48,0.19 c -1.195,0.472 -2.454,0.336 -3.401,-0.349 l -0.296,-0.214 -0.294,0.217 c -1.216,0.898 -2.506,1.697 -3.607,2.359 l -0.334,0.201 0.113,0.373 c 0.185,0.608 0.042,1.232 -0.407,1.694 -0.426,0.437 -1.048,0.697 -1.665,0.697 -0.36,0 -0.886,-0.091 -1.346,-0.523 -0.131,-0.125 -0.252,-0.285 -0.36,-0.478 -0.505,-0.886 -0.186,-1.696 0.248,-2.128 0.766,-0.786 2.133,-0.925 2.934,-0.212 l 0.275,0.245 0.316,-0.19 c 1.191,-0.719 2.352,-1.429 3.445,-2.218 l 0.405,-0.292 -0.291,-0.405 c -0.912,-1.268 -1.213,-3.34 0.34,-4.948 l 0.287,-0.287 -0.222,-0.339 c -0.674,-1.035 -1.43,-1.959 -2.245,-2.747 -0.95,-0.917 -2.042,-1.725 -3.245,-2.4 L 57.17,56.3 56.902,56.565 c -0.707,0.699 -1.938,0.541 -2.748,-0.241 -0.502,-0.474 -0.919,-1.344 -0.442,-2.241 0.087,-0.168 0.198,-0.324 0.319,-0.448 0.444,-0.45 0.965,-0.545 1.323,-0.545 0.57,0 1.157,0.238 1.575,0.643 0.495,0.469 0.683,1.154 0.501,1.834 l -0.1,0.373 0.341,0.189 c 1.243,0.691 2.369,1.523 3.349,2.473 0.81,0.783 1.568,1.709 2.257,2.752 l 0.256,0.388 0.405,-0.227 c 0.676,-0.379 1.387,-0.539 2.091,-0.49 l 0.4,0.031 0.116,-0.384 c 0.178,-0.587 0.387,-1.199 0.6,-1.823 l 0.142,-0.416 c 0.419,-1.157 0.895,-2.469 1.175,-3.398 l 0.147,-0.486 -0.489,-0.14 c -0.265,-0.074 -0.479,-0.19 -0.648,-0.343 -0.188,-0.182 -0.336,-0.426 -0.441,-0.733 -0.255,-0.705 -0.134,-1.398 0.325,-1.855 0.847,-0.85 2.557,-0.895 3.452,-0.056 0.152,0.146 0.278,0.311 0.374,0.49 l -0.001,10e-4 c 0.344,0.675 -0.186,1.331 -0.438,1.595 -0.384,0.388 -0.91,0.702 -1.443,0.86 l -0.271,0.081 -0.07,0.274 c -0.189,0.743 -0.523,1.671 -0.877,2.653 -0.139,0.387 -0.281,0.784 -0.42,1.181 -0.275,0.75 -0.525,1.499 -0.723,2.168 l -0.124,0.42 0.399,0.178 c 0.43,0.192 0.801,0.441 1.106,0.745 0.638,0.619 1.056,1.449 1.179,2.337 l 0.071,0.521 0.517,-0.098 c 0.756,-0.143 1.514,-0.306 2.291,-0.472 0.871,-0.188 1.766,-0.38 2.71,-0.555 l 0.354,-0.064 0.051,-0.355 c 0.073,-0.514 0.286,-0.987 0.604,-1.342 0.608,-0.701 1.699,-0.747 2.67,-0.02 0.068,0.048 0.133,0.102 0.191,0.157 1.139,1.065 1.073,2.906 0.253,3.843 z"
       id="path6"
       inkscape:connector-curvature="0" /><path
       d="m 5.276,44.617 c 0.639,0 1.266,-0.232 1.811,-0.668 0.375,-0.295 0.655,-0.639 0.837,-1.032 0.093,-0.217 0.154,-0.441 0.184,-0.675 0.874,-0.016 1.983,0 3.088,0.016 h 0.274 c 0.596,-0.001 1.183,-0.002 1.746,-0.017 0.213,0.583 0.55,1.126 0.994,1.601 -0.684,0.934 -1.259,1.895 -1.712,2.864 -0.564,1.209 -0.986,2.506 -1.256,3.86 -0.899,0.18 -1.638,0.76 -2.017,1.6 -0.633,1.352 -0.306,3.301 1.335,4.095 0.248,0.114 0.519,0.194 0.804,0.239 0.152,0.023 0.3,0.035 0.444,0.035 1.109,0 2.103,-0.675 2.59,-1.757 0.579,-1.251 0.465,-2.933 -0.8,-3.795 0.232,-1.144 0.59,-2.241 1.067,-3.265 0.396,-0.848 0.903,-1.692 1.511,-2.513 1.88,0.733 4.03,0.142 5.355,-1.387 0.846,0.618 1.671,1.292 2.507,1.987 -0.428,1.543 0.533,3.055 1.769,3.633 1.083,0.529 2.439,0.254 3.278,-0.7 0.207,-0.233 0.372,-0.481 0.494,-0.743 0.76,-1.701 -0.255,-3.456 -1.669,-4.128 -0.733,-0.339 -1.612,-0.305 -2.354,0.088 -0.925,-0.772 -1.905,-1.57 -2.931,-2.296 0.25,-1.197 -0.019,-2.428 -0.756,-3.481 1.171,-0.886 2.521,-1.688 3.838,-2.428 0.263,0.243 0.554,0.443 0.87,0.597 0.114,0.055 0.232,0.101 0.343,0.138 1.605,0.576 3.201,-0.021 3.783,-1.342 0.721,-1.568 0.161,-3.882 -1.822,-4.828 l -0.109,-0.049 c -0.119,-0.052 -0.241,-0.097 -0.366,-0.137 l 0.004,-0.024 -0.368,-0.073 c -0.038,-0.008 -0.076,-0.016 -0.115,-0.023 l -0.488,-0.095 -0.006,0.03 c -1.229,-0.079 -2.275,0.51 -2.713,1.503 -0.293,0.657 -0.357,1.449 -0.187,2.226 -1.355,0.764 -3.013,1.701 -4.463,2.854 -0.143,-0.09 -0.296,-0.177 -0.463,-0.254 -0.656,-0.306 -1.351,-0.449 -2.063,-0.42 -0.413,-0.728 -0.842,-1.439 -1.277,-2.159 -0.346,-0.573 -0.695,-1.152 -1.042,-1.749 0.35,-0.315 0.628,-0.684 0.832,-1.101 l 0.075,-0.157 c 0.062,-0.148 0.116,-0.303 0.161,-0.463 l 0.023,0.003 0.08,-0.486 c 0.01,-0.061 0.018,-0.122 0.025,-0.182 l 0.047,-0.316 -0.023,-0.003 c 0.037,-1.223 -0.556,-2.237 -1.59,-2.659 -0.393,-0.159 -0.822,-0.24 -1.274,-0.24 -1.529,0 -2.961,0.906 -3.566,2.261 -0.052,0.12 -0.101,0.246 -0.124,0.344 -0.619,1.915 0.328,3.279 1.461,3.734 0.509,0.214 1.085,0.299 1.677,0.241 0.419,0.73 0.838,1.422 1.246,2.098 0.32,0.53 0.634,1.05 0.938,1.57 -0.786,0.509 -1.421,1.231 -1.815,2.073 -0.178,0.369 -0.306,0.768 -0.38,1.192 -0.579,0.018 -1.18,0.019 -1.81,0.007 -0.451,0 -0.896,-0.006 -1.327,-0.011 C 8.942,39.839 8.068,39.83 7.336,39.872 6.94,39.393 6.424,38.981 5.884,38.716 L 5.823,38.686 C 4.792,38.207 3.715,38.319 3.037,39.018 2.819,39.252 2.642,39.515 2.51,39.802 c -0.737,1.646 0.037,3.777 1.656,4.562 0.346,0.167 0.72,0.253 1.11,0.253 z M 3.42,40.214 C 3.505,40.028 3.622,39.855 3.76,39.707 4.134,39.322 4.84,39.34 5.334,39.555 l 0.079,0.044 c 0.491,0.234 0.958,0.628 1.283,1.082 l 0.165,0.23 0.283,-0.024 c 0.755,-0.062 1.7,-0.049 2.723,-0.038 0.435,0.005 0.883,0.011 1.328,0.011 0.777,0.015 1.567,0.009 2.285,-0.023 l 0.437,-0.02 0.039,-0.436 c 0.042,-0.468 0.156,-0.9 0.345,-1.29 0.37,-0.792 1.034,-1.476 1.821,-1.874 L 16.591,36.979 16.33,36.522 C 15.946,35.85 15.544,35.184 15.131,34.5 14.673,33.741 14.201,32.96 13.73,32.129 l -0.177,-0.312 -0.353,0.07 c -0.508,0.097 -1.03,0.053 -1.469,-0.132 -0.748,-0.3 -1.314,-1.19 -0.88,-2.536 0.02,-0.078 0.05,-0.151 0.078,-0.216 0.513,-1.148 1.701,-1.663 2.65,-1.663 0.323,0 0.625,0.056 0.897,0.167 0.723,0.295 1.089,1.108 0.931,2.071 l 0.095,0.016 -0.001,0.008 -0.097,-0.015 c -0.034,0.231 -0.091,0.448 -0.17,0.648 l -0.032,0.069 c -0.193,0.442 -0.501,0.815 -0.916,1.11 l -0.369,0.263 0.225,0.393 c 0.42,0.736 0.846,1.441 1.267,2.138 0.484,0.801 0.961,1.592 1.417,2.408 l 0.162,0.289 0.329,-0.036 c 0.627,-0.065 1.265,0.029 1.894,0.319 0.208,0.097 0.405,0.231 0.604,0.369 l 0.312,0.215 0.292,-0.243 c 1.46,-1.215 3.225,-2.21 4.643,-3.009 l 0.659,-0.372 -0.128,-0.39 c -0.218,-0.666 -0.204,-1.36 0.041,-1.909 0.311,-0.705 1.115,-1.06 2.097,-0.863 l 0.019,-0.095 0.006,0.001 -0.018,0.093 c 0.239,0.046 0.454,0.112 0.655,0.201 l 0.097,0.074 h 0.058 c 1.372,0.719 1.757,2.35 1.244,3.466 -0.381,0.864 -1.389,1.222 -2.543,0.808 -0.08,-0.027 -0.159,-0.056 -0.233,-0.092 -0.313,-0.153 -0.596,-0.372 -0.84,-0.65 l -0.267,-0.305 -0.353,0.197 c -1.608,0.896 -3.291,1.881 -4.7,3.011 l -0.404,0.324 0.338,0.392 c 0.837,0.972 1.125,2.18 0.788,3.312 l -0.103,0.348 0.299,0.206 c 1.198,0.825 2.346,1.772 3.418,2.67 l 0.297,0.249 0.315,-0.225 c 0.52,-0.371 1.114,-0.473 1.719,-0.185 0.951,0.45 1.659,1.646 1.148,2.789 -0.078,0.167 -0.189,0.333 -0.333,0.496 -0.463,0.527 -0.982,0.637 -1.336,0.637 -0.259,0 -0.519,-0.06 -0.76,-0.178 -0.92,-0.43 -1.624,-1.585 -1.155,-2.7 l 0.143,-0.341 -0.284,-0.237 c -1.069,-0.893 -2.12,-1.758 -3.221,-2.534 l -0.408,-0.287 -0.288,0.407 c -0.749,1.055 -1.926,1.686 -3.151,1.686 -0.532,0 -1.059,-0.119 -1.637,-0.393 l -0.366,-0.18 -0.25,0.322 c -0.759,0.979 -1.386,1.994 -1.864,3.018 -0.56,1.204 -0.967,2.5 -1.21,3.853 l -0.066,0.37 0.337,0.166 c 1.01,0.498 1.1,1.749 0.669,2.679 -0.283,0.63 -0.97,1.304 -1.97,1.148 -0.194,-0.03 -0.375,-0.084 -0.531,-0.155 -1.083,-0.524 -1.288,-1.845 -0.854,-2.772 0.281,-0.624 0.867,-1.024 1.567,-1.071 l 0.39,-0.026 0.068,-0.385 c 0.249,-1.398 0.667,-2.734 1.245,-3.972 0.48,-1.026 1.108,-2.046 1.866,-3.033 l 0.283,-0.368 -0.346,-0.309 C 14.632,42.9 14.247,42.289 14.065,41.599 l -0.102,-0.387 -0.4,0.015 c -0.667,0.025 -1.374,0.026 -2.092,0.028 H 11.205 C 9.886,41.235 8.54,41.216 7.607,41.254 l -0.51,0.02 0.031,0.51 C 7.144,42.055 7.105,42.295 7.014,42.508 6.904,42.745 6.722,42.966 6.468,43.165 6.099,43.46 5.689,43.616 5.28,43.616 5.043,43.616 4.816,43.565 4.606,43.463 3.579,42.967 2.857,41.471 3.42,40.214 Z"
       id="path8"
       inkscape:connector-curvature="0" /><path
       d="m 53.932,74.7 c -0.985,-0.273 -2.062,0.089 -2.793,0.941 -0.315,0.357 -0.528,0.746 -0.636,1.169 -0.052,0.229 -0.071,0.459 -0.057,0.695 -0.859,0.178 -1.961,0.367 -3.038,0.553 l -0.294,0.055 c -0.576,0.107 -1.144,0.213 -1.686,0.328 -0.316,-0.54 -0.742,-1.007 -1.271,-1.394 0.503,-1.045 0.892,-2.095 1.157,-3.127 0.333,-1.288 0.511,-2.64 0.529,-4.022 0.849,-0.34 1.47,-1.046 1.691,-1.945 0.374,-1.445 -0.305,-3.301 -2.064,-3.781 -0.235,-0.058 -0.481,-0.087 -0.731,-0.087 l -0.102,0.001 c -1.472,0.041 -2.4,1.16 -2.666,2.245 -0.344,1.337 0.073,2.97 1.479,3.585 -0.02,1.174 -0.173,2.318 -0.454,3.407 -0.236,0.912 -0.58,1.834 -1.024,2.746 -1.989,-0.377 -3.98,0.591 -5.011,2.344 -0.921,-0.441 -1.84,-0.943 -2.829,-1.496 0.135,-1.596 -1.086,-2.905 -2.405,-3.248 -1.176,-0.325 -2.436,0.188 -3.091,1.285 -0.16,0.262 -0.278,0.538 -0.351,0.824 -0.439,1.809 0.88,3.352 2.391,3.75 0.784,0.206 1.642,0.011 2.301,-0.515 1.053,0.591 2.164,1.196 3.304,1.722 -0.027,1.222 0.461,2.384 1.379,3.285 -1.019,1.116 -2.225,2.164 -3.329,3.088 -0.303,-0.19 -0.63,-0.336 -0.986,-0.434 -0.117,-0.026 -0.235,-0.052 -0.343,-0.067 -1.774,-0.279 -3.136,0.581 -3.472,2.014 -0.414,1.643 0.517,3.765 2.557,4.378 l 0.138,0.04 c 0.165,0.042 0.338,0.074 0.517,0.095 l 0.499,0.028 c 0.033,0 0.065,0 0.098,-0.001 l 0.362,0.002 v -0.028 c 1.216,-0.149 2.131,-0.893 2.387,-1.976 0.167,-0.699 0.084,-1.489 -0.225,-2.221 1.189,-0.998 2.649,-2.224 3.865,-3.622 0.157,0.061 0.324,0.118 0.506,0.165 0.698,0.181 1.406,0.192 2.102,0.036 0.535,0.634 1.083,1.25 1.636,1.873 0.449,0.505 0.902,1.016 1.357,1.544 -0.318,0.415 -0.537,0.877 -0.654,1.38 l -0.013,0.062 c -0.031,0.144 -0.053,0.293 -0.066,0.446 l -0.024,10e-4 0.01,0.449 c 0,0.004 0,0.009 0,0.013 v 0.028 c 0,0.025 10e-4,0.051 0.002,0.075 l 0.013,0.424 0.028,-10e-4 c 0.187,1.214 0.956,2.104 2.049,2.322 0.209,0.044 0.427,0.065 0.648,0.065 1.731,0 3.339,-1.258 3.739,-2.925 0.031,-0.13 0.051,-0.26 0.06,-0.37 0.258,-1.995 -0.922,-3.164 -2.117,-3.403 -0.54,-0.119 -1.129,-0.094 -1.693,0.069 -0.546,-0.641 -1.083,-1.245 -1.608,-1.835 -0.412,-0.462 -0.816,-0.916 -1.21,-1.372 0.68,-0.646 1.172,-1.474 1.405,-2.372 0.108,-0.395 0.16,-0.811 0.156,-1.24 0.549,-0.119 1.154,-0.235 1.777,-0.34 0.415,-0.076 0.824,-0.146 1.222,-0.215 0.944,-0.162 1.842,-0.317 2.583,-0.501 0.458,0.382 1.01,0.683 1.561,0.848 l 0.059,0.057 h 0.146 c 0.253,0.06 0.504,0.091 0.748,0.091 0.801,0 1.462,-0.332 1.867,-0.941 0.162,-0.254 0.288,-0.542 0.378,-0.87 0.421,-1.751 -0.731,-3.703 -2.463,-4.179 z m 1.495,3.93 c -0.06,0.219 -0.143,0.409 -0.247,0.574 -0.215,0.322 -0.562,0.486 -1.029,0.486 -0.145,0 -0.294,-0.017 -0.447,-0.048 l -0.19,-0.049 c -0.501,-0.145 -1.007,-0.438 -1.397,-0.811 l -0.205,-0.195 -0.272,0.074 c -0.741,0.202 -1.719,0.37 -2.754,0.549 -0.401,0.069 -0.814,0.14 -1.225,0.215 -0.795,0.134 -1.57,0.287 -2.239,0.442 l -0.426,0.1 0.042,0.436 c 0.044,0.468 0.01,0.913 -0.104,1.331 -0.223,0.857 -0.737,1.631 -1.448,2.178 l -0.416,0.319 0.339,0.4 c 0.5,0.591 1.018,1.173 1.549,1.769 0.589,0.662 1.195,1.343 1.81,2.074 l 0.231,0.273 0.333,-0.13 c 0.484,-0.188 0.989,-0.241 1.467,-0.139 0.79,0.158 1.508,0.93 1.329,2.319 -0.006,0.081 -0.018,0.16 -0.038,0.24 -0.37,1.54 -2.019,2.362 -3.216,2.115 -0.763,-0.153 -1.27,-0.884 -1.291,-1.862 l -0.097,0.002 v -0.008 l 0.097,-0.003 c -0.007,-0.241 0.011,-0.471 0.055,-0.683 l 0.025,-0.112 c 0.114,-0.447 0.345,-0.853 0.686,-1.205 l 0.314,-0.326 -0.292,-0.345 c -0.552,-0.651 -1.104,-1.272 -1.649,-1.886 -0.618,-0.695 -1.227,-1.381 -1.82,-2.093 L 42.69,84.38 42.374,84.476 c -0.625,0.186 -1.222,0.205 -1.921,0.031 -0.219,-0.058 -0.44,-0.151 -0.664,-0.251 l -0.346,-0.153 -0.242,0.291 c -1.205,1.451 -2.748,2.745 -3.987,3.785 l -0.603,0.507 0.196,0.358 c 0.335,0.615 0.448,1.301 0.309,1.884 -0.18,0.762 -0.898,1.234 -1.904,1.234 v 0 l -0.001,0.096 h -0.005 l 10e-4,-0.098 c -0.226,-10e-4 -0.439,-0.024 -0.666,-0.073 l -0.077,-0.021 c -1.553,-0.413 -2.269,-1.988 -1.961,-3.209 0.186,-0.791 0.914,-1.303 1.856,-1.303 0.155,0 0.317,0.014 0.495,0.042 0.09,0.013 0.182,0.032 0.248,0.047 0.339,0.095 0.657,0.258 0.945,0.486 l 0.318,0.253 0.312,-0.26 c 1.33,-1.106 2.851,-2.404 4.068,-3.818 l 0.338,-0.392 -0.404,-0.324 c -1.001,-0.805 -1.504,-1.939 -1.38,-3.114 l 0.039,-0.362 -0.333,-0.147 c -1.327,-0.59 -2.63,-1.312 -3.852,-2 l -0.338,-0.19 -0.269,0.28 c -0.344,0.358 -0.782,0.556 -1.234,0.556 -0.129,0 -0.258,-0.017 -0.416,-0.056 -1.023,-0.271 -1.926,-1.357 -1.641,-2.534 0.047,-0.185 0.126,-0.368 0.237,-0.55 0.427,-0.715 1.196,-1.055 1.975,-0.836 0.982,0.255 1.885,1.263 1.631,2.446 l -0.078,0.36 0.322,0.181 c 1.28,0.717 2.437,1.354 3.631,1.901 l 0.453,0.207 0.209,-0.452 c 0.645,-1.394 1.997,-2.294 3.445,-2.294 0.314,0 0.634,0.041 1.028,0.146 l 0.391,0.107 0.187,-0.36 c 0.564,-1.092 0.995,-2.204 1.278,-3.305 0.331,-1.279 0.496,-2.629 0.488,-4.012 L 44.45,69.183 44.086,69.081 c -1.085,-0.303 -1.4,-1.515 -1.145,-2.508 0.164,-0.67 0.713,-1.461 1.797,-1.49 0.169,0 0.335,0.02 0.479,0.055 1.16,0.316 1.602,1.577 1.346,2.568 -0.165,0.669 -0.668,1.171 -1.345,1.344 l -0.379,0.097 0.003,0.392 c 0.011,1.423 -0.157,2.812 -0.499,4.132 -0.281,1.093 -0.71,2.21 -1.277,3.32 l -0.211,0.414 0.397,0.241 c 0.663,0.401 1.152,0.933 1.457,1.577 l 0.171,0.364 0.392,-0.09 c 0.64,-0.146 1.324,-0.273 2.021,-0.402 l 0.288,-0.054 c 1.284,-0.221 2.612,-0.449 3.539,-0.661 l 0.497,-0.113 -0.123,-0.495 c -0.066,-0.265 -0.072,-0.508 -0.022,-0.729 0.065,-0.255 0.204,-0.504 0.419,-0.747 0.483,-0.564 1.152,-0.809 1.771,-0.634 1.218,0.335 2.056,1.756 1.765,2.968 z"
       id="path10"
       inkscape:connector-curvature="0" /><path
       d="m 32.106,21.246 c 0.206,0.054 0.419,0.081 0.634,0.081 0.603,0 1.183,-0.209 1.667,-0.597 1.088,0.61 2.167,1.199 3.302,1.723 -0.027,1.223 0.462,2.384 1.379,3.285 -0.984,1.079 -2.165,2.116 -3.328,3.09 -0.306,-0.193 -0.633,-0.338 -0.982,-0.434 -0.108,-0.026 -0.225,-0.048 -0.351,-0.071 -1.752,-0.282 -3.143,0.606 -3.467,2.016 -0.405,1.597 0.463,3.649 2.437,4.336 l 0.262,0.087 c 0.171,0.041 0.339,0.071 0.507,0.09 l 0.501,0.026 c 0.021,0 0.042,0 0.062,0 l 0.401,-10e-4 v -0.026 c 1.216,-0.15 2.129,-0.892 2.384,-1.974 0.167,-0.699 0.084,-1.49 -0.224,-2.222 1.191,-0.998 2.649,-2.222 3.865,-3.621 0.15,0.06 0.309,0.116 0.47,0.158 l 0.042,0.006 c 0.693,0.179 1.397,0.192 2.093,0.036 0.537,0.637 1.087,1.255 1.643,1.88 0.447,0.503 0.899,1.011 1.352,1.538 -0.309,0.403 -0.524,0.851 -0.643,1.336 l -0.016,0.063 c -0.035,0.157 -0.061,0.319 -0.075,0.487 l -0.025,0.001 0.01,0.452 c 0,0.005 0,0.011 0,0.016 v 0.024 c 0,0.023 10e-4,0.046 0.002,0.069 l 0.012,0.429 h 0.029 c 0.187,1.211 0.956,2.101 2.049,2.325 0.209,0.043 0.427,0.065 0.647,0.065 1.729,0 3.336,-1.259 3.74,-2.93 0.029,-0.121 0.051,-0.247 0.065,-0.371 0.25,-1.994 -0.93,-3.161 -2.122,-3.4 -0.54,-0.119 -1.13,-0.093 -1.694,0.069 -0.542,-0.636 -1.076,-1.236 -1.598,-1.822 -0.416,-0.467 -0.823,-0.925 -1.221,-1.385 0.679,-0.644 1.17,-1.471 1.403,-2.373 0.107,-0.395 0.16,-0.81 0.156,-1.237 0.544,-0.119 1.15,-0.234 1.779,-0.339 0.437,-0.081 0.868,-0.155 1.287,-0.228 0.918,-0.159 1.791,-0.311 2.516,-0.49 0.451,0.379 0.986,0.672 1.552,0.845 l 0.153,0.047 c 0.909,0.233 1.788,0.065 2.351,-0.454 l 0.062,0.039 0.268,-0.424 c 0.017,-0.026 0.032,-0.052 0.047,-0.078 l 0.222,-0.336 -0.039,-0.025 c 0.059,-0.137 0.107,-0.28 0.146,-0.429 0.419,-1.748 -0.732,-3.702 -2.464,-4.182 -0.986,-0.273 -2.063,0.09 -2.795,0.943 -0.313,0.358 -0.525,0.746 -0.634,1.169 -0.051,0.23 -0.069,0.461 -0.056,0.697 -0.858,0.176 -1.961,0.364 -3.04,0.548 l -0.282,0.053 c -0.58,0.109 -1.153,0.217 -1.7,0.333 -0.315,-0.538 -0.74,-1.004 -1.27,-1.392 0.505,-1.049 0.894,-2.101 1.157,-3.13 0.334,-1.292 0.512,-2.645 0.529,-4.026 0.851,-0.341 1.471,-1.046 1.692,-1.943 C 49.33,8.224 48.652,6.369 46.897,5.889 46.663,5.829 46.42,5.799 46.176,5.799 l -0.12,0.002 c -1.57,0.049 -2.417,1.243 -2.664,2.244 -0.345,1.339 0.073,2.974 1.479,3.589 -0.019,1.165 -0.171,2.309 -0.455,3.405 -0.234,0.908 -0.577,1.83 -1.021,2.745 -1.988,-0.377 -3.983,0.59 -5.012,2.345 -0.956,-0.459 -1.913,-0.983 -2.828,-1.497 0.136,-1.597 -1.086,-2.907 -2.405,-3.248 -1.179,-0.33 -2.44,0.187 -3.093,1.285 -0.161,0.264 -0.278,0.539 -0.351,0.824 -0.435,1.817 0.887,3.356 2.4,3.753 z M 30.681,17.74 c 0.047,-0.182 0.125,-0.366 0.237,-0.549 0.426,-0.716 1.19,-1.053 1.978,-0.836 0.982,0.254 1.885,1.261 1.63,2.445 l -0.078,0.36 0.321,0.181 c 1.159,0.653 2.394,1.337 3.63,1.904 l 0.454,0.208 0.21,-0.453 c 0.643,-1.395 1.994,-2.296 3.442,-2.296 0.314,0 0.634,0.041 1.024,0.147 l 0.395,0.114 0.188,-0.365 c 0.565,-1.097 0.995,-2.209 1.278,-3.306 0.332,-1.289 0.497,-2.638 0.488,-4.009 l -0.002,-0.377 -0.363,-0.102 c -1.087,-0.304 -1.402,-1.519 -1.146,-2.512 0.165,-0.667 0.715,-1.458 1.814,-1.491 0.16,0 0.319,0.02 0.465,0.057 1.16,0.317 1.602,1.576 1.345,2.567 -0.164,0.667 -0.667,1.168 -1.346,1.342 l -0.378,0.097 0.003,0.391 c 0.012,1.421 -0.156,2.812 -0.499,4.134 -0.279,1.089 -0.709,2.208 -1.277,3.324 l -0.21,0.413 0.396,0.241 c 0.664,0.404 1.153,0.935 1.456,1.577 l 0.171,0.363 0.392,-0.088 c 0.646,-0.146 1.337,-0.276 2.039,-0.408 l 0.273,-0.052 c 1.285,-0.219 2.613,-0.445 3.539,-0.655 l 0.498,-0.113 -0.123,-0.495 c -0.065,-0.266 -0.072,-0.511 -0.022,-0.734 0.064,-0.254 0.204,-0.503 0.417,-0.746 0.483,-0.564 1.16,-0.805 1.771,-0.635 1.236,0.342 2.058,1.737 1.762,2.973 -0.054,0.202 -0.137,0.395 -0.248,0.572 l -0.002,-0.002 c -0.28,0.424 -0.837,0.575 -1.485,0.437 l -0.116,-0.031 c -0.524,-0.14 -1.056,-0.442 -1.46,-0.829 l -0.204,-0.196 -0.273,0.075 c -0.726,0.198 -1.679,0.363 -2.689,0.538 -0.422,0.073 -0.857,0.148 -1.289,0.229 -0.803,0.134 -1.578,0.287 -2.241,0.442 l -0.425,0.1 0.042,0.435 c 0.044,0.465 0.01,0.909 -0.104,1.328 -0.219,0.849 -0.746,1.642 -1.446,2.176 l -0.417,0.319 0.34,0.401 c 0.503,0.594 1.025,1.181 1.56,1.782 0.586,0.659 1.188,1.335 1.8,2.062 l 0.23,0.273 0.333,-0.13 c 0.484,-0.188 0.993,-0.243 1.469,-0.139 0.788,0.158 1.506,0.93 1.334,2.301 -0.01,0.088 -0.025,0.176 -0.045,0.258 -0.373,1.542 -2.033,2.359 -3.213,2.119 -0.776,-0.159 -1.271,-0.874 -1.293,-1.866 l -0.099,0.002 0.099,-0.01 c -0.007,-0.241 0.011,-0.47 0.054,-0.68 l 0.028,-0.118 c 0.114,-0.447 0.343,-0.851 0.684,-1.203 l 0.314,-0.326 -0.292,-0.345 c -0.551,-0.65 -1.101,-1.269 -1.645,-1.88 -0.619,-0.696 -1.23,-1.384 -1.826,-2.099 l -0.211,-0.254 -0.316,0.095 c -0.626,0.187 -1.225,0.202 -1.916,0.034 -0.221,-0.059 -0.443,-0.154 -0.666,-0.252 L 40.87,25.82 40.628,26.111 c -1.211,1.459 -2.76,2.757 -4.005,3.799 l -0.586,0.492 0.196,0.359 c 0.336,0.615 0.449,1.301 0.309,1.884 -0.179,0.761 -0.897,1.233 -1.905,1.233 v 0 l -10e-4,0.101 -0.016,-0.101 c -0.147,0 -0.295,-0.011 -0.445,-0.034 l -0.283,-0.058 c -1.555,-0.416 -2.27,-1.991 -1.96,-3.213 0.211,-0.919 1.204,-1.445 2.329,-1.265 0.096,0.017 0.193,0.035 0.268,0.053 0.335,0.093 0.655,0.257 0.949,0.488 l 0.317,0.25 0.311,-0.258 c 1.421,-1.181 2.897,-2.46 4.067,-3.82 l 0.338,-0.392 -0.404,-0.324 c -1.001,-0.803 -1.504,-1.938 -1.38,-3.113 l 0.038,-0.361 -0.331,-0.148 c -1.323,-0.591 -2.576,-1.285 -3.851,-2.002 l -0.337,-0.19 -0.269,0.28 c -0.344,0.358 -0.783,0.556 -1.237,0.556 -0.13,0 -0.259,-0.017 -0.417,-0.059 C 31.299,20 30.396,18.918 30.681,17.74 Z"
       id="path12"
       inkscape:connector-curvature="0" /><path
       d="m 95.899,42.604 c -0.11,-0.065 -0.227,-0.124 -0.338,-0.168 -1.558,-0.693 -3.191,-0.22 -3.87,1.051 -0.266,0.481 -0.411,1.052 -0.42,1.638 -0.77,0.337 -1.501,0.677 -2.216,1.009 -0.563,0.262 -1.115,0.519 -1.668,0.765 -0.421,-0.839 -1.071,-1.549 -1.864,-2.03 -0.348,-0.217 -0.73,-0.387 -1.143,-0.507 0.043,-0.555 0.106,-1.167 0.187,-1.799 0.048,-0.424 0.099,-0.842 0.148,-1.248 0.116,-0.945 0.228,-1.843 0.265,-2.602 0.485,-0.321 0.928,-0.757 1.273,-1.281 l 0.07,-0.094 c 0.502,-0.828 0.584,-1.685 0.247,-2.38 l 0.056,-0.048 -0.33,-0.38 c -0.021,-0.023 -0.04,-0.045 -0.061,-0.068 l -0.258,-0.31 -0.037,0.031 c -0.114,-0.094 -0.236,-0.182 -0.37,-0.263 -0.504,-0.294 -1.09,-0.45 -1.695,-0.45 -1.221,0 -2.405,0.629 -3.017,1.604 -0.557,0.884 -0.52,1.987 0.094,2.941 0.248,0.405 0.56,0.722 0.938,0.95 0.205,0.116 0.421,0.2 0.651,0.255 -0.08,0.894 -0.223,2.035 -0.352,3.067 l -0.03,0.282 c -0.064,0.589 -0.127,1.169 -0.174,1.728 -0.602,0.148 -1.178,0.424 -1.697,0.814 -0.857,-0.785 -1.751,-1.462 -2.662,-2.017 -1.141,-0.69 -2.384,-1.249 -3.701,-1.664 -0.081,-0.913 -0.576,-1.711 -1.37,-2.183 -0.501,-0.303 -1.105,-0.47 -1.703,-0.47 -1.059,0 -1.972,0.49 -2.511,1.353 -0.142,0.233 -0.251,0.496 -0.325,0.776 -0.386,1.423 0.417,2.635 1.378,3.201 0.548,0.333 1.191,0.516 1.813,0.516 0.832,0 1.546,-0.315 2.046,-0.896 1.118,0.357 2.169,0.833 3.129,1.415 0.801,0.486 1.585,1.082 2.336,1.774 -1.076,2.054 -0.401,4.169 0.799,5.475 -0.715,0.783 -1.493,1.548 -2.248,2.275 -1.342,-0.528 -3.034,0.096 -3.809,1.366 -0.549,0.87 -0.655,2.239 0.341,3.33 0.203,0.229 0.432,0.421 0.686,0.574 1.412,0.833 3.388,0.257 4.281,-1.209 0.44,-0.723 0.505,-1.585 0.191,-2.37 0.892,-0.858 1.761,-1.716 2.584,-2.646 1.139,0.368 2.425,0.238 3.543,-0.371 0.751,1.261 1.401,2.688 1.994,4.078 -0.269,0.233 -0.5,0.502 -0.69,0.803 -0.064,0.105 -0.128,0.223 -0.172,0.324 -0.881,1.817 -0.133,3.3 0.927,3.903 0.524,0.314 1.148,0.481 1.803,0.481 1.315,0 2.509,-0.661 3.176,-1.742 l 0.101,-0.14 v -0.028 c 0.054,-0.098 0.104,-0.2 0.151,-0.308 l 0.028,0.009 0.147,-0.475 c 0.019,-0.062 0.036,-0.123 0.053,-0.184 l 0.09,-0.296 -0.024,-0.008 c 0.208,-1.21 -0.237,-2.298 -1.201,-2.854 -0.619,-0.362 -1.404,-0.516 -2.191,-0.429 -0.612,-1.428 -1.363,-3.179 -2.352,-4.746 0.109,-0.139 0.208,-0.277 0.303,-0.433 0.374,-0.618 0.59,-1.291 0.641,-2.004 0.769,-0.332 1.522,-0.682 2.284,-1.035 0.607,-0.282 1.221,-0.566 1.851,-0.846 0.293,0.405 0.652,0.737 1.074,0.991 l 0.079,0.047 c 0.006,0.003 0.012,0.006 0.018,0.009 l 0.085,0.045 c 0.108,0.056 0.222,0.108 0.34,0.155 l -0.007,0.026 0.473,0.132 c 0.034,0.01 0.067,0.019 0.102,0.027 l 0.383,0.106 0.008,-0.029 c 0.159,0.022 0.316,0.034 0.471,0.034 1.021,0 1.896,-0.495 2.343,-1.322 0.911,-1.683 0.223,-4.033 -1.475,-5.027 z m 0.592,4.554 c -0.366,0.679 -1.212,0.961 -2.156,0.698 l -0.026,0.094 -0.004,-0.001 0.025,-0.095 c -0.225,-0.062 -0.433,-0.143 -0.619,-0.239 l -0.1,-0.108 h -0.085 c -0.367,-0.236 -0.668,-0.561 -0.895,-0.966 l -0.221,-0.396 -0.415,0.181 c -0.777,0.338 -1.524,0.685 -2.263,1.028 -0.85,0.394 -1.688,0.782 -2.547,1.147 L 86.88,48.63 v 0.331 c -10e-4,0.653 -0.172,1.266 -0.457,1.75 l -0.064,0.095 c -0.119,0.193 -0.275,0.381 -0.434,0.565 l -0.245,0.286 0.208,0.315 c 1.044,1.574 1.838,3.428 2.477,4.918 l 0.307,0.715 0.4,-0.084 c 0.681,-0.142 1.377,-0.053 1.893,0.25 0.674,0.39 0.922,1.245 0.631,2.181 l 0.093,0.028 -10e-4,0.003 -0.097,-0.029 c -0.078,0.255 -0.177,0.481 -0.294,0.673 l -0.028,0.046 c -0.505,0.789 -1.369,1.26 -2.321,1.26 -0.474,0 -0.919,-0.117 -1.298,-0.345 -0.7,-0.398 -1.136,-1.358 -0.523,-2.622 0.034,-0.076 0.074,-0.152 0.111,-0.213 0.188,-0.297 0.437,-0.554 0.738,-0.764 l 0.333,-0.231 -0.157,-0.373 C 87.436,55.69 86.64,53.91 85.673,52.388 l -0.277,-0.437 -0.427,0.293 c -1.049,0.718 -2.312,0.868 -3.381,0.421 l -0.334,-0.141 -0.237,0.274 c -0.942,1.09 -1.961,2.083 -3.01,3.09 l -0.28,0.269 0.192,0.339 c 0.314,0.553 0.312,1.193 -0.021,1.744 -0.588,0.962 -1.964,1.39 -2.898,0.84 -0.16,-0.097 -0.315,-0.228 -0.455,-0.385 -0.689,-0.756 -0.56,-1.618 -0.234,-2.135 0.574,-0.94 1.873,-1.374 2.816,-0.855 l 0.322,0.177 0.266,-0.255 c 0.958,-0.92 1.97,-1.903 2.868,-2.926 l 0.33,-0.374 -0.374,-0.33 c -1.17,-1.036 -1.922,-2.992 -0.774,-4.882 l 0.242,-0.349 -0.306,-0.295 C 78.81,45.611 77.869,44.877 76.902,44.29 75.774,43.605 74.53,43.06 73.206,42.669 l -0.36,-0.106 -0.202,0.317 c -0.395,0.617 -0.998,0.746 -1.436,0.746 -0.441,0 -0.901,-0.131 -1.3,-0.374 -0.593,-0.35 -1.191,-1.104 -0.926,-2.084 0.051,-0.192 0.123,-0.367 0.211,-0.512 0.349,-0.557 0.953,-0.876 1.659,-0.876 0.418,0 0.839,0.115 1.189,0.328 0.588,0.349 0.922,0.977 0.894,1.678 l -0.016,0.39 0.375,0.11 c 1.364,0.399 2.647,0.959 3.813,1.665 0.964,0.587 1.91,1.323 2.813,2.188 l 0.335,0.321 0.346,-0.311 c 0.575,-0.519 1.224,-0.834 1.928,-0.94 l 0.396,-0.06 0.028,-0.4 c 0.046,-0.661 0.122,-1.36 0.199,-2.071 l 0.029,-0.274 c 0.153,-1.225 0.326,-2.613 0.394,-3.576 L 83.61,38.32 83.101,38.294 c -0.273,-0.014 -0.51,-0.079 -0.709,-0.191 -0.227,-0.137 -0.425,-0.342 -0.594,-0.618 -0.404,-0.628 -0.439,-1.33 -0.095,-1.878 0.433,-0.689 1.285,-1.135 2.17,-1.135 0.428,0 0.84,0.108 1.182,0.309 0.185,0.112 0.341,0.243 0.478,0.399 l -0.003,0.002 c 0.481,0.58 0.124,1.328 -0.059,1.632 l -0.012,0.02 c -0.286,0.462 -0.729,0.885 -1.217,1.16 l -0.246,0.14 -0.008,0.283 c -0.02,0.765 -0.14,1.744 -0.268,2.78 -0.05,0.409 -0.102,0.831 -0.149,1.251 -0.102,0.809 -0.179,1.595 -0.222,2.272 l -0.027,0.438 0.43,0.085 c 0.459,0.09 0.875,0.251 1.244,0.482 0.757,0.458 1.349,1.174 1.665,2.014 l 0.186,0.492 0.481,-0.209 c 0.712,-0.309 1.42,-0.638 2.146,-0.976 0.802,-0.373 1.626,-0.755 2.502,-1.133 l 0.329,-0.142 -0.029,-0.357 c -0.041,-0.517 0.061,-1.028 0.29,-1.444 0.439,-0.82 1.479,-1.107 2.601,-0.608 0.079,0.032 0.15,0.068 0.222,0.11 1.35,0.782 1.695,2.593 1.102,3.686 z"
       id="path14"
       inkscape:connector-curvature="0" /><path
       d="m 61.729,19.71 c 0.478,-0.069 0.893,-0.229 1.24,-0.482 0.187,-0.141 0.351,-0.306 0.493,-0.494 0.766,0.418 1.73,0.987 2.675,1.544 l 0.142,0.081 c 0.55,0.315 1.093,0.626 1.62,0.91 -0.106,0.617 -0.084,1.248 0.068,1.882 -1.065,0.476 -2.042,1.026 -2.906,1.639 -1.088,0.764 -2.099,1.681 -3.009,2.728 -0.861,-0.289 -1.81,-0.141 -2.542,0.386 -1.223,0.863 -1.906,2.717 -0.876,4.216 0.162,0.229 0.36,0.435 0.583,0.608 0.989,0.791 2.431,0.772 3.486,0.013 1.127,-0.798 1.863,-2.315 1.19,-3.693 0.776,-0.885 1.632,-1.659 2.548,-2.302 0.762,-0.539 1.621,-1.021 2.557,-1.434 0.9,1.108 2.22,1.738 3.663,1.738 0.566,0 1.137,-0.098 1.674,-0.285 0.437,0.976 0.826,1.99 1.189,2.967 -1.136,1.129 -1.052,2.92 -0.266,4.036 0.504,0.742 1.338,1.184 2.229,1.184 0.32,0 0.645,-0.056 0.956,-0.164 0.29,-0.096 0.558,-0.229 0.806,-0.401 1.505,-1.099 1.492,-3.128 0.663,-4.298 L 79.848,29.98 c -0.479,-0.68 -1.258,-1.095 -2.099,-1.122 -0.434,-1.162 -0.874,-2.301 -1.395,-3.424 0.811,-0.916 1.188,-2.119 1.071,-3.399 1.418,-0.181 2.911,-0.204 3.953,-0.204 0.197,0 0.393,0.001 0.583,0.002 0.108,0.344 0.264,0.665 0.466,0.961 0.068,0.096 0.146,0.191 0.226,0.282 0.674,0.784 1.527,1.216 2.405,1.216 0.563,0 1.1,-0.177 1.542,-0.507 1.373,-0.984 2.035,-3.192 0.896,-4.973 l -0.094,-0.143 c -0.094,-0.13 -0.195,-0.256 -0.306,-0.375 l 0.018,-0.02 -0.375,-0.325 c -0.04,-0.035 -0.08,-0.069 -0.121,-0.102 l -0.262,-0.222 -0.017,0.02 c -1.008,-0.665 -2.238,-0.674 -3.098,-0.037 -0.58,0.424 -1.029,1.08 -1.268,1.84 l -0.879,-0.003 c -1.341,0 -2.896,0.033 -4.411,0.265 -0.08,-0.15 -0.171,-0.302 -0.278,-0.453 -0.416,-0.589 -0.946,-1.054 -1.58,-1.386 0.002,-0.832 -0.018,-1.656 -0.037,-2.491 -0.016,-0.675 -0.032,-1.356 -0.037,-2.053 0.512,-0.111 0.982,-0.325 1.415,-0.645 0.128,-0.099 0.249,-0.205 0.363,-0.317 l 0.019,0.014 0.311,-0.382 c 0.05,-0.062 0.098,-0.125 0.144,-0.188 l 0.165,-0.212 -0.016,-0.012 c 0.64,-1.043 0.63,-2.216 -0.06,-3.094 C 76.431,7.65 75.29,7.128 74.115,7.128 c -0.819,0 -1.588,0.245 -2.216,0.704 -0.107,0.076 -0.21,0.166 -0.293,0.248 -1.485,1.355 -1.341,3.01 -0.583,3.966 0.331,0.436 0.797,0.797 1.334,1.042 0.002,0.831 0.021,1.629 0.041,2.41 0.015,0.63 0.03,1.248 0.035,1.861 -0.936,0.053 -1.853,0.369 -2.604,0.899 -0.339,0.233 -0.646,0.516 -0.92,0.844 -0.505,-0.269 -1.041,-0.573 -1.576,-0.894 -0.383,-0.22 -0.758,-0.44 -1.122,-0.654 -0.806,-0.475 -1.572,-0.926 -2.242,-1.258 -0.106,-0.606 -0.348,-1.217 -0.682,-1.717 L 63.2,14.37 63.122,14.354 c -0.654,-0.821 -1.494,-1.199 -2.457,-0.935 -0.305,0.094 -0.589,0.234 -0.851,0.421 -1.454,1.063 -1.84,3.298 -0.827,4.782 0.58,0.849 1.63,1.269 2.742,1.088 z m -1.33,-5.059 c 0.171,-0.122 0.358,-0.213 0.551,-0.272 0.703,-0.203 1.292,0.452 1.478,0.716 l 0.074,0.105 c 0.275,0.435 0.461,0.968 0.515,1.48 l 0.029,0.282 0.256,0.12 c 0.683,0.318 1.52,0.811 2.405,1.332 0.367,0.216 0.745,0.438 1.122,0.655 0.679,0.408 1.37,0.793 1.997,1.115 l 0.391,0.2 0.249,-0.36 c 0.265,-0.382 0.578,-0.7 0.938,-0.947 0.665,-0.47 1.487,-0.728 2.315,-0.728 l 0.718,0.031 0.001,-0.525 C 73.439,17.071 73.419,16.281 73.4,15.472 73.379,14.595 73.357,13.694 73.36,12.75 l 0.001,-0.357 -0.338,-0.117 c -0.494,-0.17 -0.921,-0.467 -1.208,-0.844 -0.5,-0.632 -0.55,-1.686 0.479,-2.625 0.058,-0.056 0.119,-0.112 0.19,-0.162 1.13,-0.826 3.019,-0.561 3.822,0.465 0.482,0.613 0.395,1.499 -0.222,2.256 l 0.079,0.065 -0.007,0.008 -0.082,-0.063 c -0.147,0.191 -0.322,0.364 -0.528,0.52 -0.386,0.287 -0.838,0.458 -1.344,0.508 l -0.451,0.044 v 0.453 c 0,0.854 0.02,1.684 0.038,2.504 0.022,0.93 0.044,1.847 0.035,2.776 l -0.003,0.331 0.303,0.132 c 0.599,0.262 1.092,0.663 1.484,1.218 0.128,0.18 0.241,0.404 0.344,0.619 l 0.164,0.342 0.374,-0.066 c 1.552,-0.273 3.199,-0.31 4.605,-0.31 l 1.672,0.007 0.082,-0.401 c 0.143,-0.687 0.5,-1.283 0.985,-1.637 0.612,-0.455 1.514,-0.348 2.25,0.291 l 0.062,-0.073 0.005,0.003 -0.061,0.073 c 0.171,0.146 0.324,0.306 0.447,0.469 l 0.056,0.08 c 0.917,1.317 0.444,2.984 -0.581,3.719 -0.74,0.55 -1.83,0.341 -2.601,-0.555 -0.061,-0.07 -0.119,-0.141 -0.164,-0.203 -0.195,-0.286 -0.331,-0.616 -0.405,-0.982 l -0.08,-0.396 -0.404,-0.004 c -0.315,-0.003 -0.643,-0.006 -0.978,-0.006 -1.195,0 -2.973,0.029 -4.597,0.285 l -0.512,0.081 0.099,0.509 c 0.245,1.261 -0.104,2.452 -0.96,3.27 l -0.262,0.25 0.156,0.327 c 0.621,1.294 1.127,2.627 1.634,3.993 l 0.136,0.366 0.388,-0.042 c 0.644,-0.071 1.217,0.186 1.587,0.714 0.606,0.867 0.596,2.278 -0.38,2.99 -0.159,0.111 -0.34,0.2 -0.545,0.268 -0.785,0.275 -1.601,0.008 -2.043,-0.641 -0.585,-0.831 -0.623,-2.185 0.337,-2.922 L 76.71,30.055 76.582,29.709 C 76.124,28.472 75.628,27.16 75.044,25.913 l -0.212,-0.452 -0.452,0.21 c -0.535,0.249 -1.13,0.38 -1.719,0.38 -1.239,0 -2.318,-0.557 -3.012,-1.522 l -0.296,-0.45 -0.372,0.154 c -1.146,0.475 -2.196,1.046 -3.116,1.697 -1.076,0.756 -2.073,1.679 -2.965,2.741 l -0.243,0.289 0.212,0.312 c 0.632,0.934 0.088,2.064 -0.747,2.656 -0.712,0.511 -1.621,0.547 -2.286,0.016 -0.15,-0.118 -0.28,-0.252 -0.382,-0.396 -0.681,-0.99 -0.202,-2.238 0.635,-2.829 0.55,-0.394 1.259,-0.458 1.891,-0.152 l 0.203,-0.418 0.395,0.295 c 0.916,-1.099 1.945,-2.052 3.06,-2.835 0.916,-0.649 1.968,-1.225 3.125,-1.71 L 69.191,23.72 69.045,23.28 C 68.801,22.548 68.77,21.826 68.953,21.135 l 0.103,-0.387 -0.354,-0.185 c -0.621,-0.323 -1.268,-0.694 -1.924,-1.07 l -0.139,-0.08 C 65.515,18.75 64.352,18.064 63.517,17.629 l -0.452,-0.236 -0.227,0.458 c -0.119,0.242 -0.272,0.431 -0.462,0.574 -0.205,0.149 -0.478,0.251 -0.797,0.298 -0.754,0.12 -1.404,-0.137 -1.764,-0.663 -0.642,-0.939 -0.525,-2.597 0.584,-3.409 z"
       id="path16"
       inkscape:connector-curvature="0" /><path
       d="m 30.894,68.148 c 1.232,-1.466 1.03,-3.905 -0.439,-5.228 -0.095,-0.082 -0.196,-0.161 -0.288,-0.222 -1.374,-0.986 -3.101,-0.843 -4.003,0.246 -0.358,0.415 -0.617,0.945 -0.744,1.521 -0.821,0.176 -1.605,0.36 -2.372,0.542 -0.604,0.143 -1.197,0.283 -1.787,0.413 -0.244,-0.906 -0.738,-1.732 -1.42,-2.365 -0.297,-0.282 -0.638,-0.525 -1.017,-0.725 0.157,-0.546 0.344,-1.134 0.548,-1.728 0.136,-0.421 0.275,-0.835 0.41,-1.237 0.296,-0.883 0.578,-1.723 0.765,-2.447 0.542,-0.216 1.06,-0.551 1.468,-0.949 l 0.128,-0.129 c 0.794,-0.861 0.995,-1.888 0.534,-2.752 -0.145,-0.263 -0.337,-0.51 -0.585,-0.747 -1.312,-1.172 -3.657,-1.061 -4.848,0.182 -0.721,0.754 -0.907,1.843 -0.5,2.906 0.167,0.45 0.408,0.821 0.727,1.114 0.178,0.155 0.372,0.281 0.585,0.381 -0.264,0.876 -0.644,1.997 -0.96,2.933 L 17,60.156 c -0.178,0.555 -0.353,1.102 -0.509,1.63 -0.625,0.022 -1.238,0.176 -1.829,0.457 -0.677,-0.936 -1.417,-1.777 -2.202,-2.508 -0.976,-0.905 -2.081,-1.704 -3.289,-2.378 0.105,-0.909 -0.22,-1.79 -0.904,-2.414 -1.188,-1.1 -3.202,-1.14 -4.307,0.017 -0.183,0.198 -0.342,0.433 -0.472,0.694 -0.584,1.155 -0.305,2.497 0.708,3.414 1.091,1.014 2.795,1.219 3.854,0.403 1.013,0.568 1.947,1.246 2.781,2.016 0.69,0.642 1.339,1.383 1.932,2.209 -1.466,1.797 -1.23,4.004 -0.319,5.522 -0.854,0.621 -1.772,1.215 -2.662,1.776 -1.199,-0.785 -3,-0.502 -4.001,0.571 -0.717,0.745 -1.1,2.065 -0.342,3.329 0.149,0.26 0.334,0.494 0.559,0.704 1.207,1.086 3.26,0.928 4.437,-0.324 0.577,-0.62 0.812,-1.451 0.663,-2.282 1.048,-0.664 2.073,-1.331 3.063,-2.074 1.048,0.596 2.328,0.726 3.546,0.35 0.481,1.381 0.832,2.912 1.134,4.396 -0.316,0.178 -0.598,0.396 -0.846,0.656 -0.079,0.086 -0.159,0.182 -0.229,0.275 -1.225,1.599 -0.791,3.203 0.123,4.012 0.631,0.58 1.521,0.912 2.44,0.912 1.039,0 2.003,-0.415 2.73,-1.185 0.109,-0.119 0.21,-0.245 0.305,-0.377 l 0.026,0.014 0.239,-0.434 c 0.026,-0.048 0.052,-0.096 0.076,-0.145 l 0.162,-0.298 -0.024,-0.013 c 0.445,-1.142 0.228,-2.298 -0.604,-3.04 -0.53,-0.477 -1.259,-0.779 -2.06,-0.856 -0.312,-1.521 -0.696,-3.388 -1.349,-5.124 0.125,-0.105 0.256,-0.227 0.386,-0.364 0.492,-0.53 0.838,-1.146 1.032,-1.834 0.81,-0.169 1.61,-0.357 2.419,-0.548 0.66,-0.155 1.327,-0.312 2.01,-0.462 0.206,0.458 0.493,0.858 0.859,1.192 l 0.065,0.062 c 0.124,0.105 0.256,0.203 0.394,0.293 l -0.01,0.02 0.3,0.155 c 0.043,0.023 0.087,0.046 0.131,0.068 l 0.448,0.225 0.012,-0.025 c 0.354,0.128 0.71,0.192 1.063,0.192 0.773,0.003 1.487,-0.322 1.955,-0.887 z m -3.019,-0.391 -0.045,0.088 -0.01,-0.005 0.044,-0.088 c -0.199,-0.1 -0.391,-0.223 -0.561,-0.358 l -0.059,-0.053 c -0.361,-0.32 -0.623,-0.729 -0.777,-1.215 l -0.137,-0.431 -0.443,0.093 c -0.838,0.176 -1.649,0.367 -2.45,0.556 -0.902,0.213 -1.792,0.423 -2.699,0.605 l -0.325,0.065 -0.066,0.324 c -0.131,0.638 -0.422,1.203 -0.881,1.701 -0.157,0.165 -0.345,0.317 -0.539,0.465 l -0.303,0.23 0.142,0.354 c 0.705,1.753 1.11,3.728 1.435,5.313 l 0.18,0.765 h 0.407 c 0.692,0 1.342,0.227 1.782,0.622 0.592,0.528 0.662,1.397 0.182,2.268 l 0.085,0.047 -0.001,0.003 -0.087,-0.048 c -0.12,0.221 -0.264,0.423 -0.433,0.607 -0.521,0.551 -1.227,0.854 -1.988,0.854 -0.672,0 -1.315,-0.236 -1.771,-0.654 -0.604,-0.535 -0.838,-1.565 0.006,-2.667 0.054,-0.073 0.113,-0.143 0.163,-0.196 0.239,-0.25 0.535,-0.453 0.88,-0.604 l 0.37,-0.16 -0.079,-0.396 c -0.362,-1.81 -0.785,-3.716 -1.424,-5.394 l -0.184,-0.484 -0.478,0.201 c -1.179,0.495 -2.438,0.392 -3.396,-0.267 l -0.3,-0.206 -0.289,0.222 c -1.137,0.876 -2.337,1.646 -3.57,2.425 l -0.326,0.21 0.121,0.37 c 0.197,0.603 0.066,1.229 -0.372,1.702 -0.43,0.458 -1.066,0.731 -1.7,0.731 -0.347,0 -0.856,-0.086 -1.303,-0.488 C 6.531,74.728 6.407,74.571 6.302,74.389 5.778,73.515 6.083,72.696 6.508,72.253 7.255,71.452 8.618,71.285 9.434,71.981 l 0.28,0.239 0.312,-0.196 c 1.128,-0.71 2.32,-1.472 3.401,-2.288 l 0.397,-0.301 -0.299,-0.398 c -0.937,-1.249 -1.28,-3.315 0.225,-4.943 l 0.3,-0.293 -0.236,-0.347 c -0.694,-1.017 -1.469,-1.926 -2.303,-2.7 -0.98,-0.905 -2.089,-1.69 -3.294,-2.331 L 7.885,58.246 7.623,58.516 C 6.931,59.229 5.695,59.095 4.872,58.332 4.361,57.868 3.925,57.007 4.383,56.102 c 0.089,-0.18 0.194,-0.336 0.306,-0.457 0.452,-0.473 0.989,-0.572 1.36,-0.572 0.554,0 1.13,0.227 1.542,0.607 0.508,0.463 0.709,1.145 0.54,1.823 l -0.095,0.379 0.345,0.184 c 1.257,0.668 2.401,1.477 3.398,2.402 0.833,0.774 1.612,1.686 2.316,2.707 l 0.264,0.383 0.401,-0.236 c 0.667,-0.391 1.372,-0.568 2.079,-0.533 l 0.401,0.022 0.108,-0.387 c 0.176,-0.63 0.388,-1.29 0.604,-1.962 l 0.093,-0.291 c 0.375,-1.106 0.841,-2.484 1.104,-3.423 l 0.138,-0.492 -0.495,-0.127 c -0.264,-0.067 -0.481,-0.178 -0.655,-0.329 -0.191,-0.176 -0.344,-0.417 -0.458,-0.722 -0.268,-0.699 -0.161,-1.395 0.286,-1.862 0.826,-0.862 2.556,-0.933 3.447,-0.14 0.162,0.156 0.292,0.322 0.385,0.49 0.312,0.585 -0.036,1.168 -0.288,1.479 l -0.122,0.138 c -0.373,0.392 -0.889,0.713 -1.416,0.883 l -0.27,0.086 -0.064,0.276 c -0.171,0.734 -0.479,1.651 -0.805,2.622 -0.136,0.404 -0.276,0.822 -0.41,1.238 -0.26,0.754 -0.494,1.509 -0.678,2.184 l -0.115,0.423 0.404,0.17 c 0.43,0.181 0.806,0.422 1.122,0.721 0.641,0.596 1.088,1.437 1.227,2.309 l 0.083,0.52 0.514,-0.108 c 0.759,-0.159 1.519,-0.339 2.298,-0.523 0.86,-0.203 1.745,-0.412 2.678,-0.605 l 0.351,-0.072 0.044,-0.355 c 0.064,-0.519 0.267,-0.998 0.577,-1.357 0.593,-0.714 1.679,-0.781 2.672,-0.068 0.072,0.048 0.139,0.1 0.195,0.148 1.16,1.043 1.133,2.885 0.333,3.836 -0.284,0.343 -0.706,0.531 -1.187,0.531 -0.345,-0.004 -0.703,-0.099 -1.065,-0.285 z"
       id="path18"
       inkscape:connector-curvature="0" /></g></svg>