<svg height="203.49652" viewBox="0 0 197.72796 203.49652" width="197.72797" xmlns="http://www.w3.org/2000/svg"><path d="m185.93 62.885c-.307.073-.486.306-.604.572-2.332.282-4.527 1.051-6.522 2.145-.12-.275-.31-.522-.644-.671-12.984-5.8-27.507-7.613-42.363-7.073-1.52-12.8-5.701-24.749-15.709-34.082 1.525-3.954 1.696-8.444.013-12.606-2.698-6.67-14.684-15.919-20.973-8.312-6.757 1.283-11.47 7.535-11.923 14.267-8.909 5.165-15.357 13.253-20.038 22.676-16.264-5.292-32.615-5.597-43.82 6.752-.086.094-.063.194-.112.292-1.638-.349-3.386-.287-5.21.381-.128.047-.186.157-.28.237-4.664 1.134-9.432 3.765-12.274 7.582-.106-.012-.213-.014-.319-.026-.632-.075-.824.793-.435 1.158-1.42 2.353-2.159 5.08-1.696 8.186 1.049 7.034 8.39 14.473 15.867 15.096.023.062-.012.113.025.176 2.465 4.198 5.145 8.209 8.011 12.048-10.499 8.078-18.069 18.451-17.818 31.589-.107.134-.196.289-.185.498.064 1.198.24 2.32.465 3.409.009.067.01.132.02.2.005.034.036.039.044.07 4.042 18.297 30.305 21.259 51.963 20.092 2.824 12.603 5.449 25.998 16.7 33.375-.342 1.176-.6 2.378-.658 3.622-.435 9.424 7.445 19.986 17.622 18.878 7.639-.831 13.712-8.241 15.424-15.836.955-.171 1.69-.623 2.207-1.291.267-.058.532-.196.772-.462 6.782-7.531 11.32-15.792 14.428-24.516.311.004.593-.109.832-.275 8.435 4.748 20.15 4.031 29.086 1.65 5.674-1.512 19.343-5.745 18.291-13.465.295-.238.516-.582.571-1.041 1.51-12.584-2.726-24.292-9.921-34.998 6.64-4.905 12.568-10.454 17.35-16.83 22.903 2.233 20.475-37.94 1.813-33.467zm-50.709 40.65c.179-5.364.546-10.958.852-16.632 9.128 7.488 18.365 15.94 25.441 25.249-8.384 5.459-17.675 9.67-27.2 13.283.464-7.249.663-14.583.907-21.9zm-2.088-23.917c-7.082-5.476-14.058-10.412-20.092-14.756 6.583-1.194 13.202-2.143 19.814-2.647.451 5.725.461 11.563.278 17.403zm-.178 4.753c-.292 6.478-.719 12.92-.925 19.164-.254 7.675-.45 15.428-.968 23.106-7.615 2.774-15.325 5.226-22.798 7.657-4.511 1.468-10.98 3.396-18.45 5.226-10.797-6.195-21.116-12.983-30.79-20.625-.487-8.084-.553-15.579-.472-21.464.081-5.871.451-12.431 1.259-19.212 9.616-3.401 19.231-5.881 27.342-7.783 7.083-1.661 14.294-3.337 21.565-4.768 3.904 2.841 7.497 5.595 10.659 8.066 4.186 3.273 8.825 6.821 13.578 10.633zm-41.668-71.999c3.876.32 7.838.787 11.693.523.713-.049.981-1.19.18-1.333-3.57-.64-7.294-.667-10.952-.752.824-1.242 1.849-2.37 2.999-3.389.008-.001.012.006.021.005 4.568-.742 8.932-.444 13.487.209.999.143 1.466-1.284.43-1.56-3.74-.995-7.621-1.04-11.437-.55.541-.356 1.087-.707 1.657-1.02.276.176.61.259 1.002.037 7.928-4.479 16.784 2.702 18.066 10.664 1.232 7.649-4.047 14.983-11.581 16.519-5.386 1.098-10.563-1.16-13.751-5.198 3.49.346 7.039.853 10.539.775.6-.014.793-.996.148-1.096-3.737-.575-7.61-.497-11.382-.643-.015 0-.019.012-.033.013-.955-1.44-1.688-3.054-2.088-4.817-.063-.276-.056-.532-.101-.803 4.058.112 8.079.465 12.133.764.691.051.862-1.113.166-1.224-4.097-.648-8.289-.735-12.44-.664-.189-2.37.297-4.526 1.244-6.46zm-3.93 8.183c.052.326.045.654.119.979 2.32 10.109 12.956 15.746 22.641 12.228 4.071-1.478 7.17-4.467 9.084-8.079 8.196 9.494 11.824 20.615 13.246 32.345-8.177.488-16.422 1.627-24.55 3.219-10.065-6.93-23.781-15.383-37.832-20.454 4.193-8.305 9.795-15.457 17.292-20.238zm-18.493 22.764c12.272 4.275 24.423 11.565 34.85 18.803-12.653 2.71-24.926 6.323-36.041 9.884-2.328.746-4.795 1.578-7.345 2.496 1.51-10.61 4.122-21.558 8.536-31.183zm-59.224 27.841c2.246-.024 4.44.238 6.616.906.519.159.728-.634.222-.807-2.473-.844-4.983-1.117-7.576-.976-1.287-1.701-2.145-3.654-2.526-5.668 3.768.275 7.541.632 11.32.605.972-.007.911-1.355 0-1.469-3.828-.48-7.697-.566-11.55-.744-.038-.952.03-1.906.268-2.849.329-1.304.886-2.428 1.573-3.444 3.005.364 6.016.597 9.057.476.977-.039.986-1.518 0-1.524-2.664-.019-5.318-.137-7.969-.324 1.58-1.741 3.631-3.073 5.768-4.271 1.394.014 2.788.048 4.184.021.813-.015.815-1.249 0-1.264-.639-.012-1.276.013-1.914.01.376-.196.754-.397 1.126-.59.026.001.035.023.062.022 15.507-.382 17.231 24.632 2.635 26.724-4.129.594-8.402-1.54-11.296-4.834zm11.618 8.261c.439-.053.879-.115 1.313-.223 7.981-1.988 12.244-11.14 11.372-18.796-.567-4.978-3.871-10.592-8.485-12.804 11.679-9.59 26.064-9.671 40.497-5.23-4.677 10.348-7.358 22.082-8.835 33.325-9.27 3.525-19.32 8.197-27.831 14.243-2.773-3.373-5.453-6.873-8.031-10.515zm35.091 37.36c-8.949-7.305-17.274-15.443-24.958-24.462 7.473-5.353 16.311-9.583 25.304-12.961-.558 5.083-.909 10.035-1.067 14.642-.261 7.599.025 15.207.721 22.781zm-45.11 9.005c.55-13.388 7.566-23.663 17.659-31.595 8.118 10.36 17.588 19.468 27.963 27.56.9 7.695 2.246 15.336 3.929 22.883-22.288 2.12-44.129-.906-49.551-18.848zm48.12-2.064c8.202 6.187 16.933 11.749 25.928 16.871-7.225 1.63-15.154 3.078-23.082 3.907-1.395-6.843-2.293-13.949-2.846-20.778zm34.728 76.902c-3.216.127-6.08-1.211-8.372-3.301 3.306-.109 6.531.137 9.831.601.482.068.711-.639.208-.753-3.527-.796-7.183-.882-10.781-.623-1.438-1.512-2.574-3.34-3.381-5.274 4.047.049 8.091.127 12.138-.014.837-.029.839-1.272 0-1.301-4.187-.146-8.372-.058-12.56-.009-.013 0-.016.012-.028.012-.565-1.741-.883-3.528-.801-5.261 4.245.047 8.486.131 12.729-.051.837-.036.838-1.265 0-1.301-4.175-.179-8.351-.1-12.528-.053.33-2.173 1.166-4.027 2.305-5.635.084.046.158.107.272.096 4.19-.4 8.387-.441 12.59-.257.933.041.901-1.343 0-1.432-4.005-.394-7.946-.219-11.911.354 2.915-3.247 7.34-5.131 11.931-5.684.245-.03.421-.184.554-.37 15.901.189 14.793 29.583-2.196 30.256zm17.161-17.033c-.121.134-.182.278-.249.421.028-.812.02-1.617-.071-2.402-1.068-9.313-10.471-15.931-19.493-13.281-.509.149-.771.501-.873.893-5.094.968-9.467 4.695-11.642 9.477-8.153-6.506-13.105-18.232-16.084-31.246 8.567-.536 16.307-1.683 21.487-2.734 1.982-.402 4.007-.828 6.055-1.273 11.327 6.168 23.014 11.661 34.62 16.712-2.97 8.364-7.304 16.27-13.75 23.433zm14.604-26.02c-10.607-4.689-20.915-9.705-30.861-15.163 11.512-2.634 23.756-5.988 35.653-10.413-.805 8.764-2.179 17.375-4.792 25.576zm47.895-10.358c-.386.29-.643.782-.556 1.411 1.075 7.733-16.912 11.433-21.862 12.161-7.275 1.07-15.693.998-22.51-2.211 2.842-8.909 4.277-18.273 5.097-27.835 10.629-4.16 20.871-9.2 29.905-15.405 6.723 9.754 10.89 20.403 9.926 31.879zm-9.186-37.163c-7.647-10.355-17.91-19.726-28.252-27.944.293-6.716.394-13.492-.106-20.096 13.476-.71 26.876.573 39.792 5.512-3.305 2.758-5.592 6.681-5.937 11.35-.534 7.238 3.615 14.071 10.185 16.547-4.56 5.707-9.866 10.508-15.682 14.631zm17.54-17.064c-1.984-.565-3.66-1.653-5.052-3.023 1.975.057 3.949.126 5.928.121.864-.002.86-1.311 0-1.339-2.369-.077-4.734-.075-7.102-.069-1.033-1.338-1.762-2.896-2.254-4.529 3.331.469 6.659.95 10.005 1.31.588.063.732-.954.141-1.041-3.472-.512-6.955-.9-10.441-1.299-.376-1.711-.437-3.492-.143-5.244 3.707.119 7.404.212 11.115.181.589-.005.584-.886 0-.911-3.641-.155-7.272-.186-10.913-.195.541-2.264 1.581-4.228 2.956-5.908 3.756.091 7.497.229 11.249.558.588.052.733-.951.141-1.041-3.409-.516-6.864-.767-10.313-.674 2.309-2.314 5.296-3.993 8.532-4.988 8.363 1.36 12.763 7.528 12.051 16.04-.682 8.152-7.603 14.412-15.9 12.051z" transform="translate(-2.883266 .000199)"/></svg>