<?xml version="1.0" encoding="UTF-8" standalone="no"?>
<!-- Generator: Adobe Illustrator 18.0.0, SVG Export Plug-In . SVG Version: 6.00 Build 0)  -->

<svg
   xmlns:dc="http://purl.org/dc/elements/1.1/"
   xmlns:cc="http://creativecommons.org/ns#"
   xmlns:rdf="http://www.w3.org/1999/02/22-rdf-syntax-ns#"
   xmlns:svg="http://www.w3.org/2000/svg"
   xmlns="http://www.w3.org/2000/svg"
   xmlns:sodipodi="http://sodipodi.sourceforge.net/DTD/sodipodi-0.dtd"
   xmlns:inkscape="http://www.inkscape.org/namespaces/inkscape"
   version="1.1"
   id="Capa_1"
   x="0px"
   y="0px"
   viewBox="0 0 197.72796 203.49652"
   xml:space="preserve"
   sodipodi:docname="autogestio.svg"
   width="197.72797"
   height="203.49652"
   inkscape:version="0.92.2 5c3e80d, 2017-08-06"><metadata
     id="metadata41"><rdf:RDF><cc:Work
         rdf:about=""><dc:format>image/svg+xml</dc:format><dc:type
           rdf:resource="http://purl.org/dc/dcmitype/StillImage" /></cc:Work></rdf:RDF></metadata><defs
     id="defs39" /><sodipodi:namedview
     pagecolor="#ffffff"
     bordercolor="#666666"
     borderopacity="1"
     objecttolerance="10"
     gridtolerance="10"
     guidetolerance="10"
     inkscape:pageopacity="0"
     inkscape:pageshadow="2"
     inkscape:window-width="640"
     inkscape:window-height="480"
     id="namedview37"
     showgrid="false"
     inkscape:zoom="1.1597279"
     inkscape:cx="98.864735"
     inkscape:cy="101.74832"
     inkscape:window-x="0"
     inkscape:window-y="0"
     inkscape:window-maximized="0"
     inkscape:current-layer="Capa_1" /><g
     id="g4"
     transform="translate(-2.8832657,1.9856195e-4)"><path
       d="m 185.93,62.885 c -0.307,0.073 -0.486,0.306 -0.604,0.572 -2.332,0.282 -4.527,1.051 -6.522,2.145 -0.12,-0.275 -0.31,-0.522 -0.644,-0.671 -12.984,-5.8 -27.507,-7.613 -42.363,-7.073 -1.52,-12.8 -5.701,-24.749 -15.709,-34.082 1.525,-3.954 1.696,-8.444 0.013,-12.606 C 117.403,4.5 105.417,-4.749 99.128,2.858 92.371,4.141 87.658,10.393 87.205,17.125 78.296,22.29 71.848,30.378 67.167,39.801 50.903,34.509 34.552,34.204 23.347,46.553 c -0.086,0.094 -0.063,0.194 -0.112,0.292 -1.638,-0.349 -3.386,-0.287 -5.21,0.381 -0.128,0.047 -0.186,0.157 -0.28,0.237 C 13.081,48.597 8.313,51.228 5.471,55.045 5.365,55.033 5.258,55.031 5.152,55.019 4.52,54.944 4.328,55.812 4.717,56.177 c -1.42,2.353 -2.159,5.08 -1.696,8.186 1.049,7.034 8.39,14.473 15.867,15.096 0.023,0.062 -0.012,0.113 0.025,0.176 2.465,4.198 5.145,8.209 8.011,12.048 -10.499,8.078 -18.069,18.451 -17.818,31.589 -0.107,0.134 -0.196,0.289 -0.185,0.498 0.064,1.198 0.24,2.32 0.465,3.409 0.009,0.067 0.01,0.132 0.02,0.2 0.005,0.034 0.036,0.039 0.044,0.07 4.042,18.297 30.305,21.259 51.963,20.092 2.824,12.603 5.449,25.998 16.7,33.375 -0.342,1.176 -0.6,2.378 -0.658,3.622 -0.435,9.424 7.445,19.986 17.622,18.878 7.639,-0.831 13.712,-8.241 15.424,-15.836 0.955,-0.171 1.69,-0.623 2.207,-1.291 0.267,-0.058 0.532,-0.196 0.772,-0.462 6.782,-7.531 11.32,-15.792 14.428,-24.516 0.311,0.004 0.593,-0.109 0.832,-0.275 8.435,4.748 20.15,4.031 29.086,1.65 5.674,-1.512 19.343,-5.745 18.291,-13.465 0.295,-0.238 0.516,-0.582 0.571,-1.041 1.51,-12.584 -2.726,-24.292 -9.921,-34.998 6.64,-4.905 12.568,-10.454 17.35,-16.83 22.903,2.233 20.475,-37.94 1.813,-33.467 z m -50.709,40.65 c 0.179,-5.364 0.546,-10.958 0.852,-16.632 9.128,7.488 18.365,15.94 25.441,25.249 -8.384,5.459 -17.675,9.67 -27.2,13.283 0.464,-7.249 0.663,-14.583 0.907,-21.9 z m -2.088,-23.917 c -7.082,-5.476 -14.058,-10.412 -20.092,-14.756 6.583,-1.194 13.202,-2.143 19.814,-2.647 0.451,5.725 0.461,11.563 0.278,17.403 z m -0.178,4.753 c -0.292,6.478 -0.719,12.92 -0.925,19.164 -0.254,7.675 -0.45,15.428 -0.968,23.106 -7.615,2.774 -15.325,5.226 -22.798,7.657 -4.511,1.468 -10.98,3.396 -18.45,5.226 -10.797,-6.195 -21.116,-12.983 -30.79,-20.625 -0.487,-8.084 -0.553,-15.579 -0.472,-21.464 0.081,-5.871 0.451,-12.431 1.259,-19.212 9.616,-3.401 19.231,-5.881 27.342,-7.783 7.083,-1.661 14.294,-3.337 21.565,-4.768 3.904,2.841 7.497,5.595 10.659,8.066 4.186,3.273 8.825,6.821 13.578,10.633 z M 91.287,12.372 c 3.876,0.32 7.838,0.787 11.693,0.523 0.713,-0.049 0.981,-1.19 0.18,-1.333 -3.57,-0.64 -7.294,-0.667 -10.952,-0.752 0.824,-1.242 1.849,-2.37 2.999,-3.389 0.008,-0.001 0.012,0.006 0.021,0.005 4.568,-0.742 8.932,-0.444 13.487,0.209 0.999,0.143 1.466,-1.284 0.43,-1.56 -3.74,-0.995 -7.621,-1.04 -11.437,-0.55 0.541,-0.356 1.087,-0.707 1.657,-1.02 0.276,0.176 0.61,0.259 1.002,0.037 7.928,-4.479 16.784,2.702 18.066,10.664 1.232,7.649 -4.047,14.983 -11.581,16.519 -5.386,1.098 -10.563,-1.16 -13.751,-5.198 3.49,0.346 7.039,0.853 10.539,0.775 0.6,-0.014 0.793,-0.996 0.148,-1.096 -3.737,-0.575 -7.61,-0.497 -11.382,-0.643 -0.015,0 -0.019,0.012 -0.033,0.013 -0.955,-1.44 -1.688,-3.054 -2.088,-4.817 -0.063,-0.276 -0.056,-0.532 -0.101,-0.803 4.058,0.112 8.079,0.465 12.133,0.764 0.691,0.051 0.862,-1.113 0.166,-1.224 -4.097,-0.648 -8.289,-0.735 -12.44,-0.664 -0.189,-2.37 0.297,-4.526 1.244,-6.46 z m -3.93,8.183 c 0.052,0.326 0.045,0.654 0.119,0.979 2.32,10.109 12.956,15.746 22.641,12.228 4.071,-1.478 7.17,-4.467 9.084,-8.079 8.196,9.494 11.824,20.615 13.246,32.345 -8.177,0.488 -16.422,1.627 -24.55,3.219 C 97.832,54.317 84.116,45.864 70.065,40.793 74.258,32.488 79.86,25.336 87.357,20.555 Z M 68.864,43.319 c 12.272,4.275 24.423,11.565 34.85,18.803 -12.653,2.71 -24.926,6.323 -36.041,9.884 -2.328,0.746 -4.795,1.578 -7.345,2.496 1.51,-10.61 4.122,-21.558 8.536,-31.183 z M 9.64,71.16 c 2.246,-0.024 4.44,0.238 6.616,0.906 0.519,0.159 0.728,-0.634 0.222,-0.807 -2.473,-0.844 -4.983,-1.117 -7.576,-0.976 -1.287,-1.701 -2.145,-3.654 -2.526,-5.668 3.768,0.275 7.541,0.632 11.32,0.605 0.972,-0.007 0.911,-1.355 0,-1.469 -3.828,-0.48 -7.697,-0.566 -11.55,-0.744 -0.038,-0.952 0.03,-1.906 0.268,-2.849 0.329,-1.304 0.886,-2.428 1.573,-3.444 3.005,0.364 6.016,0.597 9.057,0.476 0.977,-0.039 0.986,-1.518 0,-1.524 -2.664,-0.019 -5.318,-0.137 -7.969,-0.324 1.58,-1.741 3.631,-3.073 5.768,-4.271 1.394,0.014 2.788,0.048 4.184,0.021 0.813,-0.015 0.815,-1.249 0,-1.264 -0.639,-0.012 -1.276,0.013 -1.914,0.01 0.376,-0.196 0.754,-0.397 1.126,-0.59 0.026,0.001 0.035,0.023 0.062,0.022 15.507,-0.382 17.231,24.632 2.635,26.724 -4.129,0.594 -8.402,-1.54 -11.296,-4.834 z m 11.618,8.261 c 0.439,-0.053 0.879,-0.115 1.313,-0.223 C 30.552,77.21 34.815,68.058 33.943,60.402 33.376,55.424 30.072,49.81 25.458,47.598 37.137,38.008 51.522,37.927 65.955,42.368 61.278,52.716 58.597,64.45 57.12,75.693 47.85,79.218 37.8,83.89 29.289,89.936 26.516,86.563 23.836,83.063 21.258,79.421 Z m 35.091,37.36 C 47.4,109.476 39.075,101.338 31.391,92.319 38.864,86.966 47.702,82.736 56.695,79.358 56.137,84.441 55.786,89.393 55.628,94 c -0.261,7.599 0.025,15.207 0.721,22.781 z m -45.11,9.005 c 0.55,-13.388 7.566,-23.663 17.659,-31.595 8.118,10.36 17.588,19.468 27.963,27.56 0.9,7.695 2.246,15.336 3.929,22.883 -22.288,2.12 -44.129,-0.906 -49.551,-18.848 z m 48.12,-2.064 c 8.202,6.187 16.933,11.749 25.928,16.871 -7.225,1.63 -15.154,3.078 -23.082,3.907 -1.395,-6.843 -2.293,-13.949 -2.846,-20.778 z m 34.728,76.902 c -3.216,0.127 -6.08,-1.211 -8.372,-3.301 3.306,-0.109 6.531,0.137 9.831,0.601 0.482,0.068 0.711,-0.639 0.208,-0.753 -3.527,-0.796 -7.183,-0.882 -10.781,-0.623 -1.438,-1.512 -2.574,-3.34 -3.381,-5.274 4.047,0.049 8.091,0.127 12.138,-0.014 0.837,-0.029 0.839,-1.272 0,-1.301 -4.187,-0.146 -8.372,-0.058 -12.56,-0.009 -0.013,0 -0.016,0.012 -0.028,0.012 -0.565,-1.741 -0.883,-3.528 -0.801,-5.261 4.245,0.047 8.486,0.131 12.729,-0.051 0.837,-0.036 0.838,-1.265 0,-1.301 -4.175,-0.179 -8.351,-0.1 -12.528,-0.053 0.33,-2.173 1.166,-4.027 2.305,-5.635 0.084,0.046 0.158,0.107 0.272,0.096 4.19,-0.4 8.387,-0.441 12.59,-0.257 0.933,0.041 0.901,-1.343 0,-1.432 -4.005,-0.394 -7.946,-0.219 -11.911,0.354 2.915,-3.247 7.34,-5.131 11.931,-5.684 0.245,-0.03 0.421,-0.184 0.554,-0.37 15.901,0.189 14.793,29.583 -2.196,30.256 z m 17.161,-17.033 c -0.121,0.134 -0.182,0.278 -0.249,0.421 0.028,-0.812 0.02,-1.617 -0.071,-2.402 -1.068,-9.313 -10.471,-15.931 -19.493,-13.281 -0.509,0.149 -0.771,0.501 -0.873,0.893 -5.094,0.968 -9.467,4.695 -11.642,9.477 -8.153,-6.506 -13.105,-18.232 -16.084,-31.246 8.567,-0.536 16.307,-1.683 21.487,-2.734 1.982,-0.402 4.007,-0.828 6.055,-1.273 11.327,6.168 23.014,11.661 34.62,16.712 -2.97,8.364 -7.304,16.27 -13.75,23.433 z m 14.604,-26.02 c -10.607,-4.689 -20.915,-9.705 -30.861,-15.163 11.512,-2.634 23.756,-5.988 35.653,-10.413 -0.805,8.764 -2.179,17.375 -4.792,25.576 z m 47.895,-10.358 c -0.386,0.29 -0.643,0.782 -0.556,1.411 1.075,7.733 -16.912,11.433 -21.862,12.161 -7.275,1.07 -15.693,0.998 -22.51,-2.211 2.842,-8.909 4.277,-18.273 5.097,-27.835 10.629,-4.16 20.871,-9.2 29.905,-15.405 6.723,9.754 10.89,20.403 9.926,31.879 z m -9.186,-37.163 c -7.647,-10.355 -17.91,-19.726 -28.252,-27.944 0.293,-6.716 0.394,-13.492 -0.106,-20.096 13.476,-0.71 26.876,0.573 39.792,5.512 -3.305,2.758 -5.592,6.681 -5.937,11.35 -0.534,7.238 3.615,14.071 10.185,16.547 -4.56,5.707 -9.866,10.508 -15.682,14.631 z m 17.54,-17.064 c -1.984,-0.565 -3.66,-1.653 -5.052,-3.023 1.975,0.057 3.949,0.126 5.928,0.121 0.864,-0.002 0.86,-1.311 0,-1.339 -2.369,-0.077 -4.734,-0.075 -7.102,-0.069 -1.033,-1.338 -1.762,-2.896 -2.254,-4.529 3.331,0.469 6.659,0.95 10.005,1.31 0.588,0.063 0.732,-0.954 0.141,-1.041 -3.472,-0.512 -6.955,-0.9 -10.441,-1.299 -0.376,-1.711 -0.437,-3.492 -0.143,-5.244 3.707,0.119 7.404,0.212 11.115,0.181 0.589,-0.005 0.584,-0.886 0,-0.911 -3.641,-0.155 -7.272,-0.186 -10.913,-0.195 0.541,-2.264 1.581,-4.228 2.956,-5.908 3.756,0.091 7.497,0.229 11.249,0.558 0.588,0.052 0.733,-0.951 0.141,-1.041 -3.409,-0.516 -6.864,-0.767 -10.313,-0.674 2.309,-2.314 5.296,-3.993 8.532,-4.988 8.363,1.36 12.763,7.528 12.051,16.04 -0.682,8.152 -7.603,14.412 -15.9,12.051 z"
       id="path2"
       inkscape:connector-curvature="0" /></g><g
     id="g6"
     transform="translate(-2.8832657,1.9856195e-4)" /><g
     id="g8"
     transform="translate(-2.8832657,1.9856195e-4)" /><g
     id="g10"
     transform="translate(-2.8832657,1.9856195e-4)" /><g
     id="g12"
     transform="translate(-2.8832657,1.9856195e-4)" /><g
     id="g14"
     transform="translate(-2.8832657,1.9856195e-4)" /><g
     id="g16"
     transform="translate(-2.8832657,1.9856195e-4)" /><g
     id="g18"
     transform="translate(-2.8832657,1.9856195e-4)" /><g
     id="g20"
     transform="translate(-2.8832657,1.9856195e-4)" /><g
     id="g22"
     transform="translate(-2.8832657,1.9856195e-4)" /><g
     id="g24"
     transform="translate(-2.8832657,1.9856195e-4)" /><g
     id="g26"
     transform="translate(-2.8832657,1.9856195e-4)" /><g
     id="g28"
     transform="translate(-2.8832657,1.9856195e-4)" /><g
     id="g30"
     transform="translate(-2.8832657,1.9856195e-4)" /><g
     id="g32"
     transform="translate(-2.8832657,1.9856195e-4)" /><g
     id="g34"
     transform="translate(-2.8832657,1.9856195e-4)" /></svg>