<svg height="217.56935" viewBox="0 0 158.87344 217.56934" width="158.87344" xmlns="http://www.w3.org/2000/svg"><g transform="translate(-29.348679 -.000641)"><path d="m152.372 145.784c-4.782-2.026-10.026-3.905-15.455-5.778 8.807-20.117 5.481-43.415-11.355-58.642-9.365-8.47-27.624-14.808-44.711-22.285 7.729-17.113 13.15-37.869 8.223-56.451.012-.131-.057-.256-.103-.392-.116-.425-.208-.854-.335-1.276-.306-1.015-1.453-1.052-2.057-.515-1.917-.696-4.194-.565-5.973.327-1.531.768-2.588 2.033-3.269 3.5-.722-.253-1.752.328-1.592 1.35.049.315.074.624.121.938-11.406 4.896-22.775 9.98-33.932 15.419.004-3.266.631-6.77 2.012-10.558.377-.177.646-.537.489-1.025-.017-.052-.051-.093-.07-.144.081-.203.129-.393.214-.598.334-.801-.716-1.326-1.338-.938-1.422-1.196-3.675-1.704-5.335-1.672-2.015.039-3.861.797-5.213 2.159-.256-.072-.53-.027-.664.286-.166.388-.276.78-.427 1.169-.036.063-.091.106-.126.17-.051.094-.041.185-.037.275-6.816 18.398 3.919 37.781 19.438 48.521 4.164 2.882 8.623 5 13.224 6.762-10.441 23.619-6.288 48.135 14.612 64.766 11.826 9.41 27.655 13.584 43.036 17.917-7.705 12.687-9.971 27.74-6.7 41.617-.023.127-.011.258.074.356 2.086 8.587 6.293 16.712 12.686 23.525.246.262.554.29.857.235 3.6 5.402 12.858 2.362 12.091-4.503-.083-.743-.617-1.115-1.168-1.174-3.073-4.347-5.318-8.695-6.897-13.078 3.107.643 6.725-1.778 9.595-2.991 9.461-3.999 18.865-8.121 28.26-12.271 1.59 3.822 2.79 8.093 3.411 13.035.062.49.346.817.697 1.017 1.851 3.132 5.599 4.755 9.206 3.949 1.518-.339 2.944-1.13 3.682-2.525.39-.209.686-.584.679-1.168-.287-24.197-14.141-40.111-35.85-49.309zm-72.826-126.879c-.156-4.025-.574-7.959-1.208-11.631.362-1.759 1.325-3.277 2.962-4.149 1.871-.997 3.609-.521 5.385.207 4.652 18.323-.977 37.74-7.62 54.961-2.783-1.239-5.529-2.508-8.186-3.828 6.679-9.115 8.926-21.839 8.688-33.91l.001-.001c.699-.459.493-1.285-.022-1.649zm-4.993 20.41c-1.374 4.959-3.098 9.774-4.298 14.842-4.503-2.263-8.724-4.679-12.478-7.305 5.479-1.911 12.093-4.003 16.776-7.537zm-17.925 6.621c-.026.01-.029.037-.052.049-3.585-2.629-6.702-5.466-9.11-8.593.061 0 .117.022.183-.006 10.068-4.304 20.008-9.361 29.304-15.215-.045 3.233-.242 6.478-.743 9.782-.27 1.785-.655 3.519-1.083 5.236-.006.002-.012-.003-.018-.001-2.856.943-5.391 2.74-8.065 4.109-3.392 1.736-6.865 3.262-10.416 4.639zm-14.258-22.717c11.364-4.613 22.607-9.61 33.74-14.758.505 3.793.813 7.535.875 11.286-9.889 5.714-19.718 11.457-29.769 16.901-.097.052-.133.128-.166.202-2.974-4.037-4.808-8.539-5.055-13.651.114.042.235.077.375.02zm7.783 30.883c1.048.331 2.094.511 3.257.304.584-.104.421-.989-.136-1.004-1.341-.036-2.564-.193-3.812-.697-.301-.122-.556.082-.661.344-1.508-1.226-2.967-2.492-4.315-3.84 2.26.045 4.435.075 6.679.548.774.163 1.077-.931.326-1.183-2.418-.812-5.119-1.11-7.592-.347-.096.029-.149.096-.205.158-2.01-2.103-3.881-4.303-5.426-6.71 1.02.241 2.532-.5 3.297.048.638.456 1.313-.518.811-1.051-.888-.944-2.51-.79-3.692-.583.577-.101.445-1.054-.138-1.023-.626.034-1.12.483-1.225 1.07-1.017-1.753-1.923-3.573-2.659-5.487 1.768.047 3.494.276 5.264.555.603.095.826-.692.252-.914-1.895-.734-3.906-.862-5.915-.756-.6-1.723-1.125-3.488-1.476-5.343 1.748.262 3.511.461 5.269.561.637.036.597-.888 0-.967-1.799-.239-3.623-.38-5.443-.445-.283-1.708-.49-3.454-.545-5.275 1.552.242 3.1.497 4.664.655.486.049.602-.775.116-.858-1.599-.274-3.209-.447-4.82-.633-.016-1.616.049-3.271.224-4.977 1.242.49 2.56.663 3.959.436.556-.09.394-.931-.129-.949-1.304-.046-2.479-.297-3.646-.683.176-1.386.343-2.768.65-4.214 1.384-1.039 3.057-1.581 4.816-1.563 1.829.019 2.858.843 4.156 1.624-8.681 19.541 7.435 36.223 24.671 44.389 14.871 7.046 31.101 11.104 45.255 19.71 23.088 14.039 33.588 39.029 22.259 64.083-2.464-.842-4.957-1.688-7.457-2.549 1.692-3.87 2.724-7.82 3.212-11.77-.027.489.371 1.051.912.83 1.799-.735 3.63-1.414 5.351-2.322.71-.374.223-1.566-.552-1.308-1.846.613-3.605 1.465-5.38 2.254-.175.078-.263.217-.314.368.676-5.677.2-11.351-1.338-16.779 1.444-.195 2.856-.568 4.157-1.268.467-.252.149-1.037-.365-.867-1.381.457-2.73.795-4.108 1.033-.931-2.994-2.157-5.913-3.696-8.702 1.166-.079 2.363-.244 3.455-.589.592-.187.51-1.131-.151-1.114-1.307.035-2.663.302-3.92.675-.823-1.408-1.68-2.801-2.65-4.136 1.134-.247 2.272-.477 3.394-.785.567-.156.328-1.007-.242-.879-1.235.277-2.445.636-3.66.979-1.701-2.258-3.585-4.413-5.688-6.407 1.44-.295 2.877-.604 4.293-1.006.577-.164.324-.968-.242-.879-1.673.263-3.321.647-4.966 1.038-.312-.282-.605-.58-.925-.856-2.012-1.734-4.116-3.239-6.287-4.583 2.346-.114 4.692-.227 7.022-.521.598-.076.638-.993 0-.967-2.747.116-5.478.478-8.208.8-1.9-1.112-3.839-2.131-5.827-3.041.335-.095.668-.186 1.009-.33.463-.196.132-.981-.344-.816-.753.262-1.488.405-2.225.457-6.321-2.726-13-4.687-19.746-6.792-1.019-.318-2.015-.703-3.023-1.055 1.374-.292 2.744-.598 4.096-.987.646-.186.365-1.09-.272-.986-1.972.32-3.912.8-5.855 1.264-2.434-.905-4.843-1.867-7.202-2.922 1.441-.177 2.819-.594 4.179-1.344.49-.27.06-.963-.432-.739-1.852.843-3.804 1.207-5.821 1.177-5.126-2.43-9.976-5.257-14.274-8.559zm58.678 74.366c-.5.194-.615.7-.483 1.097-6.292-2.706-12.22-5.736-17.32-9.346 4.106-.766 9.014-3.869 11.877-5.427 6.865-3.736 13.338-8.085 20.485-11.279 2.012 4.764 3.145 9.939 3.292 15.457-5.932 3.308-11.37 6.985-17.851 9.498zm17.828-6.953c-.128 4.51-.877 9.226-2.391 14.146-5.053-1.765-10.081-3.627-14.915-5.667 5.787-2.086 12.208-4.685 17.306-8.479zm-32.613-45.173c5.459 2.318 10.351 5.202 14.631 8.537-11.697 4.736-22.199 11.562-31.376 20.184-2.118-4.218-3.429-8.947-3.595-14.379 7.033-4.226 14.176-8.901 20.34-14.342zm-20.334 12.928c.021-5.496 1.105-11.642 3.533-18.591 4.481 1.326 8.977 2.64 13.372 4.261.503.186.974.406 1.469.6-6.282 4.296-12.33 9.104-18.374 13.73zm36.242-2.751c.183-.076.313-.194.419-.325 5.249 4.424 9.404 9.622 12.214 15.474-11.432 4.899-21.804 12.18-33.006 17.473-4.817-3.632-8.838-7.814-11.615-12.789 9.583-8.38 20.21-14.944 31.988-19.833zm28.229 123.984c-.48 4.555-5.399 6.238-8.663 3.161-.024-.121.011-.239-.077-.359-.732-1.001-1.412-2.011-2.084-3.021 1.53.055 3.07.12 4.583-.006.442-.037.443-.651 0-.688-1.669-.14-3.372-.047-5.056.009-1.18-1.817-2.232-3.654-3.215-5.5 2.095-.041 4.162.084 6.265.366.405.054.491-.624.096-.712-2.225-.498-4.492-.536-6.756-.391-.939-1.816-1.734-3.653-2.48-5.495 1.507-.006 3.012.022 4.533-.011.491-.011.647-.811.121-.895-1.665-.266-3.37-.184-5.055.018-.727-1.875-1.35-3.763-1.875-5.662 1.454.071 2.915.094 4.273-.168.382-.074.382-.697 0-.771-1.435-.276-2.985-.236-4.52-.155-.35-1.37-.616-2.749-.861-4.131 1.849.095 3.725.012 5.475-.487.561-.16.481-1.126-.143-1.059-1.888.202-3.689.432-5.531.478-.298-1.896-.458-3.807-.556-5.723 2.228.101 4.479.248 6.691.104.693-.045.694-1.033 0-1.079-2.222-.145-4.484.005-6.722.105-.051-1.451-.024-2.909.04-4.37 2.76.021 5.581-.278 8.156-1.261.669-.255.42-1.277-.302-1.094-2.609.665-5.134 1.2-7.792 1.337.153-2.464.53-4.947 1.014-7.437 1.436.059 2.884.116 4.284-.057.727-.09.729-1.044 0-1.134-1.31-.163-2.663-.121-4.01-.067.214-.987.47-1.977.732-2.968.027-.002.044.017.073.01 2.227-.591 4.265-.388 6.505-.496.565-.027.708-.844.136-1.004-2.062-.58-4.442-.091-6.471.558 1.021-3.636 2.382-7.294 4.177-10.975 2.973.842 5.923 1.698 8.821 2.604-7.407 18.728-8.975 43.11 6.194 58.426zm-4.754-57.961c6.991 2.245 13.611 4.854 19.434 8.345-3.889 2.084-7.762 4.193-11.618 6.339-1.841 1.024-3.673 2.065-5.508 3.101-.475.268-5.269 2.676-5.272 2.708.037-.361-.317-.527-.619-.469.49-6.455 1.799-13.094 3.583-20.024zm21.03 32.819c-4.638 1.998-16.833 9.403-22.393 8.707-2.027-6.455-2.693-12.994-2.344-19.734 1.694 1.283 4.663-1.266 6.113-2.051 6.087-3.301 12.147-6.646 18.158-10.084.195-.111.272-.273.33-.435 6.502 4.173 11.865 9.614 15.429 17.122-5.103 2.146-10.209 4.285-15.293 6.475zm26.317 11.271c-1.636-.278-3.126-1.078-4.268-2.255.056-.159.078-.342.051-.557-2.771-21.937-16.205-36.211-37.151-42.547-18.517-5.601-37.735-7.553-54.301-18.619-24.427-16.317-27.51-39.51-19.552-65.712 3.204 1.169 6.471 2.184 9.756 3.165-10.166 21.516-1.827 44.218 18.036 56.859 11.415 7.264 25.766 11.373 39.718 15.782.343.813 1.43 1.263 2.128.68 25.766 8.245 49.58 18.129 50.201 51.666.003.176.052.321.103.464-.929 1-3.914 1.212-4.721 1.074z"/><path d="m61.868 56.713c-1.98-.098-3.967-.034-5.95-.019-.682.005-.683 1.055 0 1.06 1.982.015 3.969.079 5.95-.019.658-.031.659-.989 0-1.022z"/><path d="m86.338 67.263c-1.318.026-2.641.128-3.949.298-.803.105-.865 1.303 0 1.301 1.317-.002 2.64-.076 3.949-.224.857-.096.907-1.393 0-1.375z"/><path d="m94.088 67.838c-2.269.44-4.453 1.131-6.654 1.828-.785.249-.464 1.439.341 1.237 2.242-.562 4.461-1.119 6.625-1.936.703-.265.436-1.274-.312-1.129z"/><path d="m135.579 112.223c-1.612.944-3.025 1.449-4.916.978-.617-.154-.866.76-.262.95 2.019.637 4.242.406 5.82-1.096.438-.416-.124-1.135-.642-.832z"/><path d="m135.177 129.594c-2.05.838-4.069 1.731-6.09 2.638-.447.201-.127.974.337.798 2.027-.768 4.045-1.543 6.045-2.378.639-.267.364-1.326-.292-1.058z"/></g></svg>