<?xml version="1.0" encoding="UTF-8" standalone="no"?>
<!-- Generator: Adobe Illustrator 16.0.0, SVG Export Plug-In . SVG Version: 6.00 Build 0)  -->

<svg
   xmlns:dc="http://purl.org/dc/elements/1.1/"
   xmlns:cc="http://creativecommons.org/ns#"
   xmlns:rdf="http://www.w3.org/1999/02/22-rdf-syntax-ns#"
   xmlns:svg="http://www.w3.org/2000/svg"
   xmlns="http://www.w3.org/2000/svg"
   xmlns:sodipodi="http://sodipodi.sourceforge.net/DTD/sodipodi-0.dtd"
   xmlns:inkscape="http://www.inkscape.org/namespaces/inkscape"
   version="1.1"
   id="Capa_1"
   x="0px"
   y="0px"
   width="113.91653"
   height="190.44933"
   viewBox="0 0 113.91655 190.44933"
   xml:space="preserve"
   sodipodi:docname="entornfamiliar.svg"
   inkscape:version="0.92.2 5c3e80d, 2017-08-06"><metadata
     id="metadata49"><rdf:RDF><cc:Work
         rdf:about=""><dc:format>image/svg+xml</dc:format><dc:type
           rdf:resource="http://purl.org/dc/dcmitype/StillImage" /></cc:Work></rdf:RDF></metadata><defs
     id="defs47" /><sodipodi:namedview
     pagecolor="#ffffff"
     bordercolor="#666666"
     borderopacity="1"
     objecttolerance="10"
     gridtolerance="10"
     guidetolerance="10"
     inkscape:pageopacity="0"
     inkscape:pageshadow="2"
     inkscape:window-width="640"
     inkscape:window-height="480"
     id="namedview45"
     showgrid="false"
     inkscape:zoom="1.2391704"
     inkscape:cx="56.958415"
     inkscape:cy="95.225099"
     inkscape:window-x="0"
     inkscape:window-y="0"
     inkscape:window-maximized="0"
     inkscape:current-layer="Capa_1" /><g
     id="g12"
     transform="translate(-38.266584,-7.5959753e-4)"><g
       id="g10"><path
         d="m 145.529,98.409 c -4.795,-6.01 -15.353,-4.808 -22.368,-3.486 -1.029,-8.889 -2.61,-16.657 -4.439,-22.258 -0.464,-1.422 -2.024,-1.587 -2.98,-0.965 -0.256,-0.163 -0.558,-0.28 -0.963,-0.268 -23.906,0.722 -46.41,2.393 -70.28,-0.919 -1.498,-0.208 -2.129,1.628 -0.902,2.311 -1.106,39.926 -25.12,116.602 38.723,117.621 23.921,0.382 35.431,-20.784 39.839,-45.936 1.913,6.582 11.644,6.427 17.058,5.045 9.326,-2.381 11.586,-14.612 12.56,-22.58 1.181,-9.685 -0.014,-20.753 -6.248,-28.565 z M 77.908,186.581 C 21.954,185.685 47.393,107.213 46.146,73.621 c 14.573,4.252 30.833,4.467 46.604,3.396 -1.782,2.915 -1.461,8.734 -1.538,11.189 -0.184,5.881 0.29,11.955 1.645,17.714 -3.032,0.072 -6.07,0.329 -9.155,0.668 -1.121,0.124 -1.763,0.776 -1.893,1.894 -0.771,6.64 -1.708,13.244 -1.822,19.939 -0.061,3.556 -0.018,7.242 2.348,9.279 -0.226,0.628 -0.101,1.367 0.618,1.722 3.215,1.585 6.553,2.284 10.104,2.619 2.637,0.249 6.348,0.61 8.058,-1.802 0.282,-0.396 0.207,-0.969 -0.056,-1.406 0.178,-0.316 0.287,-0.682 0.222,-1.059 0.099,0.57 0.263,-2.66 0.295,-3.34 0.133,-2.699 0.484,-5.395 0.804,-8.076 0.074,-0.632 0.169,-1.262 0.249,-1.895 0.112,-0.193 0.137,-0.424 0.086,-0.65 0.121,-0.939 0.249,-1.877 0.374,-2.815 0.274,-0.163 0.444,-0.49 0.234,-0.836 -0.03,-0.051 -0.072,-0.094 -0.104,-0.145 0.516,-3.842 1.039,-7.684 1.447,-11.538 0.082,-0.776 -0.635,-1.687 -1.393,-1.828 -2.645,-0.493 -5.26,-0.667 -7.873,-0.712 -0.361,-5.381 -0.503,-10.782 -0.466,-16.173 0.021,-3.08 0.184,-6.167 0.725,-9.202 0.244,-1.369 0.771,-2.467 0.693,-3.802 6.294,-0.504 12.488,-1.17 18.424,-1.86 0.231,-0.027 0.426,-0.103 0.61,-0.191 10.267,33.053 10.477,112.639 -37.478,111.87 z M 99.94,115.893 c -1.769,-1.898 -3.678,-3.705 -5.315,-5.621 -0.34,-0.396 -1.044,0.143 -0.726,0.559 1.834,2.396 3.719,4.957 5.758,7.296 -0.073,0.565 -0.141,1.133 -0.215,1.697 -2.867,-3.353 -5.748,-6.703 -8.629,-10.037 3.286,-0.174 6.562,-0.146 9.862,0.323 -0.222,1.931 -0.484,3.855 -0.735,5.783 z m -13.375,18.861 c -1.059,-1.336 -2.085,-2.696 -3.118,-4.053 0.039,-1.685 0.159,-3.309 0.259,-4.552 1.677,2.844 3.52,5.596 5.515,8.22 0.866,1.14 1.913,2.671 3.142,3.889 -1.038,-0.085 -2.077,-0.146 -3.115,-0.321 -0.138,-0.186 -0.262,-0.354 -0.348,-0.446 -0.809,-0.883 -1.592,-1.797 -2.335,-2.737 z m 0.627,2.72 c -1.041,-0.237 -2.098,-0.447 -3.095,-0.762 -0.004,-10e-4 -0.007,0 -0.01,-10e-4 -0.462,-1.008 -0.63,-2.696 -0.655,-4.515 0.972,1.322 1.95,2.64 2.901,3.975 0.244,0.343 0.54,0.812 0.859,1.303 z m 2.666,-4.603 c -2.185,-2.685 -4.172,-5.55 -6.019,-8.48 0.097,-1.605 0.278,-3.202 0.445,-4.802 3.141,4.902 6.662,9.6 10.299,14.14 0.133,0.166 1.685,2.021 3.175,3.337 0.093,0.406 0.216,0.786 0.392,1.115 -1.014,0.047 -2.034,0.142 -3.057,0.192 -2.035,-1.414 -3.753,-3.683 -5.235,-5.502 z m -5.493,-14.145 c 0.129,-1.179 0.281,-2.354 0.421,-3.531 4.364,5.564 8.504,11.36 13.037,16.791 -0.128,0.913 -0.24,1.885 -0.257,2.836 -0.064,-0.069 -0.132,-0.135 -0.197,-0.205 -1.611,-1.741 -3.127,-3.573 -4.631,-5.408 -2.755,-3.362 -5.464,-6.794 -7.987,-10.336 -0.103,-0.142 -0.247,-0.165 -0.386,-0.147 z m 13.587,10.96 c -4.169,-5.061 -7.991,-10.442 -12.492,-15.192 -0.197,-0.208 -0.42,-0.169 -0.584,-0.042 0.171,-1.415 0.332,-2.831 0.506,-4.245 0.17,-0.017 0.339,-0.028 0.51,-0.046 2.152,3.756 4.423,7.483 7.015,10.946 1.25,1.669 3.356,4.569 5.69,5.376 -0.102,0.817 -0.218,1.633 -0.312,2.451 -0.005,0.049 -0.02,0.126 -0.025,0.178 -0.202,0.111 -0.302,0.326 -0.308,0.574 z m -4.545,-10.15 c -2.424,-2.975 -4.384,-6.27 -6.487,-9.466 0.851,-0.079 1.698,-0.138 2.547,-0.197 -0.013,0.157 0.021,0.323 0.14,0.474 2.244,2.825 4.395,5.725 6.611,8.57 0.879,1.129 1.808,2.491 2.872,3.668 -0.082,0.63 -0.159,1.261 -0.24,1.891 -1.904,-1.532 -3.785,-2.906 -5.443,-4.94 z m 30.724,-12.397 c 2.015,-0.155 3.653,-1.33 5.786,-1.254 2.09,0.074 3.924,1.556 5.318,2.96 3.63,3.655 5.287,9.191 6.105,14.136 0.715,4.32 0.664,9.944 -2.164,13.56 -3.886,4.97 -11.445,1.375 -15.88,-0.746 1.065,-9.599 1.302,-19.404 0.835,-28.656 z m 22.619,26.832 c -2.178,9.532 -14.596,19.058 -22.219,8.366 -0.547,-0.767 -1.335,-0.824 -1.931,-0.486 0.173,-1.121 0.245,-2.278 0.391,-3.41 5.019,3.391 12.252,6.325 17.508,1.982 4.89,-4.039 5.365,-11.286 4.684,-17.132 -0.744,-6.374 -3.172,-12.997 -7.762,-17.609 -3.023,-3.039 -9.848,-5.251 -13.547,-2.139 -0.132,-1.886 -0.221,-3.822 -0.4,-5.638 3.709,0.315 7.382,-0.053 11.14,-0.036 8.582,0.04 11.699,7.663 13.077,15.005 1.289,6.875 0.6,14.353 -0.941,21.097 z"
         id="path2"
         inkscape:connector-curvature="0" /><path
         d="M 66.047,58.58 C 46.946,57.857 61.001,31.037 64.359,20.52 c 1.393,-4.358 5.93,-24.157 -5.771,-19.413 -1.323,0.536 -1.506,2.402 0,2.873 7.286,2.276 3.951,9.534 2.114,15.532 -2.427,7.93 -5.566,15.628 -7.389,23.738 -2.299,10.233 0.591,20.513 13.043,17.627 1.329,-0.308 0.976,-2.249 -0.309,-2.297 z"
         id="path4"
         inkscape:connector-curvature="0" /><path
         d="M 84.41,58.542 C 54.148,54.835 101.264,3.071 83.405,0.357 82.093,0.158 80.556,1.849 81.912,2.922 92.986,11.685 48.82,62.66 84.41,60.956 c 1.591,-0.077 1.511,-2.228 0,-2.414 z"
         id="path6"
         inkscape:connector-curvature="0" /><path
         d="m 107.583,0.558 c -1.665,-1.679 -4.058,0.807 -2.561,2.56 9.073,10.619 -8.009,31.282 -11.081,42.863 -2.369,8.931 1.16,15.933 10.949,14.878 1.415,-0.152 1.442,-2.101 0,-2.22 -16.328,-1.351 -3.019,-23.413 1.125,-31.052 4.331,-7.982 8.948,-19.587 1.568,-27.029 z"
         id="path8"
         inkscape:connector-curvature="0" /></g></g><g
     id="g14"
     transform="translate(-38.266584,-7.5959753e-4)" /><g
     id="g16"
     transform="translate(-38.266584,-7.5959753e-4)" /><g
     id="g18"
     transform="translate(-38.266584,-7.5959753e-4)" /><g
     id="g20"
     transform="translate(-38.266584,-7.5959753e-4)" /><g
     id="g22"
     transform="translate(-38.266584,-7.5959753e-4)" /><g
     id="g24"
     transform="translate(-38.266584,-7.5959753e-4)" /><g
     id="g26"
     transform="translate(-38.266584,-7.5959753e-4)" /><g
     id="g28"
     transform="translate(-38.266584,-7.5959753e-4)" /><g
     id="g30"
     transform="translate(-38.266584,-7.5959753e-4)" /><g
     id="g32"
     transform="translate(-38.266584,-7.5959753e-4)" /><g
     id="g34"
     transform="translate(-38.266584,-7.5959753e-4)" /><g
     id="g36"
     transform="translate(-38.266584,-7.5959753e-4)" /><g
     id="g38"
     transform="translate(-38.266584,-7.5959753e-4)" /><g
     id="g40"
     transform="translate(-38.266584,-7.5959753e-4)" /><g
     id="g42"
     transform="translate(-38.266584,-7.5959753e-4)" /></svg>