<svg height="389.88202" viewBox="0 0 383.28512 389.88201" width="383.28513" xmlns="http://www.w3.org/2000/svg"><g transform="translate(-3.298319 .000246)"><path d="m156.022 2.322c-81.396-16.524-128.52 67.932-146.268 134.64-10.404 40.392-8.568 87.515 7.956 126.072 15.3 35.496 44.064 77.724 82.62 90.575 4.284 1.225 7.344-4.283 4.284-7.344-25.092-25.704-50.184-42.228-67.932-75.275-19.584-37.332-22.644-82.008-14.688-123.012 12.852-62.424 58.14-145.043 132.192-137.088 5.508.612 6.732-7.955 1.836-8.568z"/><path d="m141.334 32.922c-130.968 25.092-157.896 266.832-20.196 300.492 6.12 1.224 7.956-6.732 2.448-9.181-120.564-45.287-98.532-247.247 20.808-279.07 7.956-1.837 4.896-14.077-3.06-12.241z"/><path d="m279.646 32.922c-5.508 1.224-6.12 11.016 0 11.628 33.66 5.508 59.977 9.792 78.948 41.616 16.524 28.152 16.524 64.26 11.016 95.472-12.852 75.276-67.932 137.087-145.655 142.596-5.509.611-5.509 7.955 0 8.567 86.903 6.732 146.88-75.275 160.344-152.387 11.627-65.484-20.809-161.568-104.653-147.492z"/><path d="m266.794 61.074c-8.568-2.448-12.24 10.404-3.672 13.464 124.848 37.944 58.14 197.675-39.78 221.543-4.896 1.224-3.672 9.18 1.224 8.567 120.564-13.462 173.809-203.182 42.228-243.574z"/><path d="m283.318.486c-12.852-2.448-26.928 4.896-38.556 9.792-17.136 6.732-33.66 15.3-48.349 26.316-3.06 2.448-4.896 6.12-2.448 10.404 14.077 25.092 33.661 45.9 50.796 68.544 4.284 5.508 13.464.612 9.18-5.508-13.464-22.032-31.212-41.616-44.063-64.26 12.24-7.956 25.092-14.688 38.556-20.196 11.628-4.896 26.316-6.12 36.108-13.464 3.672-3.06 4.285-10.404-1.224-11.628z"/><path d="m198.25 337.086c-15.913-23.868-33.661-47.124-59.977-59.364-8.568-3.672-15.3 7.344-7.344 12.853 20.196 12.239 34.884 28.151 48.96 47.124-31.212 11.016-63.036 24.479-91.8 40.392-1.836 1.224-3.06 3.672-3.06 5.508.612.612.612.612 0 .612-1.836 1.224-.612 4.284 1.224 3.06 0 0 .612 0 .612.612 1.836 1.224 4.284 2.448 6.12 1.836 34.272-12.24 66.708-29.376 100.98-41.616 4.285-1.225 7.345-6.733 4.285-11.017z"/></g></svg>