<?xml version="1.0" encoding="UTF-8" standalone="no"?>
<!-- Generator: Adobe Illustrator 16.0.0, SVG Export Plug-In . SVG Version: 6.00 Build 0)  -->

<svg
   xmlns:dc="http://purl.org/dc/elements/1.1/"
   xmlns:cc="http://creativecommons.org/ns#"
   xmlns:rdf="http://www.w3.org/1999/02/22-rdf-syntax-ns#"
   xmlns:svg="http://www.w3.org/2000/svg"
   xmlns="http://www.w3.org/2000/svg"
   xmlns:sodipodi="http://sodipodi.sourceforge.net/DTD/sodipodi-0.dtd"
   xmlns:inkscape="http://www.inkscape.org/namespaces/inkscape"
   version="1.1"
   id="Capa_1"
   x="0px"
   y="0px"
   width="383.28513"
   height="389.88202"
   viewBox="0 0 383.28512 389.88201"
   xml:space="preserve"
   sodipodi:docname="igualtat.svg"
   inkscape:version="0.92.2 5c3e80d, 2017-08-06"><metadata
     id="metadata53"><rdf:RDF><cc:Work
         rdf:about=""><dc:format>image/svg+xml</dc:format><dc:type
           rdf:resource="http://purl.org/dc/dcmitype/StillImage" /></cc:Work></rdf:RDF></metadata><defs
     id="defs51" /><sodipodi:namedview
     pagecolor="#ffffff"
     bordercolor="#666666"
     borderopacity="1"
     objecttolerance="10"
     gridtolerance="10"
     guidetolerance="10"
     inkscape:pageopacity="0"
     inkscape:pageshadow="2"
     inkscape:window-width="640"
     inkscape:window-height="480"
     id="namedview49"
     showgrid="false"
     inkscape:zoom="0.60531288"
     inkscape:cx="191.64168"
     inkscape:cy="194.94128"
     inkscape:window-x="0"
     inkscape:window-y="0"
     inkscape:window-maximized="0"
     inkscape:current-layer="Capa_1" /><g
     id="g16"
     transform="translate(-3.2983194,2.4578838e-4)"><g
       id="g14"><path
         d="M 156.022,2.322 C 74.626,-14.202 27.502,70.254 9.754,136.962 -0.65,177.354 1.186,224.477 17.71,263.034 c 15.3,35.496 44.064,77.724 82.62,90.575 4.284,1.225 7.344,-4.283 4.284,-7.344 C 79.522,320.561 54.43,304.037 36.682,270.99 17.098,233.658 14.038,188.982 21.994,147.978 34.846,85.554 80.134,2.935 154.186,10.89 c 5.508,0.612 6.732,-7.955 1.836,-8.568 z"
         id="path2"
         inkscape:connector-curvature="0" /><path
         d="M 141.334,32.922 C 10.366,58.014 -16.562,299.754 121.138,333.414 c 6.12,1.224 7.956,-6.732 2.448,-9.181 C 3.022,278.946 25.054,76.986 144.394,45.163 c 7.956,-1.837 4.896,-14.077 -3.06,-12.241 z"
         id="path4"
         inkscape:connector-curvature="0" /><path
         d="m 279.646,32.922 c -5.508,1.224 -6.12,11.016 0,11.628 33.66,5.508 59.977,9.792 78.948,41.616 16.524,28.152 16.524,64.26 11.016,95.472 -12.852,75.276 -67.932,137.087 -145.655,142.596 -5.509,0.611 -5.509,7.955 0,8.567 86.903,6.732 146.88,-75.275 160.344,-152.387 C 395.926,114.93 363.49,18.846 279.646,32.922 Z"
         id="path6"
         inkscape:connector-curvature="0" /><path
         d="m 266.794,61.074 c -8.568,-2.448 -12.24,10.404 -3.672,13.464 124.848,37.944 58.14,197.675 -39.78,221.543 -4.896,1.224 -3.672,9.18 1.224,8.567 C 345.13,291.186 398.375,101.466 266.794,61.074 Z"
         id="path8"
         inkscape:connector-curvature="0" /><path
         d="m 283.318,0.486 c -12.852,-2.448 -26.928,4.896 -38.556,9.792 -17.136,6.732 -33.66,15.3 -48.349,26.316 -3.06,2.448 -4.896,6.12 -2.448,10.404 14.077,25.092 33.661,45.9 50.796,68.544 4.284,5.508 13.464,0.612 9.18,-5.508 -13.464,-22.032 -31.212,-41.616 -44.063,-64.26 12.24,-7.956 25.092,-14.688 38.556,-20.196 11.628,-4.896 26.316,-6.12 36.108,-13.464 3.672,-3.06 4.285,-10.404 -1.224,-11.628 z"
         id="path10"
         inkscape:connector-curvature="0" /><path
         d="m 198.25,337.086 c -15.913,-23.868 -33.661,-47.124 -59.977,-59.364 -8.568,-3.672 -15.3,7.344 -7.344,12.853 20.196,12.239 34.884,28.151 48.96,47.124 -31.212,11.016 -63.036,24.479 -91.8,40.392 -1.836,1.224 -3.06,3.672 -3.06,5.508 0.612,0.612 0.612,0.612 0,0.612 -1.836,1.224 -0.612,4.284 1.224,3.06 0,0 0.612,0 0.612,0.612 1.836,1.224 4.284,2.448 6.12,1.836 34.272,-12.24 66.708,-29.376 100.98,-41.616 4.285,-1.225 7.345,-6.733 4.285,-11.017 z"
         id="path12"
         inkscape:connector-curvature="0" /></g></g><g
     id="g18"
     transform="translate(-3.2983194,2.4578838e-4)" /><g
     id="g20"
     transform="translate(-3.2983194,2.4578838e-4)" /><g
     id="g22"
     transform="translate(-3.2983194,2.4578838e-4)" /><g
     id="g24"
     transform="translate(-3.2983194,2.4578838e-4)" /><g
     id="g26"
     transform="translate(-3.2983194,2.4578838e-4)" /><g
     id="g28"
     transform="translate(-3.2983194,2.4578838e-4)" /><g
     id="g30"
     transform="translate(-3.2983194,2.4578838e-4)" /><g
     id="g32"
     transform="translate(-3.2983194,2.4578838e-4)" /><g
     id="g34"
     transform="translate(-3.2983194,2.4578838e-4)" /><g
     id="g36"
     transform="translate(-3.2983194,2.4578838e-4)" /><g
     id="g38"
     transform="translate(-3.2983194,2.4578838e-4)" /><g
     id="g40"
     transform="translate(-3.2983194,2.4578838e-4)" /><g
     id="g42"
     transform="translate(-3.2983194,2.4578838e-4)" /><g
     id="g44"
     transform="translate(-3.2983194,2.4578838e-4)" /><g
     id="g46"
     transform="translate(-3.2983194,2.4578838e-4)" /></svg>