<svg height="244.72452" viewBox="0 0 242.32243 244.72451" width="242.32243" xmlns="http://www.w3.org/2000/svg"><g transform="translate(-1.20152 -.000427)"><path d="m241.84 227.407c-.082-.022-.157.014-.238.013-1.985-19.718-23.828-33.155-37.207-45.6-22.874-21.277-45.514-42.908-69.197-63.289 5.958-9.201 9.903-20.086 11.031-32.159 3.935-42.108-26.504-83.267-69.823-86.208-40.384-2.742-74.29 29.346-75.188 69.435-.848 37.832 31.143 76.406 69.777 77.228.104.175.27.309.515.344 16.17 2.276 31.131-1.182 43.41-8.717.265.05.531.1.796.15 1.239 1.439 2.548 2.824 3.8 4.253-.152.248-.126.605.24.701.162.043.325.07.487.112 20.052 22.814 41.549 44.485 62.637 66.358.026.166.105.319.321.373.018.004.035.01.053.014 2.091 2.17 4.199 4.333 6.28 6.508 9.835 10.283 26.197 35.618 42.737 25.434 3.014-.255 6.222-4.498 7.721-6.363 1.27-1.578 6.026-7.459 1.848-8.587zm-163.668-81.637c-.071-.208-.218-.384-.519-.379-39.202.754-73.584-33.871-74.208-72.852-.623-38.875 30.873-70.771 69.972-69.729 40.587 1.082 71.723 37.167 70.62 76.977-1.042 37.626-28.917 66.674-65.865 65.983zm53.096 6.257c3.368 1.043 6.855 1.609 10.438 1.465.632-.025.637-.973 0-.985-4.158-.078-8.134-.709-11.991-2.04-1.995-1.989-3.95-4.022-5.963-5.992 4.4 1.023 8.816 1.889 13.331 2.375.568.061.706-.917.136-1.004-4.978-.765-9.94-1.662-14.862-2.734-1.379-1.34-2.734-2.706-4.125-4.033 3.794.718 7.59 1.422 11.406 2.014.66.102.96-.889.282-1.022-4.31-.847-8.646-1.554-12.983-2.254-.117-.111-.23-.228-.348-.339 6.964-4.573 12.914-10.576 17.701-17.585 7.786 7.808 15.743 15.451 23.765 23.024-.014.02-.036.017-.049.038-2.363 3.67-3.848 7.351-7.025 10.543-3.157 3.172-6.997 5.551-11.183 7.1-2.803-2.9-5.683-5.718-8.53-8.571zm106.271 83.257c-.667.824-2.182 2.882-3.691 4.154-.263-.148-.574-.21-.949-.008-5.248 2.826-14.035-.66-20.679-4.858 5.138.597 10.289 1.097 15.439 1.536.782.067.76-1.123 0-1.208-5.806-.652-11.63-1.251-17.461-1.677-2.092-1.464-3.876-2.942-5.1-4.211-1.419-1.471-2.824-2.956-4.235-4.436 4.028.807 8.056 1.633 12.106 2.315.533.09.773-.706.227-.825-4.443-.971-8.928-1.766-13.398-2.606-1.832-1.924-3.669-3.843-5.504-5.764-1.836-1.923-3.673-3.845-5.51-5.767 7.904 2.122 15.751 4.449 23.503 7.075.74.251 1.05-.91.321-1.165-8.3-2.911-16.719-5.301-25.246-7.398-3.618-3.788-7.236-7.576-10.855-11.363 3.155.476 6.311.939 9.484 1.302.445.051.548-.704.106-.785-3.568-.661-7.152-1.193-10.741-1.721-2.694-2.82-5.387-5.64-8.081-8.46-.439-.459-.877-.922-1.316-1.382 6.146 1.676 12.339 3.218 18.606 4.357.538.098.769-.726.228-.825-6.558-1.191-13.051-2.532-19.495-4.226-3.59-3.762-7.18-7.531-10.766-11.303 6.024 1.355 12.054 2.677 18.107 3.896.641.129.918-.845.272-.986-6.44-1.402-12.898-2.703-19.368-3.948-3.007-3.163-6.006-6.324-9.025-9.476 6.275 1.567 12.547 3.121 18.854 4.558.512.116.729-.655.217-.789-6.569-1.719-13.162-3.313-19.766-4.893-.129-.031-.234.003-.325.054-.827-.861-1.64-1.732-2.468-2.592 7.825-2.467 16.818-8.931 18.799-17.261 8.329 7.842 16.729 15.61 25.102 23.394 16.305 15.158 52.034 38.054 54.491 61.6.076.727.656 1.103 1.223 1.13-.598 1.673-2.396 3.686-3.106 4.562z"/><path d="m70.905 15.488c-15.751 1.286-30.499 8.423-40.893 19.227-.009 0-.019 0-.029 0-.388.004-.582.303-.583.603-10.387 11.116-16.192 25.996-13.844 42.401.211 1.476.512 2.929.821 4.379-.059.171-.04.357.091.484 6.17 27.953 30.126 50.591 59.052 49.338.146.249.371.446.767.443 74.819-.639 65.016-122.625-5.382-116.875zm6.225 114.815c-5.813-.273-11.391-1.201-16.65-2.732 5.699.108 11.408.123 17.101.019.49-.009.491-.753 0-.762-6.385-.117-12.79-.104-19.178.052-9.154-2.999-17.253-7.898-23.816-14.462 18.056.648 36.227.403 54.234-1.084.8-.066.822-1.3 0-1.264-18.303.801-36.548 1.417-54.87 1.496-.064 0-.095.041-.144.062-2.298-2.39-4.375-5.013-6.252-7.818 9.621.728 19.238 1.504 28.871 2.056.578.033.565-.844 0-.893-9.683-.838-19.383-1.449-29.08-2.109-.142-.01-.244.041-.318.115-1.93-2.995-3.55-6.261-4.962-9.687 18.285.115 36.57.29 54.855.164.802-.006.803-1.24 0-1.246-18.417-.127-36.834.052-55.25.167-1.202-3.059-2.186-6.282-2.946-9.657 7.279.092 14.557.165 21.837.094.718-.007.719-1.109 0-1.116-7.352-.072-14.704.001-22.056.095-.291-1.386-.548-2.795-.753-4.238-1.526-10.755.561-20.54 5.105-28.965.008.262.175.518.514.519 18.111.061 36.157-.474 54.207-1.986.742-.062.759-1.214 0-1.172-18.056 1.021-36.123 1.84-54.207 2.079-.131.002-.213.067-.295.13 2.496-4.52 5.782-8.577 9.555-12.22 11.898.109 23.796.177 35.693-.008.789-.012.791-1.215 0-1.227-11.457-.179-22.914-.118-34.372-.017 3.291-2.981 6.962-5.618 10.909-7.88.089.071.181.143.327.145 9.917.145 19.837.532 29.744 1.015.698.034.685-1.025 0-1.078-9.398-.727-18.785-1.031-28.206-1.08 5.837-3.101 12.213-5.411 18.893-6.725 31.572-6.211 60.563 23.431 62.293 53.82 1.731 30.393-21.222 54.579-50.783 57.398z"/><path d="m80.887 120.128c-11.91.09-23.796-.02-35.696-.551-.397-.018-.39.584 0 .614 11.878.902 23.785 1.301 35.696.979.669-.019.672-1.047 0-1.042z"/><path d="m83.537 71.989c-21.82.261-43.63.542-65.452.38-.719-.006-.718 1.101 0 1.116 21.814.45 43.645.515 65.452-.269.787-.028.793-1.236 0-1.227z"/><path d="m52.46 59.184c-10.554.912-21.137 1.41-31.732 1.332-.755-.006-.754 1.155 0 1.171 10.626.224 21.166-.159 31.732-1.313.748-.082.769-1.257 0-1.19z"/></g></svg>