<svg height="196.11693" viewBox="0 0 157.56294 196.11692" width="157.56294" xmlns="http://www.w3.org/2000/svg"><g transform="translate(-19.276985 .000351)"><path d="m175.118 65.857c-.117-.334-.438-.482-.757-.512.073-.608-.202-1.257-.911-1.399-18.766-3.768-39.21-2.265-58.194-.664-.003-.016.002-.029-.001-.045-3.108-13.679 10.677-21.582 11.769-34.095.394-4.521-.509-9.115-2.401-13.231-5.256-11.434-17.26-17.184-29.55-15.674-10.932 1.343-21.975 8.486-25.47 19.36-1.999 6.22-.968 12.585 1.738 18.395 4.342 9.324 16.518 15.447 15.213 26.694-.12-.045-.188-.148-.339-.152-20.787-.506-42.466-.826-63.048 2.421-.665.105-.703.871-.349 1.299-.577.013-1.132.385-1.135 1.16-.04 9.848.511 19.534.231 29.234-.289.026-.58.06-.868.084-.588.05-.603.965 0 .93.27-.016.543-.024.813-.039-.089 2.556-.193 5.111-.435 7.673-.563.051-1.129.108-1.691.154-.601.049-.615.981 0 .948.53-.029 1.066-.047 1.598-.072-.248 2.381-.549 4.765-.983 7.157-.194 1.071 1.061 1.532 1.647.844 5.102 3.243 9.696 2.397 15.203.276 7.718-2.972 13.688-6.595 22.327-6.006 9.752.666 19.143 7.569 20.707 17.543 1.198 7.644-4.735 21.401-14.354 21.891-7.865.401-13.308-5.391-19.411-8.908-6.83-3.935-14.569-4.259-21.849-1.498-.656.249-.954.794-.975 1.339-.218-.135-.479-.247-.929-.401-.631-.217-1.23.253-1.435.815-2.509 6.864-.399 14.299.065 21.411.615 9.414.23 18.735-.36 28.136-.093.401.004.846.35 1.141.166.158.381.245.61.293 19.35 6.447 44.34 3.032 64.233 1.205 1.915-.176 1.964-3.158 0-3.031-19.761 1.283-42.708 4.292-62.295-.157.165-1.548.285-3.097.4-4.647 9.692-1.091 19.414-1.517 29.166-1.721.911-.019.908-1.378 0-1.413-9.757-.378-19.41.4-29.052 1.777.164-2.504.231-5.013.273-7.521 4.969.069 9.932.187 14.896-.093.894-.051.901-1.355 0-1.395-4.95-.217-9.896-.038-14.846.094.015-1.899-.056-3.801-.106-5.702 6.065-.953 12.125-.965 18.26-.387.703.066.87-1.118.168-1.242-6.183-1.095-12.328-.835-18.453.263-.021-.611-.007-1.222-.034-1.833-.087-1.958-.299-3.905-.453-5.856 3.899.398 7.852.464 11.696-.391.675-.15.541-1.279-.166-1.223-3.891.309-7.716.656-11.62.454-.122-1.421-.177-2.847-.33-4.266-.024-.224-.07-.947-.12-1.919 4.436-.473 8.897-.593 13.358-.527.754.011.726-1.085 0-1.153-4.519-.425-8.947-.175-13.418.436-.17-3.818-.319-9.615.175-9.3.368.235.844-.052.95-.424.222.057.466.076.75-.001 12.855-3.452 18.127 2.192 28.215 8.326 4.316 2.624 8.084 3.951 13.17 2.533 8.95-2.495 16.728-11.587 17.087-20.876.374-9.638-5.617-18.453-14.216-22.466-5.334-2.49-11.529-3.055-17.303-2.228-9.466 1.355-19.779 10.947-29.201 6.518-.138-.065-.272-.088-.403-.106.514-1.936.921-3.901 1.263-5.882 3.665-.154 7.338-.308 10.966-.733.728-.085.773-1.186 0-1.171-3.598.069-7.203.405-10.801.745.392-2.499.638-5.03.815-7.572 4.699-.198 9.446-.354 14.055-1.097.551-.089.399-.941-.129-.95-4.592-.076-9.236.442-13.84.915.16-2.743.196-5.502.175-8.261 7.455.355 14.856.242 22.267-.72.735-.095.785-1.231 0-1.19-7.43.392-14.857.705-22.298.625-.04-2.501-.17-4.992-.299-7.48 11.708.005 23.571-.025 35.185-1.482.758-.095.813-1.243 0-1.227-11.754.233-23.477 1.147-35.239 1.362-.112-1.974-.267-3.906-.406-5.858 5.712-.316 11.415-.667 17.118-1.119.744-.059.756-1.222 0-1.171-5.736.382-11.457.865-17.181 1.383-.092-1.26-.162-2.546-.263-3.791-.031-.385-.198-.676-.431-.872 20.796.244 41.707-1.487 62.528-1.702.413-.004.683-.195.866-.45.239.047.489-.004.641-.302.602-1.184.944-2.284 1.179-3.351 2.485-.486 4.988-.564 7.514-.414.69.041.864-1.11.166-1.224-2.559-.415-4.998-.21-7.464.436.299-2.821-.603-5.307-2.121-7.754 2.829.103 5.641-.272 8.3-1.362.665-.273.424-1.332-.307-1.112-2.924.88-5.808 1.351-8.807 1.243-.94-1.337-2.026-2.677-3.204-4.067-3.813-4.502-7.494-8.949-9.5-14.058 5.887-.078 11.807-.067 17.648-.726.758-.085.795-1.175 0-1.208-6.024-.255-12.084.202-18.112.542-.837-2.592-1.228-5.364-.98-8.403 7.472-.307 14.947-.554 22.407-1.078 1.005-.071 1.025-1.622 0-1.58-7.435.303-14.854.882-22.276 1.402.422-2.948 1.53-5.591 3.057-7.957 8.946.192 17.901-.122 26.709-1.789.814-.154.64-1.544-.198-1.461-8.498.839-16.939 1.663-25.47 1.806 4.142-5.397 10.715-8.998 17.351-10.24 19.45-3.638 36.941 14.903 27.582 33.809-4.711 9.517-11.476 15.313-8.917 26.518.186.816.822 1.12 1.462 1.08.177.293.447.527.916.536 19.625.386 38.827-.633 58.447.828.176.013.334-.013.476-.065 1.837 16.57-.179 33.882-.333 50.539-8.714 3.862-16.11-5.935-23.052-8.781-4.296-1.761-8.946-2.336-13.535-1.479-9.299 1.736-16.637 8.6-19.849 17.408-2.913 7.988-2.658 18.479 4.113 24.513 5.616 5.005 14.938 6.533 21.91 3.652.277.191.645.243 1.053-.003 9.156-5.511 17.744-10.74 28.517-11.253-.014 16.769.218 33.567.868 50.324-19.143-1.716-39.394-2.928-58.504-.495-3.359-10.614 8.227-19.585 3.862-30.174-3.271-7.935-13.251-11.461-21.199-11.404-7.552.054-14.472 3.611-16.347 11.332-2.55 10.495 4.848 20.28 6.996 30.123.276 1.266 2.458 1.014 2.301-.311-.783-6.618-3.803-12.272-5.569-18.607-1.741-6.249-1.642-12.818 4.005-17.232 3.699-2.891 10.695-2.464 14.848-1.344 5.439 1.466 10.399 4.308 12.017 9.953 1.494 5.213-.963 9.372-2.813 14.186-2.05 5.334-3.149 10.127-.503 15.369.516 1.022 1.918.793 2.476.028 19.46 1.235 39.095.733 58.6 1.696 1.05.052 1.526-.743 1.476-1.543.465-.13.851-.503.857-1.142.14-16.96-.154-33.949-.695-50.901-.002-.078-.035-.135-.048-.206 1.013-.665.704-2.546-.819-2.708-10.645-1.134-20.424 4.443-28.809 10.562-.076.02-.135-.018-.214.018-5.373 2.443-10.771 2.69-16.195.742-3.321-3.262-6.642-6.523-9.963-9.784-2.249-4.95-.287-12.447 2.095-17.096 6.525-12.735 20.653-15.596 32.43-8.535 6.749 4.046 13.094 8.497 20.007 4.059.697.78 2.333.502 2.375-.86.288-9.377.424-18.763.585-28.143.137-7.709 1.173-15.719-1.401-23.084z"/><path d="m35.737 145.779c-3.769-.821-7.533-.968-11.377-.67-.649.05-.664 1.053 0 1.023 3.723-.171 7.415.117 11.1.652.645.092.947-.859.277-1.005z"/><path d="m91.13 41.841c-3.765-.488-7.703-.095-11.394.747-.755.172-.411 1.228.311 1.13 3.716-.505 7.342-.555 11.083-.575.863-.005.805-1.198 0-1.302z"/><path d="m105.673 6.701c-7.178-.522-14.271.137-21.345 1.386-.918.162-.511 1.504.381 1.38 6.964-.963 13.943-1.187 20.964-1.26.979-.01.958-1.436 0-1.506z"/></g></svg>