<svg enable-background="new 0 0 100 100" height="88.399002" viewBox="0 0 95.548225 88.399002" width="95.548225" xmlns="http://www.w3.org/2000/svg"><g transform="translate(-2.229858 -5.799)"><path d="m38.296 58.987c.123-.592.245-1.174.348-1.735.62-.088 1.212-.304 1.771-.646.777.863 1.601 1.622 2.453 2.261 1.067.8 2.251 1.479 3.521 2.021-.004.915.414 1.757 1.157 2.303.562.42 1.26.651 1.967.651.934 0 1.753-.395 2.311-1.117.164-.217.299-.469.398-.742.558-1.468-.224-2.707-1.06-3.321-1.192-.888-2.91-.915-3.879.006-1.072-.463-2.073-1.038-2.977-1.714-.751-.562-1.474-1.232-2.153-1.994 1.269-1.939.803-4.108-.262-5.522.782-.705 1.611-1.375 2.461-2.049 1.289.66 3.037.188 3.917-.989.634-.814.875-2.166-.011-3.344-.177-.244-.386-.458-.629-.643-1.315-.954-3.347-.579-4.378.789-.508.677-.656 1.528-.42 2.34-.939.743-1.915 1.533-2.83 2.383-1.109-.482-2.398-.474-3.562.023-.624-1.322-1.133-2.807-1.589-4.252.292-.208.55-.454.772-.741.063-.086.122-.179.197-.298 1.052-1.721.452-3.27-.543-3.976-.585-.434-1.339-.672-2.122-.672-1.182 0-2.268.534-2.978 1.466l-.077.101-.001.01c-.071.101-.138.207-.2.319l-.021-.008-.145.34c-.017.037-.033.074-.048.112l-.192.461.027.011c-.329 1.182.008 2.309.916 2.959.581.419 1.317.633 2.141.639.469 1.482 1.046 3.295 1.878 4.951-.116.121-.233.254-.345.403-.432.577-.711 1.225-.832 1.929-.798.257-1.583.531-2.377.81-.631.222-1.268.444-1.921.662-.246-.424-.557-.776-.904-1.032l-.144-.112c-.133-.093-.273-.177-.418-.252l.008-.021-.3-.116c-.053-.022-.107-.044-.161-.064l-.463-.173-.01.025c-1.182-.286-2.326.11-2.932 1.012-1.069 1.585-.612 3.99.995 5.158.104.069.206.136.304.188 1.489.849 3.165.524 3.954-.671.317-.46.514-1.004.579-1.59.793-.26 1.551-.525 2.291-.784.591-.207 1.17-.41 1.747-.603.336.872.914 1.643 1.659 2.203.323.248.688.453 1.088.613-.099.556-.222 1.159-.363 1.774-.09.427-.184.848-.275 1.256-.205.919-.4 1.792-.51 2.535-.569.3-1.08.727-1.469 1.236-.581.776-.746 1.623-.477 2.348l-.054.039.283.407c.015.021.031.043.046.064l.233.346.041-.028c.104.104.218.203.342.296.57.412 1.261.631 1.997.631 1.1 0 2.176-.505 2.807-1.318.63-.812.702-1.941.189-2.941-.214-.431-.493-.774-.839-1.029-.194-.136-.4-.24-.623-.317.159-.843.4-1.921.646-3.021zm-.504-2.675-.067.395c-.113.664-.259 1.364-.408 2.076l-.064.304c-.279 1.251-.568 2.544-.722 3.456l-.084.502.503.075c.269.041.498.129.689.263.207.152.384.375.53.668.341.665.309 1.367-.087 1.877-.739.951-2.433 1.211-3.422.495-.176-.132-.317-.275-.432-.44l.002-.001c-.425-.629.015-1.346.231-1.636.329-.43.811-.807 1.324-1.035l.258-.115.035-.28c.094-.751.306-1.703.531-2.712.092-.412.187-.836.276-1.259.179-.782.333-1.558.443-2.24l.07-.431-.417-.128c-.452-.138-.852-.339-1.192-.6-.711-.535-1.23-1.306-1.462-2.169l-.136-.508-.5.162c-.742.24-1.483.5-2.243.766-.832.292-1.687.592-2.59.881l-.341.109-.006.358c-.009.52-.16 1.018-.431 1.41-.513.775-1.583.958-2.645.354-.081-.042-.154-.091-.212-.13-1.262-.918-1.431-2.753-.737-3.781.427-.636 1.307-.839 2.216-.486l.036-.093.008.003-.034.092c.212.079.413.181.598.302l.062.044c.394.28.696.658.9 1.124l.181.415.431-.14c.805-.261 1.582-.533 2.349-.802.885-.311 1.757-.616 2.649-.896l.315-.1.033-.328c.066-.659.289-1.235.7-1.787.137-.183.309-.35.484-.518l.274-.262-.178-.334c-.89-1.676-1.5-3.604-1.991-5.154l-.229-.723-.407.044c-.689.076-1.378-.083-1.862-.433-.634-.454-.797-1.329-.414-2.228l-.088-.038.003-.007.088.037c.102-.245.222-.459.358-.638l.043-.061c.52-.653 1.299-1.026 2.146-1.026.57 0 1.112.169 1.535.482.657.466.998 1.465.268 2.658-.047.074-.093.148-.133.204-.215.277-.488.509-.811.69l-.354.198.121.387c.55 1.762 1.17 3.612 1.983 5.213l.234.461.453-.25c1.118-.615 2.384-.642 3.405-.09l.32.173.264-.251c1.046-.998 2.202-1.922 3.296-2.784l.306-.241-.159-.355c-.26-.58-.196-1.217.189-1.734.678-.895 2.092-1.186 2.962-.556.157.12.297.264.422.435.613.814.397 1.659.02 2.143-.661.885-1.983 1.193-2.879.578l-.304-.208-.289.228c-1.046.827-2.151 1.711-3.141 2.635l-.365.341.34.365c1.062 1.143 1.62 3.159.297 4.932l-.275.324.275.323c.802.941 1.667 1.763 2.574 2.443 1.063.794 2.248 1.458 3.521 1.974l.349.141.232-.296c.396-.507.923-.612 1.295-.612.499 0 1.031.184 1.463.506.556.407 1.078 1.219.717 2.168-.068.187-.155.351-.256.484-.36.467-.899.724-1.516.724-.485 0-.983-.165-1.372-.455-.553-.405-.827-1.062-.734-1.758l.051-.386-.36-.145c-1.317-.53-2.539-1.214-3.631-2.032-.902-.676-1.773-1.498-2.588-2.445l-.302-.351-.374.273c-.624.459-1.301.71-2.013.748z"/><path d="m66.966 37.286c.098.071.2.138.302.196 1.464.883 3.146.604 3.973-.568 1.018-1.396.928-3.776-.775-5.048l-.08-.066c-.126-.091-.262-.176-.404-.255l.009-.022-.344-.144c-.036-.016-.071-.031-.108-.046l-.465-.193-.013.03c-1.168-.317-2.327.055-2.951.938-.417.584-.636 1.348-.624 2.143-1.477.479-3.29 1.068-4.94 1.91-.126-.119-.258-.233-.405-.341-.58-.429-1.229-.705-1.935-.821-.261-.793-.539-1.573-.821-2.363-.226-.633-.454-1.272-.677-1.929.44-.261.814-.605 1.13-1.049.093-.13.178-.272.256-.425l.024.009.175-.462c.018-.044.033-.089.049-.134l.126-.337-.026-.01c.281-1.193-.099-2.304-1.031-2.918-.557-.371-1.238-.567-1.972-.567-1.276 0-2.46.591-3.167 1.579-.075.105-.148.224-.193.319-.987 1.755-.33 3.281.69 3.952.454.309 1.01.504 1.594.566.267.799.539 1.562.806 2.306.209.583.413 1.154.607 1.724-.87.342-1.637.924-2.19 1.67-.247.324-.451.69-.609 1.092-.554-.095-1.159-.215-1.778-.352-.446-.091-.885-.186-1.311-.277-.898-.194-1.752-.378-2.483-.482-.301-.564-.729-1.071-1.225-1.448l-.089-.061c-.735-.52-1.589-.676-2.282-.417l-.042-.06-.409.296c-.008.006-.016.011-.023.017l-.385.262.029.042c-.107.107-.207.222-.298.345-1.042 1.466-.705 3.71.723 4.803.807.614 1.949.682 2.939.169.434-.217.778-.5 1.028-.85.134-.193.238-.399.312-.622.808.148 1.829.368 2.821.583l.524.109c.565.114 1.123.226 1.661.321.092.62.312 1.212.657 1.768-.856.779-1.611 1.607-2.247 2.467-.795 1.078-1.466 2.264-1.996 3.532-.001 0-.002 0-.004 0-.916 0-1.752.426-2.295 1.168-.887 1.202-.952 3.177.493 4.273.222.166.474.301.744.397.315.117.638.176.961.176.903 0 1.784-.472 2.354-1.258.818-1.11 1.041-2.781-.029-3.878.456-1.08 1.026-2.084 1.699-2.989.555-.751 1.219-1.478 1.976-2.163 1.685 1.08 3.932.926 5.523-.298.7.769 1.378 1.597 2.062 2.449-.723 1.43-.081 3.103 1.014 3.913.95.73 2.344.729 3.347-.035.246-.183.459-.394.636-.633 1.083-1.512.437-3.435-.815-4.371-.66-.49-1.551-.644-2.346-.406-.777-.969-1.554-1.914-2.397-2.813.483-1.123.465-2.383-.049-3.562 1.319-.633 2.801-1.151 4.242-1.617.211.289.459.545.747.766zm-6.094.868c.628 1.121.67 2.361.114 3.403l-.171.32.252.262c.99 1.029 1.891 2.138 2.802 3.278l.243.305.354-.162c.574-.261 1.233-.192 1.703.156l.077.056c.815.646 1.244 1.931.531 2.927-.114.154-.257.295-.429.422-.663.505-1.527.51-2.144.036-.815-.604-1.275-1.876-.597-2.879l.207-.305-.23-.288c-.876-1.094-1.738-2.156-2.654-3.126l-.343-.363-.363.342c-1.33 1.251-3.354 1.507-4.939.324l-.325-.261-.315.272c-.937.81-1.752 1.68-2.421 2.586-.79 1.063-1.449 2.253-1.957 3.538l-.139.35.298.23c.892.688.73 1.932.125 2.754-.521.718-1.36 1.032-2.167.733-.181-.065-.345-.152-.485-.257-.957-.726-.895-2.061-.289-2.882.354-.483.896-.76 1.489-.76.087 0 .175.006.266.018l.388.051.144-.364c.518-1.314 1.193-2.54 2.008-3.643.673-.91 1.491-1.785 2.431-2.602l.351-.305-.278-.372c-.463-.62-.719-1.295-.761-2.009l-.023-.4-.396-.064c-.641-.104-1.315-.24-2.001-.378l-.512-.106c-1.203-.26-2.448-.528-3.33-.672l-.504-.082-.071.506c-.038.268-.124.496-.257.689-.15.209-.372.388-.665.535-.661.343-1.378.308-1.879-.073-1.018-.78-1.259-2.382-.521-3.419.122-.163.27-.31.442-.436v.001c.45-.306 1.044-.219 1.649.229l.021.014c.421.328.789.797 1.014 1.294l.116.258.281.033c.74.087 1.673.289 2.661.502.429.092.872.188 1.313.278.788.175 1.564.323 2.244.43l.432.067.125-.418c.135-.453.333-.854.594-1.196.521-.702 1.309-1.24 2.158-1.474l.507-.14-.165-.499c-.242-.735-.505-1.468-.774-2.22-.299-.835-.606-1.694-.903-2.603l-.112-.341-.358-.003c-.52-.005-1.019-.152-1.411-.419-.674-.442-1.051-1.427-.361-2.656.035-.071.077-.14.122-.201.52-.728 1.399-1.162 2.354-1.162.527 0 1.031.142 1.42.401.661.436.854 1.283.501 2.21l.091.035-.002.004-.093-.035c-.093.25-.205.47-.334.652l-.083.118c-.269.345-.619.614-1.043.802l-.415.184.143.431c.268.808.545 1.586.82 2.355.313.879.624 1.747.908 2.634l.102.314.329.031c.649.06 1.242.286 1.763.671l.033.019c.18.137.348.307.517.48l.263.271.333-.179c1.661-.894 3.577-1.516 5.117-2.016l.747-.243-.047-.407c-.082-.695.07-1.374.418-1.861.442-.625 1.331-.808 2.226-.43l.039-.092.003.001-.037.091c.212.088.399.188.57.303l.087.061c1.284.964 1.357 2.695.616 3.712-.539.762-1.621.91-2.652.289-.078-.045-.151-.093-.211-.136-.28-.215-.514-.487-.696-.807l-.2-.353-.387.123c-1.757.561-3.604 1.193-5.202 2.017l-.46.237z"/><path d="m79.353 61.212c-1.351-1.017-3.082-.903-4.007.167-.367.408-.637.933-.775 1.503-.832.159-1.627.33-2.403.496-.602.13-1.191.256-1.778.373-.225-.91-.701-1.748-1.368-2.396-.291-.287-.626-.537-1.003-.746.169-.541.368-1.124.585-1.714.14-.401.281-.796.419-1.179.322-.896.628-1.747.833-2.48.596-.223 1.168-.589 1.613-1.043.678-.698.949-1.517.773-2.27l.06-.031-.233-.441c-.007-.012-.013-.023-.019-.034l-.208-.408-.044.023c-.092-.118-.192-.229-.303-.336-.625-.584-1.467-.907-2.37-.907-.953 0-1.856.358-2.477.982-.74.737-.949 1.822-.562 2.895.155.452.388.829.702 1.132.174.158.364.288.577.392-.277.856-.669 1.937-1.022 2.914l-.145.424c-.173.507-.343 1.006-.497 1.49-.626.009-1.243.149-1.84.418-.661-.954-1.382-1.811-2.146-2.551-.957-.928-2.046-1.75-3.24-2.446.121-.91-.186-1.797-.854-2.43-1.167-1.127-3.183-1.21-4.304-.075-.193.198-.36.431-.491.685-.737 1.39-.115 2.717.637 3.428 1.076 1.039 2.771 1.277 3.847.483 1.011.597 1.932 1.293 2.739 2.073.676.652 1.309 1.407 1.885 2.248-1.505 1.766-1.315 3.977-.435 5.514-.861.599-1.768 1.159-2.697 1.722-1.181-.81-2.991-.562-4.014.488-.731.728-1.141 2.039-.407 3.325.156.276.338.514.542.709 1.186 1.116 3.245 1 4.442-.229.59-.607.843-1.435.71-2.27.963-.583 2.045-1.262 3.094-2.019 1.036.623 2.315.781 3.551.434.455 1.4.771 2.935 1.039 4.42-.313.169-.596.378-.845.625-.089.089-.174.187-.248.283-1.259 1.571-.858 3.184.038 4.009.64.614 1.552.967 2.501.967 1.009 0 1.953-.395 2.624-1.081l.119-.1.011-.033c.083-.091.162-.188.237-.288l.025.015.247-.429c.041-.071.079-.142.115-.213l.125-.225-.019-.011c.471-1.135.276-2.295-.54-3.052-.525-.491-1.254-.81-2.043-.902-.28-1.525-.625-3.4-1.24-5.147.127-.102.252-.211.368-.329l.075-.08c.475-.508.815-1.097 1.016-1.757.826-.154 1.643-.329 2.469-.506.651-.14 1.309-.281 1.981-.414.191.452.462.849.803 1.179l.092.09c.122.109.253.212.39.306l-.009.019.315.172c.032.018.064.035.097.052l.017.009c.052.028.103.055.154.079l.294.152.011-.02c.369.141.742.212 1.112.212.757 0 1.437-.302 1.912-.849 1.265-1.442 1.113-3.887-.323-5.229-.092-.089-.193-.172-.287-.237zm-.142 4.808c-.284.326-.695.506-1.159.506-.355 0-.724-.102-1.095-.303l-.047.086-.011-.005.046-.088c-.196-.102-.377-.221-.539-.357l-.071-.065c-.357-.329-.61-.742-.751-1.229l-.127-.437-.446.085c-.83.157-1.632.329-2.426.5-.919.196-1.825.392-2.748.557l-.326.059-.073.322c-.146.636-.447 1.195-.86 1.627l-.118.103-.009.023c-.143.134-.307.258-.474.381l-.308.225.135.355c.665 1.761 1.028 3.739 1.32 5.329l.145.782.409.007c.7.011 1.353.252 1.791.662.58.537.632 1.406.135 2.268l.08.047-.003.007-.086-.048c-.122.218-.268.415-.434.585l-.039.04c-1.002.991-2.785.999-3.732.09-.593-.546-.806-1.578.062-2.662.054-.068.109-.135.168-.193.248-.246.547-.442.888-.582l.373-.153-.07-.396c-.319-1.809-.699-3.717-1.308-5.423l-.174-.487-.48.19c-1.195.472-2.454.336-3.401-.349l-.296-.214-.294.217c-1.216.898-2.506 1.697-3.607 2.359l-.334.201.113.373c.185.608.042 1.232-.407 1.694-.426.437-1.048.697-1.665.697-.36 0-.886-.091-1.346-.523-.131-.125-.252-.285-.36-.478-.505-.886-.186-1.696.248-2.128.766-.786 2.133-.925 2.934-.212l.275.245.316-.19c1.191-.719 2.352-1.429 3.445-2.218l.405-.292-.291-.405c-.912-1.268-1.213-3.34.34-4.948l.287-.287-.222-.339c-.674-1.035-1.43-1.959-2.245-2.747-.95-.917-2.042-1.725-3.245-2.4l-.329-.184-.268.265c-.707.699-1.938.541-2.748-.241-.502-.474-.919-1.344-.442-2.241.087-.168.198-.324.319-.448.444-.45.965-.545 1.323-.545.57 0 1.157.238 1.575.643.495.469.683 1.154.501 1.834l-.1.373.341.189c1.243.691 2.369 1.523 3.349 2.473.81.783 1.568 1.709 2.257 2.752l.256.388.405-.227c.676-.379 1.387-.539 2.091-.49l.4.031.116-.384c.178-.587.387-1.199.6-1.823l.142-.416c.419-1.157.895-2.469 1.175-3.398l.147-.486-.489-.14c-.265-.074-.479-.19-.648-.343-.188-.182-.336-.426-.441-.733-.255-.705-.134-1.398.325-1.855.847-.85 2.557-.895 3.452-.056.152.146.278.311.374.49l-.001.001c.344.675-.186 1.331-.438 1.595-.384.388-.91.702-1.443.86l-.271.081-.07.274c-.189.743-.523 1.671-.877 2.653-.139.387-.281.784-.42 1.181-.275.75-.525 1.499-.723 2.168l-.124.42.399.178c.43.192.801.441 1.106.745.638.619 1.056 1.449 1.179 2.337l.071.521.517-.098c.756-.143 1.514-.306 2.291-.472.871-.188 1.766-.38 2.71-.555l.354-.064.051-.355c.073-.514.286-.987.604-1.342.608-.701 1.699-.747 2.67-.02.068.048.133.102.191.157 1.139 1.065 1.073 2.906.253 3.843z"/><path d="m5.276 44.617c.639 0 1.266-.232 1.811-.668.375-.295.655-.639.837-1.032.093-.217.154-.441.184-.675.874-.016 1.983 0 3.088.016h.274c.596-.001 1.183-.002 1.746-.017.213.583.55 1.126.994 1.601-.684.934-1.259 1.895-1.712 2.864-.564 1.209-.986 2.506-1.256 3.86-.899.18-1.638.76-2.017 1.6-.633 1.352-.306 3.301 1.335 4.095.248.114.519.194.804.239.152.023.3.035.444.035 1.109 0 2.103-.675 2.59-1.757.579-1.251.465-2.933-.8-3.795.232-1.144.59-2.241 1.067-3.265.396-.848.903-1.692 1.511-2.513 1.88.733 4.03.142 5.355-1.387.846.618 1.671 1.292 2.507 1.987-.428 1.543.533 3.055 1.769 3.633 1.083.529 2.439.254 3.278-.7.207-.233.372-.481.494-.743.76-1.701-.255-3.456-1.669-4.128-.733-.339-1.612-.305-2.354.088-.925-.772-1.905-1.57-2.931-2.296.25-1.197-.019-2.428-.756-3.481 1.171-.886 2.521-1.688 3.838-2.428.263.243.554.443.87.597.114.055.232.101.343.138 1.605.576 3.201-.021 3.783-1.342.721-1.568.161-3.882-1.822-4.828l-.109-.049c-.119-.052-.241-.097-.366-.137l.004-.024-.368-.073c-.038-.008-.076-.016-.115-.023l-.488-.095-.006.03c-1.229-.079-2.275.51-2.713 1.503-.293.657-.357 1.449-.187 2.226-1.355.764-3.013 1.701-4.463 2.854-.143-.09-.296-.177-.463-.254-.656-.306-1.351-.449-2.063-.42-.413-.728-.842-1.439-1.277-2.159-.346-.573-.695-1.152-1.042-1.749.35-.315.628-.684.832-1.101l.075-.157c.062-.148.116-.303.161-.463l.023.003.08-.486c.01-.061.018-.122.025-.182l.047-.316-.023-.003c.037-1.223-.556-2.237-1.59-2.659-.393-.159-.822-.24-1.274-.24-1.529 0-2.961.906-3.566 2.261-.052.12-.101.246-.124.344-.619 1.915.328 3.279 1.461 3.734.509.214 1.085.299 1.677.241.419.73.838 1.422 1.246 2.098.32.53.634 1.05.938 1.57-.786.509-1.421 1.231-1.815 2.073-.178.369-.306.768-.38 1.192-.579.018-1.18.019-1.81.007-.451 0-.896-.006-1.327-.011-.939-.011-1.813-.02-2.545.022-.396-.479-.912-.891-1.452-1.156l-.061-.03c-1.031-.479-2.108-.367-2.786.332-.218.234-.395.497-.527.784-.737 1.646.037 3.777 1.656 4.562.346.167.72.253 1.11.253zm-1.856-4.403c.085-.186.202-.359.34-.507.374-.385 1.08-.367 1.574-.152l.079.044c.491.234.958.628 1.283 1.082l.165.23.283-.024c.755-.062 1.7-.049 2.723-.038.435.005.883.011 1.328.011.777.015 1.567.009 2.285-.023l.437-.02.039-.436c.042-.468.156-.9.345-1.29.37-.792 1.034-1.476 1.821-1.874l.469-.238-.261-.457c-.384-.672-.786-1.338-1.199-2.022-.458-.759-.93-1.54-1.401-2.371l-.177-.312-.353.07c-.508.097-1.03.053-1.469-.132-.748-.3-1.314-1.19-.88-2.536.02-.078.05-.151.078-.216.513-1.148 1.701-1.663 2.65-1.663.323 0 .625.056.897.167.723.295 1.089 1.108.931 2.071l.095.016-.001.008-.097-.015c-.034.231-.091.448-.17.648l-.032.069c-.193.442-.501.815-.916 1.11l-.369.263.225.393c.42.736.846 1.441 1.267 2.138.484.801.961 1.592 1.417 2.408l.162.289.329-.036c.627-.065 1.265.029 1.894.319.208.097.405.231.604.369l.312.215.292-.243c1.46-1.215 3.225-2.21 4.643-3.009l.659-.372-.128-.39c-.218-.666-.204-1.36.041-1.909.311-.705 1.115-1.06 2.097-.863l.019-.095.006.001-.018.093c.239.046.454.112.655.201l.097.074h.058c1.372.719 1.757 2.35 1.244 3.466-.381.864-1.389 1.222-2.543.808-.08-.027-.159-.056-.233-.092-.313-.153-.596-.372-.84-.65l-.267-.305-.353.197c-1.608.896-3.291 1.881-4.7 3.011l-.404.324.338.392c.837.972 1.125 2.18.788 3.312l-.103.348.299.206c1.198.825 2.346 1.772 3.418 2.67l.297.249.315-.225c.52-.371 1.114-.473 1.719-.185.951.45 1.659 1.646 1.148 2.789-.078.167-.189.333-.333.496-.463.527-.982.637-1.336.637-.259 0-.519-.06-.76-.178-.92-.43-1.624-1.585-1.155-2.7l.143-.341-.284-.237c-1.069-.893-2.12-1.758-3.221-2.534l-.408-.287-.288.407c-.749 1.055-1.926 1.686-3.151 1.686-.532 0-1.059-.119-1.637-.393l-.366-.18-.25.322c-.759.979-1.386 1.994-1.864 3.018-.56 1.204-.967 2.5-1.21 3.853l-.066.37.337.166c1.01.498 1.1 1.749.669 2.679-.283.63-.97 1.304-1.97 1.148-.194-.03-.375-.084-.531-.155-1.083-.524-1.288-1.845-.854-2.772.281-.624.867-1.024 1.567-1.071l.39-.026.068-.385c.249-1.398.667-2.734 1.245-3.972.48-1.026 1.108-2.046 1.866-3.033l.283-.368-.346-.309c-.577-.516-.962-1.127-1.144-1.817l-.102-.387-.4.015c-.667.025-1.374.026-2.092.028h-.266c-1.319-.02-2.665-.039-3.598-.001l-.51.02.031.51c.016.271-.023.511-.114.724-.11.237-.292.458-.546.657-.369.295-.779.451-1.188.451-.237 0-.464-.051-.674-.153-1.027-.496-1.749-1.992-1.186-3.249z"/><path d="m53.932 74.7c-.985-.273-2.062.089-2.793.941-.315.357-.528.746-.636 1.169-.052.229-.071.459-.057.695-.859.178-1.961.367-3.038.553l-.294.055c-.576.107-1.144.213-1.686.328-.316-.54-.742-1.007-1.271-1.394.503-1.045.892-2.095 1.157-3.127.333-1.288.511-2.64.529-4.022.849-.34 1.47-1.046 1.691-1.945.374-1.445-.305-3.301-2.064-3.781-.235-.058-.481-.087-.731-.087l-.102.001c-1.472.041-2.4 1.16-2.666 2.245-.344 1.337.073 2.97 1.479 3.585-.02 1.174-.173 2.318-.454 3.407-.236.912-.58 1.834-1.024 2.746-1.989-.377-3.98.591-5.011 2.344-.921-.441-1.84-.943-2.829-1.496.135-1.596-1.086-2.905-2.405-3.248-1.176-.325-2.436.188-3.091 1.285-.16.262-.278.538-.351.824-.439 1.809.88 3.352 2.391 3.75.784.206 1.642.011 2.301-.515 1.053.591 2.164 1.196 3.304 1.722-.027 1.222.461 2.384 1.379 3.285-1.019 1.116-2.225 2.164-3.329 3.088-.303-.19-.63-.336-.986-.434-.117-.026-.235-.052-.343-.067-1.774-.279-3.136.581-3.472 2.014-.414 1.643.517 3.765 2.557 4.378l.138.04c.165.042.338.074.517.095l.499.028c.033 0 .065 0 .098-.001l.362.002v-.028c1.216-.149 2.131-.893 2.387-1.976.167-.699.084-1.489-.225-2.221 1.189-.998 2.649-2.224 3.865-3.622.157.061.324.118.506.165.698.181 1.406.192 2.102.036.535.634 1.083 1.25 1.636 1.873.449.505.902 1.016 1.357 1.544-.318.415-.537.877-.654 1.38l-.013.062c-.031.144-.053.293-.066.446l-.024.001.01.449v.013.028c0 .025.001.051.002.075l.013.424.028-.001c.187 1.214.956 2.104 2.049 2.322.209.044.427.065.648.065 1.731 0 3.339-1.258 3.739-2.925.031-.13.051-.26.06-.37.258-1.995-.922-3.164-2.117-3.403-.54-.119-1.129-.094-1.693.069-.546-.641-1.083-1.245-1.608-1.835-.412-.462-.816-.916-1.21-1.372.68-.646 1.172-1.474 1.405-2.372.108-.395.16-.811.156-1.24.549-.119 1.154-.235 1.777-.34.415-.076.824-.146 1.222-.215.944-.162 1.842-.317 2.583-.501.458.382 1.01.683 1.561.848l.059.057h.146c.253.06.504.091.748.091.801 0 1.462-.332 1.867-.941.162-.254.288-.542.378-.87.421-1.751-.731-3.703-2.463-4.179zm1.495 3.93c-.06.219-.143.409-.247.574-.215.322-.562.486-1.029.486-.145 0-.294-.017-.447-.048l-.19-.049c-.501-.145-1.007-.438-1.397-.811l-.205-.195-.272.074c-.741.202-1.719.37-2.754.549-.401.069-.814.14-1.225.215-.795.134-1.57.287-2.239.442l-.426.1.042.436c.044.468.01.913-.104 1.331-.223.857-.737 1.631-1.448 2.178l-.416.319.339.4c.5.591 1.018 1.173 1.549 1.769.589.662 1.195 1.343 1.81 2.074l.231.273.333-.13c.484-.188.989-.241 1.467-.139.79.158 1.508.93 1.329 2.319-.006.081-.018.16-.038.24-.37 1.54-2.019 2.362-3.216 2.115-.763-.153-1.27-.884-1.291-1.862l-.097.002v-.008l.097-.003c-.007-.241.011-.471.055-.683l.025-.112c.114-.447.345-.853.686-1.205l.314-.326-.292-.345c-.552-.651-1.104-1.272-1.649-1.886-.618-.695-1.227-1.381-1.82-2.093l-.212-.251-.316.096c-.625.186-1.222.205-1.921.031-.219-.058-.44-.151-.664-.251l-.346-.153-.242.291c-1.205 1.451-2.748 2.745-3.987 3.785l-.603.507.196.358c.335.615.448 1.301.309 1.884-.18.762-.898 1.234-1.904 1.234l-.001.096h-.005l.001-.098c-.226-.001-.439-.024-.666-.073l-.077-.021c-1.553-.413-2.269-1.988-1.961-3.209.186-.791.914-1.303 1.856-1.303.155 0 .317.014.495.042.09.013.182.032.248.047.339.095.657.258.945.486l.318.253.312-.26c1.33-1.106 2.851-2.404 4.068-3.818l.338-.392-.404-.324c-1.001-.805-1.504-1.939-1.38-3.114l.039-.362-.333-.147c-1.327-.59-2.63-1.312-3.852-2l-.338-.19-.269.28c-.344.358-.782.556-1.234.556-.129 0-.258-.017-.416-.056-1.023-.271-1.926-1.357-1.641-2.534.047-.185.126-.368.237-.55.427-.715 1.196-1.055 1.975-.836.982.255 1.885 1.263 1.631 2.446l-.078.36.322.181c1.28.717 2.437 1.354 3.631 1.901l.453.207.209-.452c.645-1.394 1.997-2.294 3.445-2.294.314 0 .634.041 1.028.146l.391.107.187-.36c.564-1.092.995-2.204 1.278-3.305.331-1.279.496-2.629.488-4.012l-.002-.377-.364-.102c-1.085-.303-1.4-1.515-1.145-2.508.164-.67.713-1.461 1.797-1.49.169 0 .335.02.479.055 1.16.316 1.602 1.577 1.346 2.568-.165.669-.668 1.171-1.345 1.344l-.379.097.003.392c.011 1.423-.157 2.812-.499 4.132-.281 1.093-.71 2.21-1.277 3.32l-.211.414.397.241c.663.401 1.152.933 1.457 1.577l.171.364.392-.09c.64-.146 1.324-.273 2.021-.402l.288-.054c1.284-.221 2.612-.449 3.539-.661l.497-.113-.123-.495c-.066-.265-.072-.508-.022-.729.065-.255.204-.504.419-.747.483-.564 1.152-.809 1.771-.634 1.218.335 2.056 1.756 1.765 2.968z"/><path d="m32.106 21.246c.206.054.419.081.634.081.603 0 1.183-.209 1.667-.597 1.088.61 2.167 1.199 3.302 1.723-.027 1.223.462 2.384 1.379 3.285-.984 1.079-2.165 2.116-3.328 3.09-.306-.193-.633-.338-.982-.434-.108-.026-.225-.048-.351-.071-1.752-.282-3.143.606-3.467 2.016-.405 1.597.463 3.649 2.437 4.336l.262.087c.171.041.339.071.507.09l.501.026h.062l.401-.001v-.026c1.216-.15 2.129-.892 2.384-1.974.167-.699.084-1.49-.224-2.222 1.191-.998 2.649-2.222 3.865-3.621.15.06.309.116.47.158l.042.006c.693.179 1.397.192 2.093.036.537.637 1.087 1.255 1.643 1.88.447.503.899 1.011 1.352 1.538-.309.403-.524.851-.643 1.336l-.016.063c-.035.157-.061.319-.075.487l-.025.001.01.452v.016.024c0 .023.001.046.002.069l.012.429h.029c.187 1.211.956 2.101 2.049 2.325.209.043.427.065.647.065 1.729 0 3.336-1.259 3.74-2.93.029-.121.051-.247.065-.371.25-1.994-.93-3.161-2.122-3.4-.54-.119-1.13-.093-1.694.069-.542-.636-1.076-1.236-1.598-1.822-.416-.467-.823-.925-1.221-1.385.679-.644 1.17-1.471 1.403-2.373.107-.395.16-.81.156-1.237.544-.119 1.15-.234 1.779-.339.437-.081.868-.155 1.287-.228.918-.159 1.791-.311 2.516-.49.451.379.986.672 1.552.845l.153.047c.909.233 1.788.065 2.351-.454l.062.039.268-.424c.017-.026.032-.052.047-.078l.222-.336-.039-.025c.059-.137.107-.28.146-.429.419-1.748-.732-3.702-2.464-4.182-.986-.273-2.063.09-2.795.943-.313.358-.525.746-.634 1.169-.051.23-.069.461-.056.697-.858.176-1.961.364-3.04.548l-.282.053c-.58.109-1.153.217-1.7.333-.315-.538-.74-1.004-1.27-1.392.505-1.049.894-2.101 1.157-3.13.334-1.292.512-2.645.529-4.026.851-.341 1.471-1.046 1.692-1.943.375-1.444-.303-3.299-2.058-3.779-.234-.06-.477-.09-.721-.09l-.12.002c-1.57.049-2.417 1.243-2.664 2.244-.345 1.339.073 2.974 1.479 3.589-.019 1.165-.171 2.309-.455 3.405-.234.908-.577 1.83-1.021 2.745-1.988-.377-3.983.59-5.012 2.345-.956-.459-1.913-.983-2.828-1.497.136-1.597-1.086-2.907-2.405-3.248-1.179-.33-2.44.187-3.093 1.285-.161.264-.278.539-.351.824-.435 1.817.887 3.356 2.4 3.753zm-1.425-3.506c.047-.182.125-.366.237-.549.426-.716 1.19-1.053 1.978-.836.982.254 1.885 1.261 1.63 2.445l-.078.36.321.181c1.159.653 2.394 1.337 3.63 1.904l.454.208.21-.453c.643-1.395 1.994-2.296 3.442-2.296.314 0 .634.041 1.024.147l.395.114.188-.365c.565-1.097.995-2.209 1.278-3.306.332-1.289.497-2.638.488-4.009l-.002-.377-.363-.102c-1.087-.304-1.402-1.519-1.146-2.512.165-.667.715-1.458 1.814-1.491.16 0 .319.02.465.057 1.16.317 1.602 1.576 1.345 2.567-.164.667-.667 1.168-1.346 1.342l-.378.097.003.391c.012 1.421-.156 2.812-.499 4.134-.279 1.089-.709 2.208-1.277 3.324l-.21.413.396.241c.664.404 1.153.935 1.456 1.577l.171.363.392-.088c.646-.146 1.337-.276 2.039-.408l.273-.052c1.285-.219 2.613-.445 3.539-.655l.498-.113-.123-.495c-.065-.266-.072-.511-.022-.734.064-.254.204-.503.417-.746.483-.564 1.16-.805 1.771-.635 1.236.342 2.058 1.737 1.762 2.973-.054.202-.137.395-.248.572l-.002-.002c-.28.424-.837.575-1.485.437l-.116-.031c-.524-.14-1.056-.442-1.46-.829l-.204-.196-.273.075c-.726.198-1.679.363-2.689.538-.422.073-.857.148-1.289.229-.803.134-1.578.287-2.241.442l-.425.1.042.435c.044.465.01.909-.104 1.328-.219.849-.746 1.642-1.446 2.176l-.417.319.34.401c.503.594 1.025 1.181 1.56 1.782.586.659 1.188 1.335 1.8 2.062l.23.273.333-.13c.484-.188.993-.243 1.469-.139.788.158 1.506.93 1.334 2.301-.01.088-.025.176-.045.258-.373 1.542-2.033 2.359-3.213 2.119-.776-.159-1.271-.874-1.293-1.866l-.099.002.099-.01c-.007-.241.011-.47.054-.68l.028-.118c.114-.447.343-.851.684-1.203l.314-.326-.292-.345c-.551-.65-1.101-1.269-1.645-1.88-.619-.696-1.23-1.384-1.826-2.099l-.211-.254-.316.095c-.626.187-1.225.202-1.916.034-.221-.059-.443-.154-.666-.252l-.349-.154-.242.291c-1.211 1.459-2.76 2.757-4.005 3.799l-.586.492.196.359c.336.615.449 1.301.309 1.884-.179.761-.897 1.233-1.905 1.233l-.001.101-.016-.101c-.147 0-.295-.011-.445-.034l-.283-.058c-1.555-.416-2.27-1.991-1.96-3.213.211-.919 1.204-1.445 2.329-1.265.096.017.193.035.268.053.335.093.655.257.949.488l.317.25.311-.258c1.421-1.181 2.897-2.46 4.067-3.82l.338-.392-.404-.324c-1.001-.803-1.504-1.938-1.38-3.113l.038-.361-.331-.148c-1.323-.591-2.576-1.285-3.851-2.002l-.337-.19-.269.28c-.344.358-.783.556-1.237.556-.13 0-.259-.017-.417-.059-1.024-.268-1.927-1.35-1.642-2.528z"/><path d="m95.899 42.604c-.11-.065-.227-.124-.338-.168-1.558-.693-3.191-.22-3.87 1.051-.266.481-.411 1.052-.42 1.638-.77.337-1.501.677-2.216 1.009-.563.262-1.115.519-1.668.765-.421-.839-1.071-1.549-1.864-2.03-.348-.217-.73-.387-1.143-.507.043-.555.106-1.167.187-1.799.048-.424.099-.842.148-1.248.116-.945.228-1.843.265-2.602.485-.321.928-.757 1.273-1.281l.07-.094c.502-.828.584-1.685.247-2.38l.056-.048-.33-.38c-.021-.023-.04-.045-.061-.068l-.258-.31-.037.031c-.114-.094-.236-.182-.37-.263-.504-.294-1.09-.45-1.695-.45-1.221 0-2.405.629-3.017 1.604-.557.884-.52 1.987.094 2.941.248.405.56.722.938.95.205.116.421.2.651.255-.08.894-.223 2.035-.352 3.067l-.03.282c-.064.589-.127 1.169-.174 1.728-.602.148-1.178.424-1.697.814-.857-.785-1.751-1.462-2.662-2.017-1.141-.69-2.384-1.249-3.701-1.664-.081-.913-.576-1.711-1.37-2.183-.501-.303-1.105-.47-1.703-.47-1.059 0-1.972.49-2.511 1.353-.142.233-.251.496-.325.776-.386 1.423.417 2.635 1.378 3.201.548.333 1.191.516 1.813.516.832 0 1.546-.315 2.046-.896 1.118.357 2.169.833 3.129 1.415.801.486 1.585 1.082 2.336 1.774-1.076 2.054-.401 4.169.799 5.475-.715.783-1.493 1.548-2.248 2.275-1.342-.528-3.034.096-3.809 1.366-.549.87-.655 2.239.341 3.33.203.229.432.421.686.574 1.412.833 3.388.257 4.281-1.209.44-.723.505-1.585.191-2.37.892-.858 1.761-1.716 2.584-2.646 1.139.368 2.425.238 3.543-.371.751 1.261 1.401 2.688 1.994 4.078-.269.233-.5.502-.69.803-.064.105-.128.223-.172.324-.881 1.817-.133 3.3.927 3.903.524.314 1.148.481 1.803.481 1.315 0 2.509-.661 3.176-1.742l.101-.14v-.028c.054-.098.104-.2.151-.308l.028.009.147-.475c.019-.062.036-.123.053-.184l.09-.296-.024-.008c.208-1.21-.237-2.298-1.201-2.854-.619-.362-1.404-.516-2.191-.429-.612-1.428-1.363-3.179-2.352-4.746.109-.139.208-.277.303-.433.374-.618.59-1.291.641-2.004.769-.332 1.522-.682 2.284-1.035.607-.282 1.221-.566 1.851-.846.293.405.652.737 1.074.991l.079.047.018.009.085.045c.108.056.222.108.34.155l-.007.026.473.132c.034.01.067.019.102.027l.383.106.008-.029c.159.022.316.034.471.034 1.021 0 1.896-.495 2.343-1.322.911-1.683.223-4.033-1.475-5.027zm.592 4.554c-.366.679-1.212.961-2.156.698l-.026.094-.004-.001.025-.095c-.225-.062-.433-.143-.619-.239l-.1-.108h-.085c-.367-.236-.668-.561-.895-.966l-.221-.396-.415.181c-.777.338-1.524.685-2.263 1.028-.85.394-1.688.782-2.547 1.147l-.305.129v.331c-.001.653-.172 1.266-.457 1.75l-.064.095c-.119.193-.275.381-.434.565l-.245.286.208.315c1.044 1.574 1.838 3.428 2.477 4.918l.307.715.4-.084c.681-.142 1.377-.053 1.893.25.674.39.922 1.245.631 2.181l.093.028-.001.003-.097-.029c-.078.255-.177.481-.294.673l-.028.046c-.505.789-1.369 1.26-2.321 1.26-.474 0-.919-.117-1.298-.345-.7-.398-1.136-1.358-.523-2.622.034-.076.074-.152.111-.213.188-.297.437-.554.738-.764l.333-.231-.157-.373c-.716-1.695-1.512-3.475-2.479-4.997l-.277-.437-.427.293c-1.049.718-2.312.868-3.381.421l-.334-.141-.237.274c-.942 1.09-1.961 2.083-3.01 3.09l-.28.269.192.339c.314.553.312 1.193-.021 1.744-.588.962-1.964 1.39-2.898.84-.16-.097-.315-.228-.455-.385-.689-.756-.56-1.618-.234-2.135.574-.94 1.873-1.374 2.816-.855l.322.177.266-.255c.958-.92 1.97-1.903 2.868-2.926l.33-.374-.374-.33c-1.17-1.036-1.922-2.992-.774-4.882l.242-.349-.306-.295c-.891-.86-1.832-1.594-2.799-2.181-1.128-.685-2.372-1.23-3.696-1.621l-.36-.106-.202.317c-.395.617-.998.746-1.436.746-.441 0-.901-.131-1.3-.374-.593-.35-1.191-1.104-.926-2.084.051-.192.123-.367.211-.512.349-.557.953-.876 1.659-.876.418 0 .839.115 1.189.328.588.349.922.977.894 1.678l-.016.39.375.11c1.364.399 2.647.959 3.813 1.665.964.587 1.91 1.323 2.813 2.188l.335.321.346-.311c.575-.519 1.224-.834 1.928-.94l.396-.06.028-.4c.046-.661.122-1.36.199-2.071l.029-.274c.153-1.225.326-2.613.394-3.576l.035-.508-.509-.026c-.273-.014-.51-.079-.709-.191-.227-.137-.425-.342-.594-.618-.404-.628-.439-1.33-.095-1.878.433-.689 1.285-1.135 2.17-1.135.428 0 .84.108 1.182.309.185.112.341.243.478.399l-.003.002c.481.58.124 1.328-.059 1.632l-.012.02c-.286.462-.729.885-1.217 1.16l-.246.14-.008.283c-.02.765-.14 1.744-.268 2.78-.05.409-.102.831-.149 1.251-.102.809-.179 1.595-.222 2.272l-.027.438.43.085c.459.09.875.251 1.244.482.757.458 1.349 1.174 1.665 2.014l.186.492.481-.209c.712-.309 1.42-.638 2.146-.976.802-.373 1.626-.755 2.502-1.133l.329-.142-.029-.357c-.041-.517.061-1.028.29-1.444.439-.82 1.479-1.107 2.601-.608.079.032.15.068.222.11 1.35.782 1.695 2.593 1.102 3.686z"/><path d="m61.729 19.71c.478-.069.893-.229 1.24-.482.187-.141.351-.306.493-.494.766.418 1.73.987 2.675 1.544l.142.081c.55.315 1.093.626 1.62.91-.106.617-.084 1.248.068 1.882-1.065.476-2.042 1.026-2.906 1.639-1.088.764-2.099 1.681-3.009 2.728-.861-.289-1.81-.141-2.542.386-1.223.863-1.906 2.717-.876 4.216.162.229.36.435.583.608.989.791 2.431.772 3.486.013 1.127-.798 1.863-2.315 1.19-3.693.776-.885 1.632-1.659 2.548-2.302.762-.539 1.621-1.021 2.557-1.434.9 1.108 2.22 1.738 3.663 1.738.566 0 1.137-.098 1.674-.285.437.976.826 1.99 1.189 2.967-1.136 1.129-1.052 2.92-.266 4.036.504.742 1.338 1.184 2.229 1.184.32 0 .645-.056.956-.164.29-.096.558-.229.806-.401 1.505-1.099 1.492-3.128.663-4.298l-.064-.109c-.479-.68-1.258-1.095-2.099-1.122-.434-1.162-.874-2.301-1.395-3.424.811-.916 1.188-2.119 1.071-3.399 1.418-.181 2.911-.204 3.953-.204.197 0 .393.001.583.002.108.344.264.665.466.961.068.096.146.191.226.282.674.784 1.527 1.216 2.405 1.216.563 0 1.1-.177 1.542-.507 1.373-.984 2.035-3.192.896-4.973l-.094-.143c-.094-.13-.195-.256-.306-.375l.018-.02-.375-.325c-.04-.035-.08-.069-.121-.102l-.262-.222-.017.02c-1.008-.665-2.238-.674-3.098-.037-.58.424-1.029 1.08-1.268 1.84l-.879-.003c-1.341 0-2.896.033-4.411.265-.08-.15-.171-.302-.278-.453-.416-.589-.946-1.054-1.58-1.386.002-.832-.018-1.656-.037-2.491-.016-.675-.032-1.356-.037-2.053.512-.111.982-.325 1.415-.645.128-.099.249-.205.363-.317l.019.014.311-.382c.05-.062.098-.125.144-.188l.165-.212-.016-.012c.64-1.043.63-2.216-.06-3.094-.661-.841-1.802-1.363-2.977-1.363-.819 0-1.588.245-2.216.704-.107.076-.21.166-.293.248-1.485 1.355-1.341 3.01-.583 3.966.331.436.797.797 1.334 1.042.002.831.021 1.629.041 2.41.015.63.03 1.248.035 1.861-.936.053-1.853.369-2.604.899-.339.233-.646.516-.92.844-.505-.269-1.041-.573-1.576-.894-.383-.22-.758-.44-1.122-.654-.806-.475-1.572-.926-2.242-1.258-.106-.606-.348-1.217-.682-1.717l-.087-.209-.078-.016c-.654-.821-1.494-1.199-2.457-.935-.305.094-.589.234-.851.421-1.454 1.063-1.84 3.298-.827 4.782.58.849 1.63 1.269 2.742 1.088zm-1.33-5.059c.171-.122.358-.213.551-.272.703-.203 1.292.452 1.478.716l.074.105c.275.435.461.968.515 1.48l.029.282.256.12c.683.318 1.52.811 2.405 1.332.367.216.745.438 1.122.655.679.408 1.37.793 1.997 1.115l.391.2.249-.36c.265-.382.578-.7.938-.947.665-.47 1.487-.728 2.315-.728l.718.031.001-.525c.001-.784-.019-1.574-.038-2.383-.021-.877-.043-1.778-.04-2.722l.001-.357-.338-.117c-.494-.17-.921-.467-1.208-.844-.5-.632-.55-1.686.479-2.625.058-.056.119-.112.19-.162 1.13-.826 3.019-.561 3.822.465.482.613.395 1.499-.222 2.256l.079.065-.007.008-.082-.063c-.147.191-.322.364-.528.52-.386.287-.838.458-1.344.508l-.451.044v.453c0 .854.02 1.684.038 2.504.022.93.044 1.847.035 2.776l-.003.331.303.132c.599.262 1.092.663 1.484 1.218.128.18.241.404.344.619l.164.342.374-.066c1.552-.273 3.199-.31 4.605-.31l1.672.007.082-.401c.143-.687.5-1.283.985-1.637.612-.455 1.514-.348 2.25.291l.062-.073.005.003-.061.073c.171.146.324.306.447.469l.056.08c.917 1.317.444 2.984-.581 3.719-.74.55-1.83.341-2.601-.555-.061-.07-.119-.141-.164-.203-.195-.286-.331-.616-.405-.982l-.08-.396-.404-.004c-.315-.003-.643-.006-.978-.006-1.195 0-2.973.029-4.597.285l-.512.081.099.509c.245 1.261-.104 2.452-.96 3.27l-.262.25.156.327c.621 1.294 1.127 2.627 1.634 3.993l.136.366.388-.042c.644-.071 1.217.186 1.587.714.606.867.596 2.278-.38 2.99-.159.111-.34.2-.545.268-.785.275-1.601.008-2.043-.641-.585-.831-.623-2.185.337-2.922l.292-.225-.128-.346c-.458-1.237-.954-2.549-1.538-3.796l-.212-.452-.452.21c-.535.249-1.13.38-1.719.38-1.239 0-2.318-.557-3.012-1.522l-.296-.45-.372.154c-1.146.475-2.196 1.046-3.116 1.697-1.076.756-2.073 1.679-2.965 2.741l-.243.289.212.312c.632.934.088 2.064-.747 2.656-.712.511-1.621.547-2.286.016-.15-.118-.28-.252-.382-.396-.681-.99-.202-2.238.635-2.829.55-.394 1.259-.458 1.891-.152l.203-.418.395.295c.916-1.099 1.945-2.052 3.06-2.835.916-.649 1.968-1.225 3.125-1.71l.428-.179-.146-.44c-.244-.732-.275-1.454-.092-2.145l.103-.387-.354-.185c-.621-.323-1.268-.694-1.924-1.07l-.139-.08c-1.124-.663-2.287-1.349-3.122-1.784l-.452-.236-.227.458c-.119.242-.272.431-.462.574-.205.149-.478.251-.797.298-.754.12-1.404-.137-1.764-.663-.642-.939-.525-2.597.584-3.409z"/><path d="m30.894 68.148c1.232-1.466 1.03-3.905-.439-5.228-.095-.082-.196-.161-.288-.222-1.374-.986-3.101-.843-4.003.246-.358.415-.617.945-.744 1.521-.821.176-1.605.36-2.372.542-.604.143-1.197.283-1.787.413-.244-.906-.738-1.732-1.42-2.365-.297-.282-.638-.525-1.017-.725.157-.546.344-1.134.548-1.728.136-.421.275-.835.41-1.237.296-.883.578-1.723.765-2.447.542-.216 1.06-.551 1.468-.949l.128-.129c.794-.861.995-1.888.534-2.752-.145-.263-.337-.51-.585-.747-1.312-1.172-3.657-1.061-4.848.182-.721.754-.907 1.843-.5 2.906.167.45.408.821.727 1.114.178.155.372.281.585.381-.264.876-.644 1.997-.96 2.933l-.096.299c-.178.555-.353 1.102-.509 1.63-.625.022-1.238.176-1.829.457-.677-.936-1.417-1.777-2.202-2.508-.976-.905-2.081-1.704-3.289-2.378.105-.909-.22-1.79-.904-2.414-1.188-1.1-3.202-1.14-4.307.017-.183.198-.342.433-.472.694-.584 1.155-.305 2.497.708 3.414 1.091 1.014 2.795 1.219 3.854.403 1.013.568 1.947 1.246 2.781 2.016.69.642 1.339 1.383 1.932 2.209-1.466 1.797-1.23 4.004-.319 5.522-.854.621-1.772 1.215-2.662 1.776-1.199-.785-3-.502-4.001.571-.717.745-1.1 2.065-.342 3.329.149.26.334.494.559.704 1.207 1.086 3.26.928 4.437-.324.577-.62.812-1.451.663-2.282 1.048-.664 2.073-1.331 3.063-2.074 1.048.596 2.328.726 3.546.35.481 1.381.832 2.912 1.134 4.396-.316.178-.598.396-.846.656-.079.086-.159.182-.229.275-1.225 1.599-.791 3.203.123 4.012.631.58 1.521.912 2.44.912 1.039 0 2.003-.415 2.73-1.185.109-.119.21-.245.305-.377l.026.014.239-.434c.026-.048.052-.096.076-.145l.162-.298-.024-.013c.445-1.142.228-2.298-.604-3.04-.53-.477-1.259-.779-2.06-.856-.312-1.521-.696-3.388-1.349-5.124.125-.105.256-.227.386-.364.492-.53.838-1.146 1.032-1.834.81-.169 1.61-.357 2.419-.548.66-.155 1.327-.312 2.01-.462.206.458.493.858.859 1.192l.065.062c.124.105.256.203.394.293l-.01.02.3.155c.043.023.087.046.131.068l.448.225.012-.025c.354.128.71.192 1.063.192.773.003 1.487-.322 1.955-.887zm-3.019-.391-.045.088-.01-.005.044-.088c-.199-.1-.391-.223-.561-.358l-.059-.053c-.361-.32-.623-.729-.777-1.215l-.137-.431-.443.093c-.838.176-1.649.367-2.45.556-.902.213-1.792.423-2.699.605l-.325.065-.066.324c-.131.638-.422 1.203-.881 1.701-.157.165-.345.317-.539.465l-.303.23.142.354c.705 1.753 1.11 3.728 1.435 5.313l.18.765h.407c.692 0 1.342.227 1.782.622.592.528.662 1.397.182 2.268l.085.047-.001.003-.087-.048c-.12.221-.264.423-.433.607-.521.551-1.227.854-1.988.854-.672 0-1.315-.236-1.771-.654-.604-.535-.838-1.565.006-2.667.054-.073.113-.143.163-.196.239-.25.535-.453.88-.604l.37-.16-.079-.396c-.362-1.81-.785-3.716-1.424-5.394l-.184-.484-.478.201c-1.179.495-2.438.392-3.396-.267l-.3-.206-.289.222c-1.137.876-2.337 1.646-3.57 2.425l-.326.21.121.37c.197.603.066 1.229-.372 1.702-.43.458-1.066.731-1.7.731-.347 0-.856-.086-1.303-.488-.145-.136-.269-.293-.374-.475-.524-.874-.219-1.693.206-2.136.747-.801 2.11-.968 2.926-.272l.28.239.312-.196c1.128-.71 2.32-1.472 3.401-2.288l.397-.301-.299-.398c-.937-1.249-1.28-3.315.225-4.943l.3-.293-.236-.347c-.694-1.017-1.469-1.926-2.303-2.7-.98-.905-2.089-1.69-3.294-2.331l-.332-.177-.262.27c-.692.713-1.928.579-2.751-.184-.511-.464-.947-1.325-.489-2.23.089-.18.194-.336.306-.457.452-.473.989-.572 1.36-.572.554 0 1.13.227 1.542.607.508.463.709 1.145.54 1.823l-.095.379.345.184c1.257.668 2.401 1.477 3.398 2.402.833.774 1.612 1.686 2.316 2.707l.264.383.401-.236c.667-.391 1.372-.568 2.079-.533l.401.022.108-.387c.176-.63.388-1.29.604-1.962l.093-.291c.375-1.106.841-2.484 1.104-3.423l.138-.492-.495-.127c-.264-.067-.481-.178-.655-.329-.191-.176-.344-.417-.458-.722-.268-.699-.161-1.395.286-1.862.826-.862 2.556-.933 3.447-.14.162.156.292.322.385.49.312.585-.036 1.168-.288 1.479l-.122.138c-.373.392-.889.713-1.416.883l-.27.086-.064.276c-.171.734-.479 1.651-.805 2.622-.136.404-.276.822-.41 1.238-.26.754-.494 1.509-.678 2.184l-.115.423.404.17c.43.181.806.422 1.122.721.641.596 1.088 1.437 1.227 2.309l.083.52.514-.108c.759-.159 1.519-.339 2.298-.523.86-.203 1.745-.412 2.678-.605l.351-.072.044-.355c.064-.519.267-.998.577-1.357.593-.714 1.679-.781 2.672-.068.072.048.139.1.195.148 1.16 1.043 1.133 2.885.333 3.836-.284.343-.706.531-1.187.531-.345-.004-.703-.099-1.065-.285z"/></g></svg>